<svg width="270" height="188" viewBox="0 0 270 188" fill="none" xmlns="http://www.w3.org/2000/svg">
<g clip-path="url(#clip0_336_360)">
<path d="M227.583 130.557C227.304 130.25 227.096 129.885 226.974 129.488C226.852 129.092 226.819 128.673 226.876 128.262C226.933 127.851 227.079 127.457 227.305 127.109C227.531 126.761 227.83 126.466 228.182 126.246L225.931 116.413L230.841 118.25L232.225 127.306C232.556 127.921 232.649 128.637 232.487 129.317C232.326 129.996 231.92 130.593 231.348 130.994C230.776 131.395 230.076 131.572 229.382 131.491C228.688 131.411 228.048 131.078 227.583 130.557Z" fill="#FFB8B8"/>
<path d="M227.243 122.753L222.927 114.409L223.511 93.3984L223.788 93.9828C224.111 94.6635 231.684 110.695 231.144 116.062L232.009 120.966L227.243 122.753Z" fill="#3F3D56"/>
<path d="M224.429 184.419H227.89L229.536 171.07L224.428 171.071L224.429 184.419Z" fill="#FFB8B8"/>
<path d="M223.546 183.289L230.362 183.289H230.362C231.514 183.289 232.619 183.746 233.433 184.561C234.248 185.375 234.705 186.48 234.705 187.632V187.773L223.547 187.774L223.546 183.289Z" fill="#2F2E41"/>
<path d="M190.235 181.789L193.57 182.716L198.732 170.297L193.811 168.928L190.235 181.789Z" fill="#FFB8B8"/>
<path d="M189.687 180.464L196.253 182.289L196.254 182.29C197.364 182.598 198.305 183.335 198.872 184.338C199.438 185.341 199.583 186.528 199.275 187.637L199.237 187.773L188.486 184.784L189.687 180.464Z" fill="#2F2E41"/>
<path d="M220.978 179.215L213.994 129.207L198.909 178.932L187.048 174.882L204.048 108.299L204.16 108.291L221.969 107.052L234.835 175.173L220.978 179.215Z" fill="#2F2E41"/>
<path d="M219.132 84.7341C219.132 84.7341 212.639 81.3467 203.888 82.7581C203.888 82.7581 199.231 93.9948 203.888 98.468L205.159 109.716C205.159 109.716 217.014 116.773 220.966 108.587L220.402 99.2715C220.402 99.2715 223.225 94.8039 220.966 91.5332C219.613 89.5353 218.967 87.1417 219.132 84.7341Z" fill="#F48E1E"/>
<path d="M219.954 135.895L221.093 112.249L217.868 84.1196L218.016 84.0971C222.247 83.4593 223.604 90.7476 223.659 91.0581L231.023 132.691L219.954 135.895Z" fill="#3F3D56"/>
<path d="M205.597 136.141L192.58 134.695L192.583 134.553C192.629 132.626 193.75 87.314 196.889 84.1049C200.047 80.8767 206.007 82.2735 206.259 82.3349L206.385 82.3652L205.313 101.538L205.597 136.141Z" fill="#3F3D56"/>
<path d="M207.995 109.06C207.601 109.189 207.183 109.23 206.771 109.181C206.359 109.131 205.963 108.992 205.61 108.773C205.258 108.554 204.958 108.26 204.732 107.912C204.505 107.564 204.358 107.171 204.299 106.76L194.4 104.821L198.074 101.081L206.911 103.496C207.608 103.444 208.299 103.65 208.854 104.074C209.41 104.498 209.79 105.111 209.924 105.796C210.058 106.482 209.935 107.193 209.58 107.795C209.224 108.396 208.66 108.846 207.995 109.06Z" fill="#FFB8B8"/>
<path d="M202.713 106.79L199.487 106.097C194.726 107.529 186.414 102.487 183.055 100.248C182.423 99.8264 182.218 98.9915 182.445 97.7667C182.782 96.0535 183.726 94.5196 185.104 93.448L196.935 84.0672L199.922 83.5679L200.809 88.5942L193.271 96.6904L204.367 102.73L202.713 106.79Z" fill="#3F3D56"/>
<path d="M201.437 78.503V71.9853C201.437 69.2278 202.532 66.5833 204.482 64.6334C206.432 62.6836 209.077 61.5881 211.834 61.5881C214.592 61.5881 217.236 62.6836 219.186 64.6334C221.136 66.5833 222.231 69.2278 222.231 71.9853V78.503C222.231 78.8733 222.084 79.2283 221.822 79.4901C221.56 79.7519 221.205 79.8992 220.835 79.8996H202.834C202.463 79.8992 202.108 79.7519 201.847 79.4901C201.585 79.2283 201.437 78.8733 201.437 78.503Z" fill="#2F2E41"/>
<path d="M211.416 79.8355C215.626 79.8355 219.039 76.4226 219.039 72.2126C219.039 68.0026 215.626 64.5897 211.416 64.5897C207.206 64.5897 203.793 68.0026 203.793 72.2126C203.793 76.4226 207.206 79.8355 211.416 79.8355Z" fill="#FFB8B8"/>
<path d="M203.584 72.1832C203.511 72.0992 203.457 72.0004 203.426 71.8937C203.395 71.787 203.387 71.6747 203.402 71.5646L204.305 65.2767C204.323 65.1488 204.373 65.0273 204.449 64.9233C204.526 64.8193 204.628 64.7361 204.744 64.6811C209.353 62.5241 214.027 62.5213 218.636 64.673C218.759 64.7309 218.864 64.8196 218.941 64.9304C219.019 65.0412 219.067 65.1702 219.08 65.3049L219.683 71.601C219.693 71.7086 219.681 71.8173 219.646 71.9199C219.612 72.0225 219.557 72.1168 219.484 72.1969C219.412 72.2769 219.323 72.3408 219.224 72.3846C219.125 72.4283 219.018 72.4509 218.91 72.4509H217.381C217.234 72.4505 217.089 72.4082 216.965 72.329C216.84 72.2497 216.741 72.1367 216.678 72.0032L216.019 70.5896C215.976 70.498 215.905 70.4229 215.815 70.3754C215.726 70.328 215.624 70.3108 215.524 70.3265C215.425 70.3422 215.333 70.3899 215.262 70.4625C215.192 70.535 215.147 70.6285 215.135 70.7287L215.004 71.771C214.981 71.9586 214.89 72.1311 214.748 72.2563C214.606 72.3814 214.424 72.4506 214.234 72.4509H204.17C204.059 72.4509 203.949 72.427 203.848 72.3808C203.747 72.3346 203.657 72.2673 203.584 72.1832Z" fill="#2F2E41"/>
<path d="M171.572 12.5282H0.561035V119.018H171.572V12.5282Z" fill="#E6E6E6"/>
<path d="M43.3494 33.0432H12.0288V53.4016H43.3494V33.0432Z" fill="white"/>
<path d="M82.2674 33.0432H50.9468V53.4016H82.2674V33.0432Z" fill="white"/>
<path d="M121.186 33.0432H89.8652V53.4016H121.186V33.0432Z" fill="white"/>
<path d="M160.104 33.0432H128.784V53.4016H160.104V33.0432Z" fill="white"/>
<path d="M43.3494 61.8583H12.0288V82.2167H43.3494V61.8583Z" fill="white"/>
<path d="M82.2674 61.8583H50.9468V82.2167H82.2674V61.8583Z" fill="white"/>
<path d="M121.186 61.8583H89.8652V82.2167H121.186V61.8583Z" fill="white"/>
<path d="M160.104 61.8583H128.784V82.2167H160.104V61.8583Z" fill="white"/>
<path d="M43.3494 90.6733H12.0288V111.032H43.3494V90.6733Z" fill="white"/>
<path d="M82.2674 90.6733H50.9468V111.032H82.2674V90.6733Z" fill="white"/>
<path d="M121.186 90.6733H89.8652V111.032H121.186V90.6733Z" fill="white"/>
<path d="M160.104 90.6733H128.784V111.032H160.104V90.6733Z" fill="white"/>
<path d="M45.3495 25.0565C47.9441 25.0565 50.0476 22.9531 50.0476 20.3584C50.0476 17.7637 47.9441 15.6603 45.3495 15.6603C42.7548 15.6603 40.6514 17.7637 40.6514 20.3584C40.6514 22.9531 42.7548 25.0565 45.3495 25.0565Z" fill="white"/>
<path d="M123.025 25.0565C125.619 25.0565 127.723 22.953 127.723 20.3584C127.723 17.7637 125.619 15.6603 123.025 15.6603C120.43 15.6603 118.327 17.7637 118.327 20.3584C118.327 22.953 120.43 25.0565 123.025 25.0565Z" fill="white"/>
<path d="M47.2287 0H43.4702V21.6112H47.2287V0Z" fill="#E6E6E6"/>
<path d="M124.904 0H121.146V21.6112H124.904V0Z" fill="#E6E6E6"/>
<path d="M151.527 43.2225C151.525 44.9234 150.91 46.5665 149.794 47.85C148.678 49.1336 147.136 49.9713 145.452 50.2092C143.767 50.4471 142.054 50.0692 140.626 49.1451C139.198 48.2209 138.152 46.8125 137.679 45.1787C137.206 43.5448 137.339 41.7952 138.053 40.2514C138.767 38.7076 140.014 37.4733 141.565 36.7752C143.116 36.0771 144.867 35.9622 146.496 36.4516C148.125 36.941 149.522 38.0018 150.432 39.439C151.148 40.5709 151.528 41.8831 151.527 43.2225Z" fill="#F48E1E"/>
<path d="M150.432 39.4391L143.46 46.4098C143.022 45.7314 140.581 42.5787 140.581 42.5787C140.893 42.2625 141.227 41.9677 141.58 41.6965L143.604 44.3957L149.616 38.3844C149.92 38.7094 150.194 39.0625 150.432 39.4391Z" fill="white"/>
<path d="M73.6901 72.0374C73.6885 73.7383 73.0731 75.3815 71.9571 76.665C70.8411 77.9485 69.2993 78.7862 67.6152 79.0241C65.931 79.262 64.2176 78.8842 62.7897 77.96C61.3618 77.0359 60.3154 75.6274 59.8427 73.9936C59.37 72.3597 59.5028 70.6102 60.2167 69.0664C60.9305 67.5225 62.1776 66.2882 63.7286 65.5901C65.2796 64.8921 67.0304 64.7772 68.6594 65.2666C70.2883 65.7559 71.686 66.8167 72.5955 68.254C73.3117 69.3858 73.6914 70.698 73.6901 72.0374Z" fill="#F48E1E"/>
<path d="M72.5956 68.254L65.6236 75.2247C65.1854 74.5463 62.7441 71.3936 62.7441 71.3936C63.057 71.0774 63.3909 70.7827 63.7434 70.5115L65.7678 73.2106L71.7791 67.1993C72.084 67.5243 72.3574 67.8775 72.5956 68.254Z" fill="white"/>
<path d="M34.7717 72.0375C34.7701 73.7383 34.1547 75.3815 33.0387 76.665C31.9227 77.9486 30.3809 78.7863 28.6968 79.0242C27.0126 79.2621 25.2992 78.8842 23.8713 77.9601C22.4434 77.0359 21.3969 75.6275 20.9242 73.9936C20.4515 72.3598 20.5843 70.6102 21.2982 69.0664C22.0121 67.5226 23.2591 66.2882 24.8101 65.5901C26.3612 64.8921 28.112 64.7772 29.741 65.2666C31.3699 65.7559 32.7676 66.8167 33.6771 68.254C34.3934 69.3858 34.773 70.698 34.7717 72.0375Z" fill="#F48E1E"/>
<path d="M33.6771 68.254L26.7051 75.2247C26.2669 74.5463 23.8257 71.3936 23.8257 71.3936C24.1385 71.0774 24.4724 70.7827 24.825 70.5115L26.8494 73.2106L32.8607 67.1993C33.1655 67.5243 33.4389 67.8775 33.6771 68.254Z" fill="white"/>
<path d="M269.129 188H150.88C150.798 188 150.719 187.967 150.661 187.909C150.603 187.851 150.57 187.772 150.57 187.69C150.57 187.607 150.603 187.529 150.661 187.47C150.719 187.412 150.798 187.379 150.88 187.379H269.129C269.211 187.379 269.29 187.412 269.348 187.47C269.407 187.529 269.439 187.607 269.439 187.69C269.439 187.772 269.407 187.851 269.348 187.909C269.29 187.967 269.211 188 269.129 188Z" fill="#3F3D56"/>
</g>
<defs>
<clipPath id="clip0_336_360">
<rect width="268.878" height="188" fill="white" transform="translate(0.561035)"/>
</clipPath>
</defs>
</svg>
