<svg width="280" height="188" viewBox="0 0 280 188" fill="none" xmlns="http://www.w3.org/2000/svg">
<g clip-path="url(#clip0_336_207)">
<path d="M234.684 188C259.167 188 279.014 186.506 279.014 184.663C279.014 182.82 259.167 181.325 234.684 181.325C210.202 181.325 190.354 182.82 190.354 184.663C190.354 186.506 210.202 188 234.684 188Z" fill="#E6E6E6"/>
<path d="M46.1384 51.7788C46.1526 48.3821 43.2588 45.6038 39.8621 45.6038H8.34322C5.00023 45.6038 2.11191 48.3362 2.07277 51.6789C2.06064 52.629 2.26933 53.5689 2.68239 54.4245C3.09545 55.2802 3.70159 56.0282 4.45304 56.6096C4.64566 56.7532 4.79724 56.9447 4.89263 57.1652C4.98802 57.3857 5.02389 57.6273 4.99663 57.866C4.96006 58.1368 4.94173 58.4099 4.94175 58.6832V80.4846C4.94175 81.2871 5.09982 82.0818 5.40692 82.8232C5.71401 83.5646 6.16413 84.2382 6.73158 84.8057C7.29902 85.3731 7.97268 85.8232 8.71408 86.1303C9.45548 86.4374 10.2501 86.5955 11.0526 86.5955H36.9532C38.5739 86.5955 40.1282 85.9517 41.2742 84.8057C42.4202 83.6597 43.0641 82.1054 43.0641 80.4847V58.6832C43.0641 58.444 43.0502 58.205 43.0223 57.9675C42.9977 57.7323 43.0364 57.4948 43.1345 57.2796C43.2325 57.0644 43.3863 56.8793 43.58 56.7436C44.3687 56.1773 45.0118 55.4321 45.4565 54.569C45.9012 53.7059 46.1349 52.7497 46.1384 51.7788Z" fill="#3F3D56"/>
<path d="M44.7733 51.1805C44.6161 49.9979 44.0319 48.9135 43.1308 48.1317C42.2297 47.3499 41.0738 46.9246 39.8809 46.9358H8.33366C7.21844 46.9258 6.13316 47.2965 5.25707 47.9866C4.38099 48.6767 3.76649 49.645 3.51507 50.7316C3.2998 51.7302 3.40709 52.7714 3.82146 53.7051C4.23584 54.6389 4.93592 55.417 5.82085 55.9273C6.07632 56.0734 6.27597 56.3003 6.38839 56.5722C6.50082 56.8442 6.51964 57.1458 6.44189 57.4297C6.32994 57.8384 6.27342 58.2602 6.27382 58.684V80.4834C6.27397 81.5975 6.66314 82.6765 7.37414 83.5342C8.08513 84.3919 9.07332 84.9744 10.168 85.1811C10.46 85.2355 10.7564 85.2629 11.0535 85.263H36.9541C37.3914 85.2637 37.8266 85.2037 38.2474 85.0847C39.25 84.8026 40.133 84.2006 40.762 83.3703C41.391 82.5401 41.7315 81.5271 41.7317 80.4855V58.6819C41.7317 58.2852 41.6822 57.89 41.5841 57.5055C41.5574 57.3989 41.5436 57.2895 41.5431 57.1796C41.5433 56.9386 41.609 56.7022 41.7332 56.4957C41.8574 56.2892 42.0354 56.1204 42.2482 56.0072L42.2502 56.0052C43.1086 55.5496 43.8089 54.8448 44.2593 53.9837C44.7096 53.1226 44.8888 52.1453 44.7733 51.1805Z" fill="#F48E1E"/>
<path opacity="0.2" d="M41.7318 60.7705V58.7209H38.2475V46.9358H36.1979V58.7209H25.2326V46.9358H23.183V58.7209H12.2177V46.9358H10.1681V58.7209H6.27393V60.7705H10.1681V66.9193H6.27393V68.9689H10.1681V75.1176H6.27393V77.1672H10.1681V85.1811C10.4601 85.2355 10.7565 85.263 11.0536 85.2631H12.2177V77.1672H23.183V85.263H25.2326V77.1672H36.1979V85.263H36.9542C37.3915 85.2637 37.8267 85.2037 38.2475 85.0847V77.1672H41.7318V75.1176H38.2475V68.9688H41.7318V66.9193H38.2475V60.7705H41.7318ZM12.2177 60.7705H23.183V66.9193H12.2177V60.7705ZM12.2177 75.1176V68.9688H23.183V75.1176H12.2177ZM36.1979 75.1176H25.2326V68.9688H36.1979V75.1176ZM36.1979 66.9192H25.2326V60.7705H36.1979V66.9192Z" fill="black"/>
<path d="M45.9946 0C45.9946 2.87456 45.4284 5.72097 44.3284 8.37671C43.2284 11.0325 41.616 13.4455 39.5834 15.4781C37.5508 17.5108 35.1377 19.1231 32.4819 20.2232C29.8262 21.3232 26.9798 21.8894 24.1052 21.8894C21.2307 21.8894 18.3843 21.3232 15.7285 20.2232C13.0728 19.1231 10.6597 17.5108 8.62708 15.4781C6.59446 13.4455 4.9821 11.0325 3.88205 8.37671C2.78201 5.72097 2.21582 2.87456 2.21582 0H45.9946Z" fill="#F48E1E"/>
<path d="M10.2465 3.8858C10.2465 4.45807 10.0435 4.92198 9.79317 4.92198C9.5428 4.92198 9.33984 4.45807 9.33984 3.8858C9.36736 3.49856 9.52745 3.13263 9.79317 2.84961C10.0589 3.13263 10.219 3.49856 10.2465 3.8858Z" fill="#3F3D56"/>
<path d="M33.1718 7.51226C33.1718 8.08453 32.9688 8.54845 32.7185 8.54845C32.4681 8.54845 32.2651 8.08453 32.2651 7.51226C32.2927 7.12503 32.4527 6.7591 32.7185 6.47607C32.9842 6.7591 33.1443 7.12503 33.1718 7.51226Z" fill="#3F3D56"/>
<path d="M16.3339 5.43999C16.3339 6.01226 16.131 6.47618 15.8806 6.47618C15.6302 6.47618 15.4272 6.01226 15.4272 5.43999C15.4548 5.05276 15.6149 4.68683 15.8806 4.40381C16.1463 4.68683 16.3064 5.05276 16.3339 5.43999Z" fill="#3F3D56"/>
<path d="M25.4003 13.5999C25.4003 14.1722 25.1973 14.6361 24.947 14.6361C24.6966 14.6361 24.4937 14.1722 24.4937 13.5999C24.5212 13.2127 24.6813 12.8467 24.947 12.5637C25.2127 12.8467 25.3728 13.2127 25.4003 13.5999Z" fill="#3F3D56"/>
<path d="M15.6864 12.5638C15.6864 13.136 15.4835 13.6 15.2331 13.6C14.9828 13.6 14.7798 13.136 14.7798 12.5638C14.8073 12.1765 14.9674 11.8106 15.2331 11.5276C15.4988 11.8106 15.6589 12.1765 15.6864 12.5638Z" fill="#3F3D56"/>
<path d="M38.353 2.84942C38.353 3.42169 38.15 3.88561 37.8996 3.88561C37.6493 3.88561 37.4463 3.42169 37.4463 2.84942C37.4738 2.46218 37.6339 2.09625 37.8996 1.81323C38.1653 2.09625 38.3254 2.46218 38.353 2.84942Z" fill="#3F3D56"/>
<path d="M30.0634 15.6724C30.0634 16.2447 29.8604 16.7086 29.6101 16.7086C29.3597 16.7086 29.1567 16.2447 29.1567 15.6724C29.1843 15.2852 29.3443 14.9193 29.6101 14.6362C29.8758 14.9193 30.0359 15.2852 30.0634 15.6724Z" fill="#3F3D56"/>
<path d="M24.1052 23.1199C17.9756 23.1129 12.099 20.6749 7.76467 16.3406C3.43035 12.0062 0.99229 6.12964 0.985352 0H3.44627C3.44627 2.71297 3.98063 5.39937 5.01884 7.90583C6.05705 10.4123 7.57878 12.6897 9.49714 14.6081C11.4155 16.5264 13.6929 18.0482 16.1994 19.0864C18.7058 20.1246 21.3922 20.6589 24.1052 20.6589C26.8182 20.6589 29.5046 20.1246 32.011 19.0864C34.5175 18.0482 36.7949 16.5264 38.7133 14.6081C40.6316 12.6897 42.1534 10.4123 43.1916 7.90583C44.2298 5.39937 44.7642 2.71297 44.7642 0H47.2251C47.2181 6.12964 44.7801 12.0062 40.4458 16.3405C36.1115 20.6749 30.2349 23.1129 24.1052 23.1199Z" fill="#3F3D56"/>
<path d="M77.3592 7.93726H70.1138V15.1827H77.3592V7.93726Z" fill="#3F3D56"/>
<path d="M148.365 11.1978H90.0391V11.9223H148.365V11.1978Z" fill="#3F3D56"/>
<path d="M77.3592 62.4768H70.1138V69.7223H77.3592V62.4768Z" fill="#3F3D56"/>
<path d="M148.365 65.7373H90.0391V66.4619H148.365V65.7373Z" fill="#3F3D56"/>
<path d="M77.3592 116.637H70.1138V123.883H77.3592V116.637Z" fill="#3F3D56"/>
<path d="M148.365 119.898H90.0391V120.622H148.365V119.898Z" fill="#3F3D56"/>
<path d="M230.06 49.7562L220.804 57.0514L201.192 50.1588C201.192 50.1588 194.524 42.6586 190.753 48.2449C189.462 50.1581 197.921 53.6927 198.719 54.0212C200.714 54.8424 219.824 65.3267 221.697 63.9512C223.569 62.5757 234.106 55.6186 234.106 55.6186L230.06 49.7562Z" fill="#A0616A"/>
<path d="M261.653 37.3117C252.881 34.0339 244.537 32.4831 237.771 37.3117V21.7278C237.771 20.1597 238.08 18.6069 238.68 17.1582C239.281 15.7094 240.16 14.3931 241.269 13.2843C242.378 12.1755 243.694 11.2959 245.143 10.6958C246.592 10.0957 248.144 9.78687 249.712 9.78687C251.28 9.78687 252.833 10.0957 254.282 10.6958C255.731 11.2959 257.047 12.1755 258.156 13.2843C259.265 14.3931 260.144 15.7094 260.744 17.1582C261.344 18.6069 261.653 20.1597 261.653 21.7278L261.653 37.3117Z" fill="#2F2E41"/>
<path d="M239.612 71.3549L238.896 76.3724C238.896 76.3724 237.104 81.7483 238.896 91.7833L210.045 170.451L231.369 176.543L241.942 133.536L256.815 100.743L255.382 138.016L247.855 177.798L270.076 176.902L276.551 108.688C277.598 97.9076 275.728 87.0439 271.137 77.2339C269.34 73.4191 267.409 70.4126 265.657 69.9762C260.399 68.667 239.612 71.3549 239.612 71.3549Z" fill="#2F2E41"/>
<path d="M212.732 169.913L205.385 177.798C205.385 177.798 191.229 185.145 201.264 186.041C211.299 186.937 214.704 182.994 214.704 182.994C214.704 182.994 227.247 182.098 227.068 180.306C226.889 178.515 225.993 172.601 225.993 172.601L212.732 169.913Z" fill="#2F2E41"/>
<path d="M252.604 171.814V177.369C252.604 177.369 252.783 179.699 252.604 180.236C252.425 180.774 249.737 187.404 258.697 185.971C267.657 184.537 264.073 178.982 264.073 178.982L261.922 170.918L252.604 171.814Z" fill="#2F2E41"/>
<path d="M249.602 32.6484C254.575 32.6484 258.607 28.6169 258.607 23.6438C258.607 18.6707 254.575 14.6392 249.602 14.6392C244.629 14.6392 240.598 18.6707 240.598 23.6438C240.598 28.6169 244.629 32.6484 249.602 32.6484Z" fill="#A0616A"/>
<path d="M255.829 28.6164C255.829 28.6164 254.575 40.4434 255.829 42.5937C257.084 44.7441 243.106 40.4434 243.106 40.4434C243.106 40.4434 246.153 32.3795 245.078 29.154C244.002 25.9284 255.829 28.6164 255.829 28.6164Z" fill="#A0616A"/>
<path d="M262.997 62.6638L265.864 70.5484L239.164 73.5948C239.164 73.5948 236.297 73.0572 236.297 70.7276C236.297 68.3981 233.251 60.155 233.251 60.155C233.251 60.155 225.79 54.1078 222.206 52.4951C220.907 51.9109 222.85 52.1521 223.943 49.672C224.271 48.9266 224.663 48.1399 225.092 47.3425C225.441 46.6884 225.818 46.0254 226.203 45.3713C226.67 44.5739 227.153 43.789 227.62 43.0418C229.036 40.7821 230.328 38.8826 230.742 38.1138C231.996 35.7843 243.789 35.5764 243.789 35.5764C247.162 37.6981 256.905 38.1138 256.905 38.1138C256.905 38.1138 263.606 40.9183 266.398 43.0418C266.601 43.1941 262.997 62.6638 262.997 62.6638Z" fill="#E6E6E6"/>
<path d="M257.201 12.8339V12.6201L256.947 12.6342C255.503 11.5348 253.828 10.7787 252.048 10.4231C250.269 10.0675 248.432 10.1218 246.677 10.582C248.359 11.0266 249.924 11.835 251.26 12.9501L242.629 13.4296L238.986 21.5251H241.451L243.438 17.8822V21.5251H251.777L252.343 18.6917L253.918 21.5251H255.556C255.566 21.7272 255.582 21.9277 255.582 22.1323L253.963 37.7162L261.653 34.478V22.1323C261.655 20.3479 261.255 18.586 260.485 16.9766C259.714 15.3673 258.592 13.9515 257.201 12.8339Z" fill="#2F2E41"/>
<path d="M269.269 54.0623L268.732 68.2188L267.298 95.6359C267.298 95.6359 269.269 107.463 264.252 107.284C259.234 107.104 262.998 93.3064 262.998 93.3064L261.564 71.6235L262.998 56.3918L269.269 54.0623Z" fill="#A0616A"/>
<path d="M270.703 61.7678C270.703 63.3805 261.653 62.9325 261.653 62.9325L256.905 38.1138C256.905 38.1138 263.607 40.9182 266.399 43.0417C267.056 43.7233 267.593 44.5108 267.988 45.3712C268.201 45.9465 268.404 46.6131 268.596 47.3424C268.786 48.0664 268.963 48.853 269.13 49.672C269.912 53.6662 270.437 57.7064 270.703 61.7678Z" fill="#E6E6E6"/>
<path d="M23.8614 119.341L10.145 117.921C10.2504 117.193 10.1695 116.45 9.90982 115.761C9.65015 115.072 9.22018 114.461 8.66009 113.984C8.09999 113.506 7.42804 113.179 6.70699 113.031C5.98595 112.884 5.23934 112.922 4.53689 113.141C3.83443 113.361 3.19906 113.755 2.69011 114.286C2.18117 114.818 1.81525 115.47 1.62654 116.181C1.43784 116.892 1.43249 117.64 1.61101 118.354C1.78953 119.068 2.14608 119.725 2.64737 120.264C2.13805 120.814 1.77931 121.486 1.60585 122.215C1.43238 122.945 1.45007 123.706 1.65719 124.427C1.86431 125.148 2.25386 125.802 2.78816 126.328C3.32246 126.854 3.98343 127.233 4.70714 127.429C5.43084 127.625 6.1928 127.63 6.9193 127.445C7.64579 127.26 8.31225 126.891 8.85421 126.373C9.39618 125.855 9.79529 125.206 10.013 124.488C10.2306 123.771 10.2595 123.009 10.0968 122.278L23.8614 121.012V119.341Z" fill="#CCCCCC"/>
<path d="M37.8095 128.769C43.2017 130.095 48.6337 126.27 48.9148 120.724C48.9226 120.571 48.9265 120.416 48.9266 120.26C48.9266 120.104 48.9227 119.95 48.9148 119.796C48.6337 114.25 43.2017 110.425 37.8095 111.751L19.5167 116.25C18.9897 116.249 18.4678 116.352 17.9808 116.554C17.4938 116.755 17.0512 117.05 16.6784 117.423C16.3056 117.795 16.0099 118.238 15.8081 118.724C15.6063 119.211 15.5024 119.733 15.5024 120.26C15.5024 120.787 15.6063 121.309 15.8081 121.796C16.0099 122.282 16.3056 122.725 16.6784 123.097C17.0512 123.47 17.4938 123.765 17.9808 123.966C18.4678 124.168 18.9897 124.271 19.5167 124.27L37.8095 128.769Z" fill="#F48E1E"/>
</g>
<defs>
<clipPath id="clip0_336_207">
<rect width="278.029" height="188" fill="white" transform="translate(0.985352)"/>
</clipPath>
</defs>
</svg>
