<svg width="262" height="188" viewBox="0 0 262 188" fill="none" xmlns="http://www.w3.org/2000/svg">
<g clip-path="url(#clip0_120_82)">
<path d="M126.224 69.8788C127.656 68.3948 130.022 68.8285 131.596 69.8759C133.621 71.2239 134.2 73.6855 134.499 75.8676C135.005 79.5616 135.155 84.7833 139.608 86.3277C141.666 87.0412 144.021 86.452 145.759 85.2934C147.658 84.0279 148.842 82.0813 149.635 80.0638C150.595 77.6212 151.151 75.0083 151.622 72.4485C152.104 69.8308 152.42 67.1849 152.562 64.5316C152.7 61.9357 152.61 59.3569 152.5 56.7627C152.415 54.7373 152.382 52.6104 153.109 50.6736C153.844 48.7175 155.552 47.2297 157.798 47.0334C159.978 46.8429 162.224 47.7076 163.801 49.1031C167.585 52.4515 167.763 57.9178 168.609 62.4073C169.054 64.7661 169.703 67.153 171.065 69.2052C172.185 70.8931 173.742 72.308 175.535 73.3578C179.151 75.4753 183.759 76.0932 187.771 74.6385C191.689 73.2182 194.843 70.1135 196.207 66.3818C196.544 65.4602 196.752 64.5081 196.858 63.5395C196.907 63.0892 196.158 63.0924 196.109 63.5395C195.661 67.6561 192.851 71.3843 189.001 73.3367C185.04 75.3458 180.243 75.0909 176.372 73.0081C174.47 71.9842 172.814 70.5399 171.664 68.7787C170.27 66.6428 169.672 64.1531 169.238 61.7087C168.453 57.2938 168.097 52.2248 164.579 48.835C161.851 46.206 156.83 45.151 153.898 48.0793C150.879 51.0946 151.784 55.9517 151.88 59.6947C152.022 65.1765 151.421 70.6711 150.089 76.0095C149.509 78.3333 148.842 80.7296 147.387 82.7221C146.057 84.5431 143.883 85.9545 141.463 85.9321C139.049 85.9097 137.354 84.2412 136.497 82.2519C135.593 80.1533 135.533 77.8868 135.221 75.6715C134.933 73.6379 134.41 71.3875 132.789 69.8992C131.528 68.7419 129.657 67.9969 127.883 68.2631C127.03 68.391 126.274 68.7807 125.695 69.3809C125.372 69.7158 125.899 70.2152 126.224 69.8788Z" fill="#F48E1E"/>
<path d="M234.414 145.158C233.992 144.489 232.169 145.205 231.834 144.598C231.5 143.994 233.194 143.073 234.162 140.97C234.336 140.59 235.436 138.2 234.622 137.462C233.079 136.064 226.018 141.834 223.547 139.946C223.004 139.532 222.625 138.704 220.984 137.361C220.331 136.827 219.936 136.586 219.554 136.676C219.012 136.803 218.969 137.485 218.388 138.827C217.516 140.84 217 140.718 216.492 142.324C216.115 143.516 216.201 144.209 215.757 144.344C215.129 144.535 214.551 143.271 213.755 143.384C212.943 143.5 212.452 144.972 212.297 146.074C212.006 148.142 212.814 149.507 213.261 150.942C213.748 152.502 214.037 154.873 212.913 158.231L201.795 187.695C204.25 181.649 211.357 165.076 214.343 158.917C215.205 157.139 216.157 155.336 218.112 154.624C219.994 153.939 222.578 154.348 225.873 153.601C226.257 153.514 227.325 153.258 227.46 152.668C227.571 152.179 226.943 151.907 227.039 151.449C227.169 150.836 228.404 150.828 229.922 150.12C230.992 149.621 231.659 149.028 232.232 148.517C232.405 148.363 234.975 146.047 234.414 145.158Z" fill="#F2F2F2"/>
<path d="M190.671 160.669C190.2 160.67 190.048 161.718 189.635 161.698C189.223 161.678 189.231 160.63 188.413 159.577C188.265 159.387 187.335 158.189 186.715 158.352C185.54 158.661 186.514 163.586 184.816 164.182C184.443 164.312 183.902 164.249 182.728 164.619C182.26 164.766 182.021 164.879 181.957 165.081C181.867 165.368 182.211 165.585 182.743 166.24C183.542 167.224 183.33 167.427 184.021 168.124C184.534 168.642 184.921 168.803 184.863 169.046C184.782 169.391 183.955 169.293 183.785 169.693C183.611 170.102 184.237 170.753 184.768 171.143C185.763 171.874 186.708 171.895 187.586 172.102C188.54 172.328 189.861 172.879 191.289 174.366L203.456 188C201.009 185.122 194.412 177.06 192.06 173.904C191.381 172.993 190.714 172.033 190.907 170.926C191.092 169.859 192.051 168.784 192.612 167.048C192.678 166.845 192.853 166.278 192.583 166.046C192.36 165.854 192.037 166.065 191.826 165.888C191.543 165.652 191.896 165.079 191.964 164.174C192.013 163.536 191.895 163.057 191.794 162.645C191.764 162.521 191.297 160.666 190.671 160.669Z" fill="#F2F2F2"/>
<path d="M200.053 162.65L199.77 160.271L199.899 160.09C200.499 159.256 200.804 158.442 200.808 157.669C200.808 157.546 200.802 157.423 200.796 157.298C200.772 156.801 200.741 156.184 201.083 155.465C201.275 155.064 201.813 154.136 202.623 154.251C202.841 154.28 203.006 154.374 203.131 154.484C203.15 154.457 203.168 154.429 203.189 154.399C203.441 154.037 203.641 153.882 203.833 153.733C203.981 153.618 204.133 153.5 204.373 153.219C204.478 153.096 204.56 152.988 204.629 152.898C204.838 152.623 205.112 152.296 205.594 152.301C206.11 152.324 206.379 152.725 206.558 152.991C206.878 153.464 207.023 153.805 207.118 154.032C207.153 154.114 207.193 154.207 207.213 154.236C207.379 154.466 208.729 154.251 209.238 154.173C210.381 153.994 211.369 153.839 211.777 154.516C212.069 155.001 211.852 155.642 211.113 156.473C210.883 156.731 210.638 156.928 210.42 157.082C210.601 157.183 210.762 157.338 210.827 157.581C210.981 158.158 210.454 158.736 209.261 159.301C208.965 159.442 208.566 159.631 208.008 159.721C207.744 159.764 207.507 159.774 207.305 159.78C207.3 159.89 207.273 160.01 207.201 160.133C206.992 160.495 206.556 160.667 205.899 160.626C205.176 160.59 204.58 160.46 204.055 160.346C203.597 160.248 203.201 160.164 202.891 160.183C202.316 160.227 201.873 160.66 201.352 161.222L200.053 162.65Z" fill="#F2F2F2"/>
<path d="M201.368 148.484L198.993 149.346L198.775 149.274C197.765 148.94 196.85 148.869 196.054 149.062C195.927 149.092 195.802 149.129 195.675 149.166C195.171 149.314 194.544 149.499 193.718 149.37C193.257 149.297 192.166 149.043 192.078 148.277C192.053 148.071 192.108 147.897 192.189 147.755C192.156 147.746 192.123 147.735 192.087 147.725C191.651 147.587 191.441 147.445 191.239 147.307C191.083 147.202 190.923 147.093 190.574 146.947C190.421 146.882 190.289 146.835 190.178 146.795C189.843 146.674 189.436 146.509 189.32 146.068C189.213 145.593 189.557 145.246 189.784 145.016C190.19 144.605 190.504 144.387 190.713 144.243C190.789 144.19 190.874 144.13 190.899 144.105C191.093 143.895 190.53 142.721 190.32 142.278C189.846 141.284 189.436 140.424 190.03 139.881C190.454 139.493 191.168 139.528 192.21 139.989C192.534 140.133 192.798 140.306 193.012 140.465C193.07 140.275 193.189 140.089 193.423 139.968C193.977 139.682 194.704 140.015 195.588 140.956C195.809 141.19 196.104 141.505 196.339 141.99C196.449 142.219 196.52 142.432 196.577 142.615C196.692 142.591 196.822 142.586 196.966 142.619C197.391 142.718 197.679 143.071 197.803 143.68C197.95 144.346 197.968 144.921 197.984 145.428C197.999 145.87 198.013 146.251 198.111 146.528C198.302 147.04 198.86 147.334 199.57 147.665L201.368 148.484Z" fill="#F2F2F2"/>
<path d="M200.053 141.475L199.77 139.096L199.899 138.916C200.499 138.082 200.804 137.267 200.808 136.494C200.808 136.371 200.802 136.249 200.796 136.123C200.772 135.627 200.741 135.01 201.083 134.291C201.275 133.89 201.813 132.962 202.623 133.077C202.841 133.105 203.006 133.2 203.131 133.31C203.15 133.282 203.168 133.255 203.189 133.225C203.441 132.863 203.641 132.708 203.833 132.559C203.981 132.444 204.133 132.325 204.373 132.045C204.478 131.922 204.56 131.814 204.629 131.723C204.838 131.449 205.112 131.122 205.594 131.127C206.11 131.15 206.379 131.551 206.558 131.817C206.878 132.29 207.023 132.631 207.118 132.857C207.153 132.94 207.193 133.033 207.213 133.062C207.379 133.292 208.729 133.077 209.238 132.999C210.381 132.819 211.369 132.664 211.777 133.342C212.069 133.827 211.852 134.468 211.113 135.298C210.883 135.557 210.638 135.753 210.42 135.907C210.601 136.008 210.762 136.164 210.827 136.407C210.981 136.984 210.454 137.562 209.261 138.127C208.965 138.268 208.566 138.456 208.008 138.547C207.744 138.59 207.507 138.6 207.305 138.606C207.3 138.716 207.273 138.836 207.201 138.959C206.992 139.32 206.556 139.493 205.899 139.451C205.176 139.416 204.58 139.286 204.055 139.172C203.597 139.073 203.201 138.99 202.891 139.009C202.316 139.053 201.873 139.486 201.352 140.048L200.053 141.475Z" fill="#F2F2F2"/>
<path d="M202.642 187.656L202.112 187.344L201.494 187.41C201.484 187.356 201.45 187.232 201.4 187.038C201.123 185.974 200.28 182.737 199.576 177.639C199.085 174.08 198.807 170.421 198.75 166.762C198.692 163.098 198.877 160.323 199.025 158.094C199.136 156.412 199.272 154.81 199.405 153.25C199.759 149.083 200.093 145.146 199.845 140.787C199.79 139.814 199.674 137.789 198.416 135.634C197.687 134.384 196.681 133.274 195.428 132.337L196.207 131.416C197.591 132.452 198.703 133.681 199.513 135.069C200.908 137.458 201.034 139.665 201.094 140.725C201.347 145.161 201.009 149.135 200.651 153.343C200.52 154.898 200.384 156.492 200.273 158.167C200.126 160.376 199.944 163.126 200 166.744C200.057 170.359 200.331 173.973 200.816 177.487C201.511 182.521 202.342 185.71 202.615 186.758C202.76 187.317 202.791 187.434 202.642 187.656Z" fill="#F2F2F2"/>
<path d="M193.134 134.206C193.083 134.206 193.031 134.205 192.979 134.201C191.914 134.147 190.927 133.548 190.047 132.42C189.634 131.889 189.423 131.283 189.001 130.076C188.936 129.89 188.618 128.946 188.425 127.646C188.299 126.797 188.315 126.443 188.494 126.129C188.692 125.78 189.013 125.536 189.375 125.372C189.359 125.259 189.372 125.143 189.424 125.025C189.637 124.534 190.204 124.599 190.51 124.63C190.665 124.648 190.859 124.672 191.068 124.662C191.396 124.647 191.573 124.555 191.84 124.417C192.096 124.285 192.414 124.121 192.886 124.03C193.817 123.847 194.597 124.096 194.854 124.177C196.207 124.601 196.874 125.59 197.645 126.735C197.799 126.965 198.328 127.802 198.676 128.948C198.928 129.775 198.892 130.143 198.817 130.416C198.663 130.978 198.299 131.3 197.377 132.009C196.413 132.753 195.929 133.125 195.514 133.351C194.547 133.876 193.94 134.206 193.134 134.206Z" fill="#F2F2F2"/>
<path d="M166.673 40.9973H149.593C149.163 40.9973 148.812 40.6678 148.812 40.2628C148.812 39.8578 149.163 39.5284 149.593 39.5284H166.673C167.103 39.5284 167.453 39.8578 167.453 40.2628C167.453 40.6678 167.103 40.9973 166.673 40.9973Z" fill="#E6E6E6"/>
<path d="M193.124 83.7149H176.045C175.615 83.7149 175.264 83.3853 175.264 82.9803C175.264 82.5753 175.615 82.246 176.045 82.246H193.124C193.555 82.246 193.905 82.5753 193.905 82.9803C193.905 83.3853 193.555 83.7149 193.124 83.7149Z" fill="#E6E6E6"/>
<path d="M207.099 112.819H190.02C189.589 112.819 189.239 112.49 189.239 112.085C189.239 111.68 189.589 111.35 190.02 111.35H207.099C207.529 111.35 207.88 111.68 207.88 112.085C207.88 112.49 207.529 112.819 207.099 112.819Z" fill="#E6E6E6"/>
<path d="M129.241 25.0369H112.162C111.731 25.0369 111.381 24.7074 111.381 24.3024C111.381 23.8974 111.731 23.5681 112.162 23.5681H129.241C129.671 23.5681 130.022 23.8974 130.022 24.3024C130.022 24.7074 129.671 25.0369 129.241 25.0369Z" fill="#E6E6E6"/>
<path d="M0.0712891 187.11C0.0712891 187.419 0.335821 187.668 0.665235 187.668H261.335C261.664 187.668 261.928 187.419 261.928 187.11C261.928 186.8 261.664 186.551 261.335 186.551H0.665235C0.335821 186.551 0.0712891 186.8 0.0712891 187.11Z" fill="#CCCCCC"/>
<path d="M198.334 104.296H120.925C120.649 104.296 120.426 104.086 120.426 103.827V34.3523C120.426 34.0928 120.649 33.8829 120.925 33.8829C121.2 33.8829 121.424 34.0928 121.424 34.3523V62.7C121.424 85.1545 140.777 103.358 164.651 103.358H198.334C198.609 103.358 198.833 103.568 198.833 103.827C198.833 104.086 198.609 104.296 198.334 104.296Z" fill="#E6E6E6"/>
<path d="M137.226 76.3748H120.147C119.717 76.3748 119.366 76.0452 119.366 75.6402C119.366 75.2353 119.717 74.9059 120.147 74.9059H137.226C137.657 74.9059 138.007 75.2353 138.007 75.6402C138.007 76.0452 137.657 76.3748 137.226 76.3748Z" fill="#E6E6E6"/>
<path d="M120.292 78.4648C123 77.6235 124.734 75.627 124.165 74.0057C123.595 72.3845 120.938 71.7526 118.229 72.5946C117.141 72.917 116.152 73.4796 115.343 74.2353L103.915 77.9364L105.875 82.9438L116.934 78.7635C118.063 78.9176 119.214 78.8152 120.292 78.4648Z" fill="#FFB6B6"/>
<path d="M61.5426 107.164C61.6351 109.846 63.1811 111.974 64.9955 111.919C66.8099 111.863 68.2053 109.644 68.1124 106.962C68.091 105.89 67.7968 104.838 67.2547 103.895L66.7103 92.5378L61.0493 92.8917L62.187 104.05C61.7109 105.025 61.4899 106.093 61.5426 107.164Z" fill="#FFB6B6"/>
<path d="M74.6119 183.691L79.6649 183.69L80.9595 165.237L74.6108 165.359L74.6119 183.691Z" fill="#FFB6B6"/>
<path d="M91.924 183.583C92.0814 183.832 92.1644 184.636 92.1644 184.926C92.1644 185.817 91.3966 186.539 90.4494 186.539H74.8008C74.1547 186.539 73.6308 186.047 73.6308 185.439V184.826C73.6308 184.826 72.8567 182.984 74.4505 180.714C74.4505 180.714 76.4313 182.492 79.3912 179.708L80.2641 178.221L86.5823 182.567L90.0844 182.972C90.8506 183.061 91.5299 182.959 91.924 183.583Z" fill="#2F2E41"/>
<path d="M86.5899 183.691L91.6429 183.69L92.9375 165.237L86.5889 165.359L86.5899 183.691Z" fill="#FFB6B6"/>
<path d="M103.902 183.583C104.059 183.832 104.142 184.636 104.142 184.926C104.142 185.817 103.375 186.539 102.427 186.539H86.7788C86.1327 186.539 85.6089 186.047 85.6089 185.439V184.826C85.6089 184.826 84.8347 182.984 86.4285 180.714C86.4285 180.714 88.4094 182.492 91.3693 179.708L92.2421 178.221L98.5603 182.567L102.062 182.972C102.829 183.061 103.508 182.959 103.902 183.583Z" fill="#2F2E41"/>
<path d="M77.5522 46.2451C81.6573 46.2451 84.9852 43.1151 84.9852 39.2539C84.9852 35.3928 81.6573 32.2627 77.5522 32.2627C73.447 32.2627 70.1191 35.3928 70.1191 39.2539C70.1191 43.1151 73.447 46.2451 77.5522 46.2451Z" fill="#FFB6B6"/>
<path d="M67.2676 97.4054L70.7612 144.348L72.7576 175.799L82.2403 175.33L81.2421 141.062L83.2384 119.938L86.233 175.33H93.7802L96.7138 97.8749L80.4934 95.7625L67.2676 97.4054Z" fill="#2F2E41"/>
<path d="M80.2441 44.8299C78.1301 46.744 73.2443 45.4749 70.7614 44.8299C69.3947 44.4749 68.57 44.1091 68.266 43.4217C68.0547 42.9438 68.1748 42.4907 67.7669 41.544C67.528 40.9894 67.402 40.948 67.2678 40.6051C66.8937 39.6493 67.4134 38.7976 67.7669 37.7886C68.5046 35.6831 67.6238 35.4467 68.266 34.0332C69.2314 31.9082 71.8575 31.0436 72.7578 30.7472C74.4386 30.1938 75.8404 30.2524 76.2514 30.2778C78.8843 30.4408 80.6446 31.7116 81.2423 32.1555C82.4539 33.0554 83.0482 34.0072 84.2368 35.9109C85.2712 37.5674 85.3466 38.2032 85.235 38.7274C85.065 39.5263 84.5752 39.5293 84.2368 40.6051C83.8527 41.8263 84.2896 42.4401 83.7378 42.9522C83.3647 43.2984 83.018 43.1544 82.2405 43.4217C81.1704 43.7895 80.6422 44.4696 80.2441 44.8299Z" fill="#2F2E41"/>
<path d="M86.233 51.8713C86.233 51.8713 78.7466 42.9522 69.2639 46.2382L66.1928 51.8713L65.1667 52.7848C60.8625 56.617 58.8599 62.2079 59.8212 67.7085L64.273 93.1806C64.273 93.1806 63.7739 103.038 67.2676 105.855C67.2676 105.855 72.2585 96.936 84.2366 101.161C96.2147 105.386 98.7102 103.038 98.7102 103.038L94.7175 76.2813L86.233 51.8713Z" fill="#2F2E41"/>
<path d="M83.7376 53.2795L81.2422 58.4432L90.7249 88.4863L116.678 79.5673L113.184 73.9342L100.707 77.2201C100.707 77.2201 91.224 50.9324 83.7376 53.2795Z" fill="#2F2E41"/>
<path d="M66.0199 100.457H60.5299L59.5317 62.9027L66.0199 75.5771V100.457Z" fill="#2F2E41"/>
<path d="M126.16 71.8219C127.401 71.8219 128.406 70.8761 128.406 69.7095C128.406 68.5428 127.401 67.597 126.16 67.597C124.92 67.597 123.915 68.5428 123.915 69.7095C123.915 70.8761 124.92 71.8219 126.16 71.8219Z" fill="#3F3D56"/>
<path d="M141.133 88.2517C142.373 88.2517 143.379 87.3059 143.379 86.1393C143.379 84.9726 142.373 84.0269 141.133 84.0269C139.893 84.0269 138.887 84.9726 138.887 86.1393C138.887 87.3059 139.893 88.2517 141.133 88.2517Z" fill="#3F3D56"/>
<path d="M158.102 48.82C159.342 48.82 160.348 47.8743 160.348 46.7076C160.348 45.541 159.342 44.5952 158.102 44.5952C156.861 44.5952 155.856 45.541 155.856 46.7076C155.856 47.8743 156.861 48.82 158.102 48.82Z" fill="#3F3D56"/>
<path d="M183.056 76.9854C184.297 76.9854 185.302 76.0397 185.302 74.873C185.302 73.7064 184.297 72.7606 183.056 72.7606C181.816 72.7606 180.811 73.7064 180.811 74.873C180.811 76.0397 181.816 76.9854 183.056 76.9854Z" fill="#3F3D56"/>
<path d="M197.53 65.7193C198.77 65.7193 199.776 64.7736 199.776 63.6069C199.776 62.4403 198.77 61.4945 197.53 61.4945C196.29 61.4945 195.284 62.4403 195.284 63.6069C195.284 64.7736 196.29 65.7193 197.53 65.7193Z" fill="#3F3D56"/>
<path d="M193.251 18.7882L197.359 20.6183C195.674 18.4069 194.222 14.9532 193.445 12.205C192.129 14.765 190.008 17.8973 187.908 19.7683L192.25 18.7179C189.575 31.0487 179.513 39.901 167.992 39.901L167.829 40.3464C179.863 40.3464 190.52 31.6168 193.251 18.7882Z" fill="#3F3D56"/>
<path d="M180.834 0H206.787C207.888 0 208.783 0.842348 208.783 1.87769C208.783 2.91304 207.888 3.75539 206.787 3.75539H180.834C179.733 3.75539 178.838 2.91304 178.838 1.87769C178.838 0.842348 179.733 0 180.834 0Z" fill="#F48E1E"/>
<path d="M198.368 108.138C198.094 108.138 197.818 108.081 197.555 107.965C196.906 107.679 196.499 107.106 196.466 106.433L196.197 100.975C196.162 100.274 196.551 99.637 197.212 99.3115C197.873 98.986 198.652 99.0493 199.244 99.4747L203.196 102.317C203.671 102.659 203.943 103.178 203.941 103.74C203.939 104.303 203.664 104.819 203.187 105.159L199.504 107.774C199.164 108.015 198.768 108.138 198.368 108.138Z" fill="#E6E6E6"/>
<path d="M125.515 34.8074C125.515 35.0648 125.454 35.3245 125.331 35.5718C125.026 36.1817 124.417 36.5647 123.701 36.5959L117.899 36.849C117.154 36.8815 116.476 36.5157 116.13 35.8941C115.784 35.2727 115.851 34.5401 116.304 33.9829L119.326 30.266C119.689 29.8191 120.241 29.5637 120.838 29.5656C121.437 29.5672 121.986 29.8257 122.347 30.2747L125.127 33.7386C125.384 34.0583 125.515 34.4303 125.515 34.8074Z" fill="#E6E6E6"/>
<path d="M157.918 29.974C154.963 29.3083 151.806 29.9108 149.28 31.4801C146.632 33.1257 144.878 35.7608 144.285 38.68C143.06 44.7028 146.801 50.7195 152.714 53.1166C158.93 55.6366 166.325 53.9457 170.838 49.2688C173.076 46.9506 174.474 44.018 174.895 40.9167C175.31 37.8615 174.837 34.3365 172.87 31.7867C170.919 29.2574 167.67 28.4086 164.533 27.9941C161.488 27.592 157.45 27.4172 155.804 30.4479C155.49 31.0258 155.342 31.6485 155.377 32.2966C155.401 32.7475 156.15 32.7502 156.126 32.2966C156.05 30.8795 157.054 29.6955 158.341 29.0586C159.834 28.3205 161.633 28.383 163.261 28.5475C166.198 28.8445 169.534 29.3743 171.652 31.4965C173.763 33.6105 174.395 36.832 174.264 39.6381C174.127 42.5671 173.054 45.45 171.174 47.7925C167.464 52.415 160.973 54.6142 155.002 53.1209C149.183 51.6659 149.107 48.4181 149.203 42.6665C149.254 39.5981 146.173 34.7684 148.689 32.7688C151.152 30.8111 154.566 29.9427 157.719 30.653C158.187 30.7585 158.387 30.0797 157.918 29.974Z" fill="#F48E1E"/>
</g>
<defs>
<clipPath id="clip0_120_82">
<rect width="261.857" height="188" fill="white" transform="translate(0.0712891)"/>
</clipPath>
</defs>
</svg>
