<svg width="298" height="188" viewBox="0 0 298 188" fill="none" xmlns="http://www.w3.org/2000/svg">
<g clip-path="url(#clip0_120_326)">
<path d="M249.198 14.7183H0.745605C1.09652 12.7283 1.78185 10.8457 2.73968 9.14063C5.79896 3.69093 11.6326 0 18.3167 0H231.627C238.307 0 244.145 3.69093 247.2 9.14063C248.158 10.8457 248.847 12.7283 249.198 14.7183Z" fill="#F2F2F2"/>
<path d="M297.531 187.313C297.531 187.585 297.312 187.804 297.04 187.804H194.944C194.672 187.804 194.453 187.585 194.453 187.313C194.453 187.18 194.503 187.065 194.585 186.978H231.627C232.415 186.978 233.187 186.925 233.947 186.821H297.04C297.312 186.821 297.531 187.04 297.531 187.313Z" fill="#3F3D56"/>
<path d="M183.041 87.1703H66.8993C65.8199 87.1703 64.9419 86.0592 64.9419 84.6932C64.9419 83.3272 65.8199 82.2161 66.8993 82.2161H183.041C184.121 82.2161 184.999 83.3272 184.999 84.6932C184.999 86.0592 184.121 87.1703 183.041 87.1703Z" fill="#E6E6E6"/>
<path d="M249.198 14.7183C248.847 12.7283 248.157 10.8457 247.2 9.14063C244.145 3.69093 238.307 0 231.627 0H18.3165C11.6324 0 5.79873 3.69093 2.73946 9.14063C1.78163 10.8457 1.0963 12.7283 0.74538 14.7183C0.563723 15.7339 0.46875 16.7785 0.46875 17.8477V169.956C0.46875 179.799 8.47403 187.804 18.3165 187.804H231.627C233.666 187.804 235.631 187.457 237.46 186.821C244.446 184.402 249.474 177.755 249.474 169.956V17.8477C249.474 16.7826 249.38 15.7339 249.198 14.7183ZM248.649 169.956C248.649 178.568 242.25 185.69 233.947 186.821C233.187 186.925 232.415 186.978 231.627 186.978H43.67C20.2652 186.978 1.29446 168.003 1.29446 144.599V17.8477C1.29446 16.7785 1.39354 15.7339 1.58346 14.7183C1.95504 12.7118 2.67754 10.8333 3.68902 9.14063C6.65745 4.1616 12.0989 0.825712 18.3165 0.825712H231.627C237.844 0.825712 243.286 4.1616 246.254 9.14063C247.266 10.8333 247.988 12.7118 248.36 14.7183C248.55 15.7339 248.649 16.7785 248.649 17.8477V169.956Z" fill="#3F3D56"/>
<path d="M238.243 89.2096L236.846 84.087L243.133 81.7585L243.832 86.4154L238.243 89.2096Z" fill="#FFB6B6"/>
<path opacity="0.1" d="M238.243 89.2096L236.846 84.0871L240.549 82.5254L239.398 88.5644L238.243 89.2096Z" fill="#1B1B1B"/>
<path d="M219.839 133.112C218.638 132.397 218.575 130.289 219.698 128.402C220.189 127.576 220.827 126.929 221.488 126.523L222.148 125.446L230.488 110.494C230.488 110.494 234.139 96.3923 235.626 94.6873C237.112 92.9823 239.261 93.384 239.261 93.384L241.167 95.0771L234.364 115.05L225.968 126.874L224.843 128.519C224.802 129.294 224.538 130.163 224.046 130.989C222.924 132.876 221.04 133.826 219.839 133.112Z" fill="#FFB6B6"/>
<path d="M237.899 87.7464C237.899 87.7464 240.552 87.6439 242.226 89.7046C243.9 91.7653 235.131 114.992 235.131 114.992L227.989 114.739L237.899 87.7464Z" fill="#F48E1E"/>
<path d="M238.592 84.9021C242.193 84.9021 245.112 81.9831 245.112 78.3824C245.112 74.7817 242.193 71.8628 238.592 71.8628C234.992 71.8628 232.073 74.7817 232.073 78.3824C232.073 81.9831 234.992 84.9021 238.592 84.9021Z" fill="#FFB6B6"/>
<path d="M223.341 173.033L218.917 183.977L216.356 181.416L215.424 176.526L219.15 171.869L223.341 173.033Z" fill="#FFB6B6"/>
<path d="M264.787 169.075L269.211 174.198L267.116 178.389L262.459 177.69L260.13 171.171L264.787 169.075Z" fill="#FFB6B6"/>
<path d="M235.333 107.954L234.75 117.384L249.187 114.823L248.255 109.001L235.333 107.954Z" fill="#FFB6B6"/>
<path d="M234.634 117.5L249.187 112.727C249.187 112.727 254.542 123.438 248.721 130.19C242.9 136.943 223.574 175.362 223.574 175.362L217.753 172.568L226.135 148.119L235.449 125.533L234.634 117.5Z" fill="#2F2E41"/>
<path d="M248.721 126.232L254.309 150.68L265.952 169.541L259.898 173.033L243.599 150.68L238.243 133.45L248.721 126.232Z" fill="#2F2E41"/>
<path d="M213.329 175.595H209.296C209.296 175.595 204.591 173.732 203.488 175.595C202.385 177.457 208.408 182.74 208.408 182.74C208.408 182.74 216.821 187.47 217.986 187.237C219.15 187.004 219.616 184.21 219.616 184.21L221.013 180.95L218.917 181.649C218.917 181.649 216.123 180.019 216.821 177.225L213.329 175.595Z" fill="#2F2E41"/>
<path d="M268.28 174.896V172.568L270.987 174.896C270.987 174.896 275.498 176.526 272.005 180.019C268.513 183.512 264.089 187.237 264.089 187.237C264.089 187.237 257.103 189.1 256.638 187.004C256.172 184.909 256.638 184.061 256.638 184.061L259.199 182.813L261.527 176.759L265.253 177.225L268.28 174.896Z" fill="#2F2E41"/>
<path d="M240.571 79.663L238.476 79.4302L234.634 75.5882C234.634 75.5882 231.141 77.451 231.141 76.0539C231.141 69.5343 235.099 69.7671 238.359 69.3014C241.619 68.8358 241.27 68.7193 242.318 70.4657C242.797 71.2643 244.53 71.7463 244.53 71.7463C244.53 71.7463 247.789 67.3223 249.419 72.6777C251.049 78.0331 248.954 94.565 250.584 95.9621C252.214 97.3592 243.891 98.7542 244.793 93.2833C245.694 87.8125 247.324 79.4302 246.392 77.5674C245.461 75.7047 245.228 76.1703 245.228 76.1703C246.382 75.6991 247.137 83.9999 242.785 84.4063L242.667 80.3615C242.667 80.3615 241.968 78.2659 240.571 79.663Z" fill="#2F2E41"/>
<path d="M237.661 87.6962L244.646 84.9021L253.96 112.843L234.797 112.145L233.071 103.806C233.071 103.806 231.387 99.4653 232.784 96.9041C234.181 94.3428 237.661 87.6962 237.661 87.6962Z" fill="#F48E1E"/>
<path d="M255.838 134.501C254.446 134.621 253.165 132.944 252.977 130.757C252.895 129.799 253.036 128.902 253.337 128.187L253.244 126.927L251.304 109.916C251.304 109.916 247.692 96.0019 247.906 93.75C248.12 91.4982 248.457 90.9004 248.457 90.9004L250.993 91.1648L257.109 111.359L257.181 125.86L257.226 127.853C257.644 128.506 257.936 129.366 258.018 130.324C258.206 132.511 257.23 134.382 255.838 134.501Z" fill="#FFB6B6"/>
<path d="M244.064 87.1139C244.064 87.1139 246.16 85.484 248.721 86.1826C251.282 86.8811 257.698 110.864 257.698 110.864L251.748 114.822L244.064 87.1139Z" fill="#F48E1E"/>
<path d="M122.759 127.424H94.8269C93.1223 127.424 91.7354 126.037 91.7354 124.332V121.539C91.7354 119.834 93.1223 118.448 94.8269 118.448H122.759C124.464 118.448 125.851 119.834 125.851 121.539V124.332C125.851 126.037 124.464 127.424 122.759 127.424Z" fill="#F48E1E"/>
<path d="M230.101 36.1295H202.169C200.465 36.1295 199.078 34.7425 199.078 33.0379V30.2443C199.078 28.5396 200.465 27.1531 202.169 27.1531H230.101C231.806 27.1531 233.193 28.5396 233.193 30.2443V33.0379C233.193 34.7425 231.806 36.1295 230.101 36.1295Z" fill="#F48E1E"/>
<path d="M164.196 127.63H136.264C134.446 127.63 132.966 126.151 132.966 124.332V121.539C132.966 119.72 134.446 118.241 136.264 118.241H164.196C166.015 118.241 167.494 119.72 167.494 121.539V124.332C167.494 126.151 166.015 127.63 164.196 127.63ZM136.264 119.067C134.901 119.067 133.792 120.175 133.792 121.539V124.332C133.792 125.695 134.901 126.804 136.264 126.804H164.196C165.56 126.804 166.669 125.695 166.669 124.332V121.539C166.669 120.175 165.56 119.067 164.196 119.067H136.264Z" fill="#F48E1E"/>
<path d="M198.459 74.3718H51.482C50.116 74.3718 49.0049 73.2606 49.0049 71.8946C49.0049 70.5286 50.116 69.4175 51.482 69.4175H198.459C199.825 69.4175 200.936 70.5286 200.936 71.8946C200.936 73.2606 199.825 74.3718 198.459 74.3718Z" fill="#E6E6E6"/>
<path d="M42.1216 34.1183H23.5431C22.1771 34.1183 21.0659 33.0072 21.0659 31.6412C21.0659 30.2752 22.1771 29.1641 23.5431 29.1641H42.1216C43.4875 29.1641 44.5987 30.2752 44.5987 31.6412C44.5987 33.0072 43.4875 34.1183 42.1216 34.1183Z" fill="#E6E6E6"/>
<path d="M153.18 34.1183H134.602C133.236 34.1183 132.125 33.0072 132.125 31.6412C132.125 30.2752 133.236 29.1641 134.602 29.1641H153.18C154.546 29.1641 155.657 30.2752 155.657 31.6412C155.657 33.0072 154.546 34.1183 153.18 34.1183Z" fill="#E6E6E6"/>
<path d="M188.273 34.1183H169.694C168.328 34.1183 167.217 33.0072 167.217 31.6412C167.217 30.2752 168.328 29.1641 169.694 29.1641H188.273C189.639 29.1641 190.75 30.2752 190.75 31.6412C190.75 33.0072 189.639 34.1183 188.273 34.1183Z" fill="#E6E6E6"/>
<path d="M165.843 99.9689H84.0973C82.7313 99.9689 81.6201 98.8578 81.6201 97.4918C81.6201 96.1258 82.7313 95.0146 84.0973 95.0146H165.843C167.209 95.0146 168.32 96.1258 168.32 97.4918C168.32 98.8578 167.209 99.9689 165.843 99.9689Z" fill="#E6E6E6"/>
<path d="M169.405 154.159H80.5354C79.7095 154.159 79.0376 153.487 79.0376 152.661C79.0376 151.835 79.7095 151.163 80.5354 151.163H169.405C170.231 151.163 170.903 151.835 170.903 152.661C170.903 153.487 170.231 154.159 169.405 154.159Z" fill="#E6E6E6"/>
<path d="M170.232 8.8335H81.3626C80.5366 8.8335 79.8647 8.16163 79.8647 7.33569C79.8647 6.50976 80.5366 5.83789 81.3626 5.83789H170.232C171.058 5.83789 171.73 6.50976 171.73 7.33569C171.73 8.16163 171.058 8.8335 170.232 8.8335Z" fill="white"/>
</g>
<defs>
<clipPath id="clip0_120_326">
<rect width="297.062" height="188" fill="white" transform="translate(0.46875)"/>
</clipPath>
</defs>
</svg>
