<svg width="208" height="188" viewBox="0 0 208 188" fill="none" xmlns="http://www.w3.org/2000/svg">
<g clip-path="url(#clip0_336_464)">
<path d="M90.9215 155.485H4.2178C3.12622 155.484 2.07971 155.05 1.30785 154.278C0.535987 153.506 0.101814 152.46 0.100586 151.368V33.6643C0.101814 32.5728 0.535987 31.5262 1.30785 30.7544C2.07971 29.9825 3.12622 29.5483 4.2178 29.5471H90.9215C92.0131 29.5483 93.0596 29.9825 93.8315 30.7544C94.6033 31.5262 95.0375 32.5728 95.0387 33.6643V151.368C95.0375 152.46 94.6033 153.506 93.8315 154.278C93.0596 155.05 92.0131 155.484 90.9215 155.485Z" fill="white"/>
<path d="M43.6611 60.1799C43.6611 63.5793 42.5857 66.8916 40.5888 69.6427C38.5919 72.3938 35.7758 74.4426 32.5437 75.4959C32.4471 75.5267 32.3505 75.5574 32.2524 75.5867C31.8337 75.7155 31.4091 75.8253 30.9773 75.919C30.1957 76.0886 29.4024 76.1987 28.6042 76.2484C28.2573 76.2718 27.9084 76.2835 27.5574 76.2835C25.7445 76.2853 23.9443 75.9804 22.233 75.3817C22.1832 75.3642 22.1335 75.3466 22.0852 75.3291C19.3125 74.3277 16.8679 72.5845 15.0177 70.2895C13.1675 67.9945 11.9828 65.2357 11.5925 62.3137C11.2022 59.3918 11.6214 56.4187 12.8043 53.7186C13.9873 51.0184 15.8887 48.6948 18.3013 47.0008C20.7139 45.3068 23.5452 44.3076 26.4866 44.1118C29.428 43.9161 32.3667 44.5315 34.9825 45.8909C37.5983 47.2502 39.7908 49.3015 41.3211 51.8211C42.8514 54.3407 43.6608 57.232 43.6611 60.1799Z" fill="white"/>
<path d="M27.1715 70.8491C31.4986 70.8491 35.0065 67.3413 35.0065 63.0141C35.0065 58.6869 31.4986 55.1791 27.1715 55.1791C22.8443 55.1791 19.3364 58.6869 19.3364 63.0141C19.3364 67.3413 22.8443 70.8491 27.1715 70.8491Z" fill="#F48E1E"/>
<path d="M27.6291 67.2357L27.6372 66.9429C27.0925 66.9277 26.6123 66.8936 26.2514 66.6299C26.1491 66.551 26.065 66.4509 26.0049 66.3365C25.9447 66.2221 25.9099 66.0961 25.9028 65.967C25.8965 65.8882 25.9084 65.8089 25.9377 65.7354C25.9669 65.6619 26.0128 65.5962 26.0716 65.5433C26.2079 65.4606 26.364 65.4163 26.5234 65.4148C26.6829 65.4134 26.8397 65.455 26.9775 65.5353L27.2197 65.6463L26.7552 62.2513L26.4651 62.2911L26.8603 65.179C26.6985 65.119 26.5243 65.1004 26.3535 65.125C26.1828 65.1495 26.0209 65.2165 25.8826 65.3197C25.7896 65.4009 25.7166 65.5025 25.6693 65.6166C25.6221 65.7307 25.6019 65.8541 25.6102 65.9773C25.6188 66.1507 25.6652 66.3201 25.7461 66.4737C25.827 66.6273 25.9405 66.7613 26.0787 66.8664C26.5424 67.2052 27.1449 67.2221 27.6291 67.2357Z" fill="#2F2E41"/>
<path d="M25.0305 62.54H23.4536V62.8328H25.0305V62.54Z" fill="#2F2E41"/>
<path d="M30.0081 62.54H28.4312V62.8328H30.0081V62.54Z" fill="#2F2E41"/>
<path d="M29.3974 73.9675C29.4182 73.8713 29.429 73.7732 29.4297 73.6747C29.4291 73.306 29.2824 72.9526 29.0217 72.6919C28.761 72.4312 28.4076 72.2845 28.0389 72.2839H25.9894C25.6206 72.2843 25.2671 72.4309 25.0063 72.6916C24.7456 72.9524 24.5989 73.306 24.5986 73.6747C24.5985 73.7737 24.6093 73.8724 24.6308 73.969C23.8571 74.2127 23.1257 74.5747 22.4627 75.0421C22.3338 75.1314 22.2065 75.228 22.085 75.329C22.1333 75.3465 22.183 75.3641 22.2328 75.3817C23.9441 75.9804 25.7443 76.2853 27.5573 76.2835C27.9086 76.2835 28.2575 76.2718 28.604 76.2483C29.4022 76.1987 30.1955 76.0885 30.9771 75.919C31.409 75.8253 31.8335 75.7155 32.2522 75.5866C31.4238 74.8539 30.4515 74.3024 29.3974 73.9675Z" fill="#2F2E41"/>
<path d="M29.134 76.0624C28.944 76.0764 28.7611 76.1406 28.604 76.2483C29.4022 76.1986 30.1955 76.0885 30.9771 75.9189L29.134 76.0624Z" fill="#2F2E41"/>
<path d="M34.2777 61.1529L20.6666 56.1736C20.5208 56.1202 20.4021 56.0111 20.3367 55.8703C20.2713 55.7294 20.2645 55.5683 20.3179 55.4225L20.3639 55.2048C21.4269 52.2991 24.9502 50.4704 27.8559 51.5333L32.0444 53.0656C34.9501 54.1286 36.213 57.5693 35.15 60.4751L35.0288 60.8042C34.9754 60.95 34.8663 61.0687 34.7255 61.1341C34.5846 61.1995 34.4235 61.2063 34.2777 61.1529Z" fill="#2F2E41"/>
<path d="M35.0107 61.4293C16.0396 62.1293 14.3819 59.7456 20.1623 55.9973L21.3886 53.7408L35.4426 58.8647L35.0107 61.4293Z" fill="#2F2E41"/>
<path d="M31.2908 52.7082C31.3956 52.3598 30.9469 51.9169 30.2888 51.7191C29.6306 51.5213 29.0122 51.6433 28.9074 51.9918C28.8027 52.3402 29.2513 52.7831 29.9095 52.9809C30.5676 53.1787 31.1861 53.0566 31.2908 52.7082Z" fill="#2F2E41"/>
<path d="M27.5575 76.7227C25.6951 76.7247 23.8457 76.4115 22.0878 75.7962L21.935 75.7417C18.2529 74.411 15.162 71.8175 13.2121 68.4223C11.2623 65.0272 10.5798 61.0505 11.2861 57.1995C11.9924 53.3484 14.0416 49.8728 17.0694 47.3905C20.0972 44.9083 23.9073 43.5804 27.822 43.643C31.7368 43.7056 35.5024 45.1547 38.4493 47.7325C41.3962 50.3103 43.3333 53.8497 43.916 57.7213C44.4988 61.593 43.6895 65.5458 41.6321 68.8769C39.5746 72.208 36.4024 74.7013 32.6796 75.9136C32.5755 75.9467 32.4776 75.9778 32.3781 76.0075C31.9623 76.1355 31.5211 76.2504 31.0704 76.3481C30.267 76.5223 29.4516 76.6355 28.6312 76.6867C28.2787 76.7106 27.9166 76.7227 27.5575 76.7227ZM27.5575 44.5155C23.8714 44.516 20.3035 45.8162 17.4814 48.1875C14.6593 50.5587 12.7636 53.8491 12.1279 57.48C11.4921 61.1108 12.1569 64.8496 14.0054 68.0387C15.854 71.2278 18.7678 73.6629 22.2344 74.9159L22.3794 74.9676C24.0436 75.5499 25.7944 75.8464 27.5575 75.8443C27.8969 75.8443 28.2391 75.8328 28.5746 75.8102C29.3515 75.7617 30.1237 75.6546 30.8845 75.4897C31.3108 75.3973 31.7276 75.2886 32.1233 75.167C32.2212 75.1377 32.3142 75.1081 32.4073 75.0785C35.9531 73.9236 38.9706 71.5417 40.9175 68.3612C42.8643 65.1806 43.6128 61.4099 43.0284 57.7268C42.444 54.0438 40.5649 50.69 37.7291 48.2683C34.8933 45.8467 31.2866 44.516 27.5575 44.5155Z" fill="#CCCCCC"/>
<path d="M90.9215 155.485H4.2178C3.12622 155.484 2.07971 155.05 1.30785 154.278C0.535987 153.506 0.101814 152.46 0.100586 151.368V33.6643C0.101814 32.5728 0.535987 31.5262 1.30785 30.7544C2.07971 29.9825 3.12622 29.5483 4.2178 29.5471H90.9215C92.0131 29.5483 93.0596 29.9825 93.8315 30.7544C94.6033 31.5262 95.0375 32.5728 95.0387 33.6643V151.368C95.0375 152.46 94.6033 153.506 93.8315 154.278C93.0596 155.05 92.0131 155.484 90.9215 155.485ZM4.2178 30.0315C3.25465 30.0326 2.33126 30.4157 1.65021 31.0967C0.969155 31.7778 0.586057 32.7012 0.584964 33.6643V151.368C0.586056 152.331 0.969146 153.255 1.6502 153.936C2.33125 154.617 3.25464 155 4.2178 155.001H90.9215C91.8847 155 92.8081 154.617 93.4891 153.936C94.1702 153.255 94.5533 152.331 94.5544 151.368V33.6643C94.5533 32.7012 94.1702 31.7778 93.4891 31.0967C92.8081 30.4157 91.8847 30.0326 90.9215 30.0315H4.2178Z" fill="#CCCCCC"/>
<path d="M74.1368 60.1172H49.6026C49.0882 60.1166 48.5952 59.9118 48.2317 59.5479C47.8682 59.184 47.6641 58.6906 47.6641 58.1763C47.6641 57.6619 47.8682 57.1686 48.2317 56.8047C48.5952 56.4408 49.0882 56.236 49.6026 56.2354H74.1368C74.3919 56.235 74.6445 56.285 74.8803 56.3824C75.116 56.4798 75.3303 56.6227 75.5108 56.803C75.6912 56.9832 75.8344 57.1973 75.9321 57.433C76.0298 57.6686 76.0801 57.9212 76.0801 58.1763C76.0801 58.4314 76.0298 58.684 75.9321 58.9196C75.8344 59.1552 75.6912 59.3693 75.5108 59.5496C75.3303 59.7298 75.116 59.8728 74.8803 59.9702C74.6445 60.0676 74.3919 60.1175 74.1368 60.1172Z" fill="#E6E6E6"/>
<path d="M82.1431 66.6679H49.6026C49.0882 66.6672 48.5952 66.4625 48.2317 66.0985C47.8682 65.7346 47.6641 65.2413 47.6641 64.7269C47.6641 64.2126 47.8682 63.7193 48.2317 63.3553C48.5952 62.9914 49.0882 62.7866 49.6026 62.786H82.1431C82.6575 62.7866 83.1505 62.9914 83.514 63.3553C83.8775 63.7193 84.0816 64.2126 84.0816 64.7269C84.0816 65.2413 83.8775 65.7346 83.514 66.0985C83.1505 66.4625 82.6575 66.6672 82.1431 66.6679Z" fill="#E6E6E6"/>
<path d="M74.1008 91.7923H12.9961C12.741 91.7926 12.4883 91.7426 12.2526 91.6452C12.0168 91.5478 11.8026 91.4049 11.6221 91.2246C11.4416 91.0444 11.2984 90.8303 11.2007 90.5947C11.103 90.359 11.0527 90.1064 11.0527 89.8513C11.0527 89.5962 11.103 89.3437 11.2007 89.108C11.2984 88.8724 11.4416 88.6583 11.6221 88.478C11.8026 88.2978 12.0168 88.1549 12.2526 88.0575C12.4883 87.9601 12.741 87.9101 12.9961 87.9104H74.1008C74.6151 87.911 75.1082 88.1158 75.4717 88.4797C75.8352 88.8437 76.0393 89.337 76.0393 89.8513C76.0393 90.3657 75.8352 90.859 75.4717 91.2229C75.1082 91.5869 74.6151 91.7916 74.1008 91.7923Z" fill="#E6E6E6"/>
<path d="M82.1071 98.3428H12.9961C12.741 98.3431 12.4883 98.2932 12.2526 98.1958C12.0168 98.0984 11.8026 97.9554 11.6221 97.7752C11.4416 97.5949 11.2984 97.3808 11.2007 97.1452C11.103 96.9095 11.0527 96.657 11.0527 96.4019C11.0527 96.1468 11.103 95.8942 11.2007 95.6586C11.2984 95.4229 11.4416 95.2088 11.6221 95.0286C11.8026 94.8483 12.0168 94.7054 12.2526 94.608C12.4883 94.5106 12.741 94.4606 12.9961 94.4609H82.1071C82.3622 94.4606 82.6149 94.5106 82.8506 94.608C83.0864 94.7054 83.3007 94.8483 83.4812 95.0286C83.6616 95.2088 83.8048 95.4229 83.9025 95.6586C84.0002 95.8942 84.0505 96.1468 84.0505 96.4019C84.0505 96.657 84.0002 96.9095 83.9025 97.1452C83.8048 97.3808 83.6616 97.5949 83.4812 97.7752C83.3007 97.9554 83.0864 98.0984 82.8506 98.1958C82.6149 98.2932 82.3622 98.3431 82.1071 98.3428Z" fill="#E6E6E6"/>
<path d="M74.1008 113.399H12.9961C12.4813 113.399 11.9877 113.194 11.6237 112.83C11.2597 112.466 11.0552 111.973 11.0552 111.458C11.0552 110.943 11.2597 110.449 11.6237 110.085C11.9877 109.721 12.4813 109.517 12.9961 109.517H74.1008C74.6156 109.517 75.1093 109.721 75.4733 110.085C75.8373 110.449 76.0418 110.943 76.0418 111.458C76.0418 111.973 75.8373 112.466 75.4733 112.83C75.1093 113.194 74.6156 113.399 74.1008 113.399Z" fill="#E6E6E6"/>
<path d="M82.1072 119.95H12.9961C12.4813 119.95 11.9877 119.745 11.6237 119.381C11.2597 119.017 11.0552 118.523 11.0552 118.009C11.0552 117.494 11.2597 117 11.6237 116.636C11.9877 116.272 12.4813 116.068 12.9961 116.068H82.1072C82.6219 116.068 83.1156 116.272 83.4796 116.636C83.8436 117 84.0481 117.494 84.0481 118.009C84.0481 118.523 83.8436 119.017 83.4796 119.381C83.1156 119.745 82.6219 119.95 82.1072 119.95Z" fill="#E6E6E6"/>
<path d="M74.1008 135.005H12.9961C12.4813 135.005 11.9877 134.801 11.6237 134.437C11.2597 134.073 11.0552 133.579 11.0552 133.064C11.0552 132.55 11.2597 132.056 11.6237 131.692C11.9877 131.328 12.4813 131.124 12.9961 131.124H74.1008C74.6156 131.124 75.1093 131.328 75.4733 131.692C75.8373 132.056 76.0418 132.55 76.0418 133.064C76.0418 133.579 75.8373 134.073 75.4733 134.437C75.1093 134.801 74.6156 135.005 74.1008 135.005Z" fill="#E6E6E6"/>
<path d="M82.1072 141.556H12.9961C12.4813 141.556 11.9877 141.351 11.6237 140.987C11.2597 140.623 11.0552 140.13 11.0552 139.615C11.0552 139.1 11.2597 138.607 11.6237 138.243C11.9877 137.879 12.4813 137.674 12.9961 137.674H82.1072C82.6219 137.674 83.1156 137.879 83.4796 138.243C83.8436 138.607 84.0481 139.1 84.0481 139.615C84.0481 140.13 83.8436 140.623 83.4796 140.987C83.1156 141.351 82.6219 141.556 82.1072 141.556Z" fill="#E6E6E6"/>
<path d="M203.781 125.938L117.078 125.938C115.986 125.937 114.94 125.503 114.168 124.731C113.396 123.959 112.962 122.913 112.961 121.821L112.96 4.11729C112.962 3.02571 113.396 1.9792 114.168 1.20733C114.94 0.435472 115.986 0.00129743 117.078 6.8143e-05L203.781 0C204.873 0.0012277 205.919 0.435396 206.691 1.20726C207.463 1.97912 207.897 3.02564 207.899 4.11721L207.899 121.821C207.897 122.913 207.463 123.959 206.691 124.731C205.92 125.503 204.873 125.937 203.781 125.938Z" fill="white"/>
<path d="M203.781 125.938L117.078 125.938C115.986 125.937 114.94 125.503 114.168 124.731C113.396 123.959 112.962 122.913 112.961 121.821L112.96 4.11729C112.962 3.02571 113.396 1.9792 114.168 1.20733C114.94 0.435472 115.986 0.00129743 117.078 6.8143e-05L203.781 0C204.873 0.0012277 205.919 0.435396 206.691 1.20726C207.463 1.97912 207.897 3.02564 207.899 4.11721L207.899 121.821C207.897 122.913 207.463 123.959 206.691 124.731C205.92 125.503 204.873 125.937 203.781 125.938ZM117.078 0.484447C116.115 0.485539 115.191 0.868636 114.51 1.54969C113.829 2.23074 113.446 3.15414 113.445 4.11729L113.445 121.821C113.446 122.784 113.829 123.708 114.51 124.389C115.191 125.07 116.115 125.453 117.078 125.454L203.781 125.454C204.745 125.453 205.668 125.07 206.349 124.389C207.03 123.708 207.413 122.784 207.414 121.821L207.414 4.11722C207.413 3.15406 207.03 2.23067 206.349 1.54962C205.668 0.868564 204.745 0.485469 203.781 0.484378L117.078 0.484447Z" fill="#CCCCCC"/>
<path d="M156.562 30.4724C156.562 33.6574 155.617 36.7709 153.848 39.4191C152.078 42.0673 149.563 44.1314 146.621 45.3502C143.678 46.5691 140.44 46.888 137.316 46.2666C134.193 45.6452 131.323 44.1115 129.071 41.8594C126.819 39.6073 125.285 36.7379 124.664 33.6141C124.043 30.4903 124.361 27.2524 125.58 24.3098C126.799 21.3673 128.863 18.8522 131.511 17.0827C134.16 15.3132 137.273 14.3688 140.458 14.3688C144.729 14.3701 148.824 16.0672 151.844 19.0869C154.863 22.1066 156.56 26.2019 156.562 30.4724Z" fill="white"/>
<path d="M147.901 33.2278C147.725 43.5269 132.405 43.5253 132.231 33.2275C132.407 22.9287 147.727 22.9303 147.901 33.2278Z" fill="#F48E1E"/>
<path d="M139.755 36.4245L139.747 36.1317C141.765 36.4012 142.2 33.9002 140.165 34.8352L140.629 31.4402L140.919 31.4799L140.524 34.3678C142.667 34.0489 141.874 36.7172 139.755 36.4245Z" fill="#2F2E41"/>
<path d="M143.93 31.729H142.354V32.0218H143.93V31.729Z" fill="#2F2E41"/>
<path d="M138.953 31.729H137.376V32.0218H138.953V31.729Z" fill="#2F2E41"/>
<path d="M142.606 44.1824C142.913 42.1079 140.485 42.5178 139.199 42.4973C138.992 42.498 138.787 42.5448 138.601 42.6345C138.414 42.7242 138.249 42.8544 138.119 43.0157C137.989 43.177 137.896 43.3653 137.848 43.5668C137.8 43.7684 137.798 43.9782 137.841 44.1809C136.846 44.4884 135.925 44.9966 135.134 45.6741C138.466 46.8361 142.087 46.8762 145.445 45.7883C144.626 45.0533 143.657 44.5053 142.606 44.1824Z" fill="#2F2E41"/>
<path d="M136.383 29.5221C137.835 28.6829 139.595 29.3267 141.095 29.6787C143.941 30.5535 147.932 29.4581 148.278 26.0682C148.638 22.9156 144.325 21.1585 142.947 24.2963L143.348 24.2438C138.877 17.6 131.101 17.852 131.152 26.9861C131.136 27.2682 131.575 27.2673 131.591 26.9859C131.427 21.6033 134.989 17.924 140.025 21.383C141.149 22.2635 142.141 23.3017 142.969 24.4655C143.493 25.0532 143.607 22.5222 146.117 23.1851C148.879 24.2553 147.978 28.2107 145.509 29.079C142.458 30.6376 139.154 27.6157 136.161 29.1427C136.113 29.1731 136.078 29.2211 136.065 29.2765C136.051 29.3318 136.06 29.3903 136.088 29.4395C136.117 29.4887 136.164 29.5248 136.219 29.5402C136.274 29.5557 136.332 29.5492 136.383 29.5221Z" fill="#2F2E41"/>
<path d="M140.458 47.0152C136.3 47.0117 132.295 45.4407 129.244 42.6156C126.192 39.7905 124.317 35.9189 123.994 31.7729C123.67 27.6269 124.921 23.5112 127.497 20.2467C130.073 16.9822 133.786 14.8088 137.893 14.1599C142.001 13.511 146.202 14.4344 149.659 16.7458C153.116 19.0572 155.575 22.5869 156.545 26.6308C157.515 30.6747 156.925 34.9357 154.893 38.5639C152.861 42.1921 149.535 44.9209 145.58 46.2061C143.926 46.744 142.198 47.0171 140.458 47.0152ZM140.458 14.808C137.36 14.8075 134.33 15.726 131.754 17.4473C129.177 19.1687 127.168 21.6154 125.982 24.4782C124.796 27.341 124.486 30.4913 125.09 33.5305C125.695 36.5697 127.187 39.3615 129.378 41.5526C131.569 43.7438 134.361 45.2359 137.4 45.8404C140.439 46.4448 143.59 46.1343 146.453 44.9483C149.315 43.7622 151.762 41.7539 153.483 39.1772C155.205 36.6004 156.123 33.5711 156.123 30.4724C156.118 26.3194 154.466 22.3378 151.53 19.4011C148.593 16.4645 144.611 14.8126 140.458 14.808Z" fill="#CCCCCC"/>
<path d="M186.997 30.5701L162.463 30.5701C161.948 30.5701 161.454 30.3656 161.09 30.0016C160.726 29.6376 160.522 29.1439 160.522 28.6292C160.522 28.1144 160.726 27.6207 161.09 27.2567C161.454 26.8927 161.948 26.6883 162.463 26.6883L186.997 26.6882C187.512 26.6882 188.006 26.8927 188.37 27.2567C188.734 27.6207 188.938 28.1144 188.938 28.6292C188.938 29.1439 188.734 29.6376 188.37 30.0016C188.006 30.3656 187.512 30.5701 186.997 30.5701Z" fill="#E6E6E6"/>
<path d="M195.003 37.1208L162.463 37.1208C162.208 37.1211 161.955 37.0711 161.719 36.9737C161.484 36.8763 161.269 36.7334 161.089 36.5531C160.908 36.3729 160.765 36.1588 160.668 35.9232C160.57 35.6875 160.52 35.4349 160.52 35.1799C160.52 34.9248 160.57 34.6722 160.668 34.4365C160.765 34.2009 160.908 33.9868 161.089 33.8066C161.269 33.6263 161.484 33.4834 161.719 33.386C161.955 33.2886 162.208 33.2386 162.463 33.2389L195.003 33.2389C195.518 33.2389 196.012 33.4434 196.376 33.8074C196.74 34.1714 196.944 34.6651 196.944 35.1798C196.944 35.6946 196.74 36.1883 196.376 36.5523C196.012 36.9163 195.518 37.1208 195.003 37.1208Z" fill="#E6E6E6"/>
<path d="M186.961 62.2452L125.856 62.2452C125.342 62.2446 124.849 62.0398 124.486 61.6759C124.122 61.3119 123.918 60.8186 123.918 60.3043C123.918 59.7899 124.122 59.2966 124.486 58.9327C124.849 58.5687 125.342 58.364 125.856 58.3633L186.961 58.3633C187.476 58.3633 187.97 58.5678 188.334 58.9318C188.698 59.2958 188.902 59.7894 188.902 60.3042C188.902 60.819 188.698 61.3127 188.334 61.6767C187.97 62.0407 187.476 62.2452 186.961 62.2452Z" fill="#E6E6E6"/>
<path d="M194.967 68.7958L125.856 68.7959C125.601 68.7962 125.349 68.7462 125.113 68.6488C124.877 68.5514 124.663 68.4085 124.482 68.2282C124.302 68.048 124.159 67.8339 124.061 67.5982C123.963 67.3626 123.913 67.11 123.913 66.8549C123.913 66.5998 123.963 66.3473 124.061 66.1116C124.159 65.876 124.302 65.6619 124.482 65.4816C124.663 65.3014 124.877 65.1584 125.113 65.061C125.349 64.9636 125.601 64.9137 125.856 64.914L194.967 64.9139C195.482 64.9139 195.976 65.1184 196.34 65.4824C196.704 65.8464 196.908 66.3401 196.908 66.8549C196.908 67.3696 196.704 67.8633 196.34 68.2273C195.976 68.5913 195.482 68.7958 194.967 68.7958Z" fill="#E6E6E6"/>
<path d="M186.961 83.8516L125.856 83.8516C125.342 83.851 124.849 83.6462 124.486 83.2823C124.122 82.9184 123.918 82.4251 123.918 81.9107C123.918 81.3964 124.122 80.903 124.486 80.5391C124.849 80.1752 125.342 79.9704 125.856 79.9698L186.961 79.9697C187.476 79.9697 187.97 80.1742 188.334 80.5382C188.698 80.9022 188.902 81.3959 188.902 81.9107C188.902 82.4254 188.698 82.9191 188.334 83.2831C187.97 83.6471 187.476 83.8516 186.961 83.8516Z" fill="#E6E6E6"/>
<path d="M194.967 90.4024L125.856 90.4024C125.601 90.4027 125.349 90.3528 125.113 90.2554C124.877 90.158 124.663 90.0151 124.482 89.8348C124.302 89.6545 124.159 89.4405 124.061 89.2048C123.963 88.9692 123.913 88.7166 123.913 88.4615C123.913 88.2064 123.963 87.9538 124.061 87.7182C124.159 87.4825 124.302 87.2685 124.482 87.0882C124.663 86.9079 124.877 86.765 125.113 86.6676C125.349 86.5702 125.601 86.5202 125.856 86.5206L194.967 86.5205C195.482 86.5205 195.976 86.725 196.34 87.089C196.704 87.453 196.908 87.9467 196.908 88.4614C196.908 88.9762 196.704 89.4699 196.34 89.8339C195.976 90.1979 195.482 90.4024 194.967 90.4024Z" fill="#E6E6E6"/>
<path d="M186.961 105.458L125.856 105.458C125.342 105.458 124.848 105.254 124.484 104.89C124.12 104.526 123.916 104.032 123.916 103.517C123.916 103.003 124.12 102.509 124.484 102.145C124.848 101.781 125.342 101.576 125.856 101.576L186.961 101.576C187.476 101.576 187.97 101.781 188.334 102.145C188.698 102.509 188.902 103.003 188.902 103.517C188.902 104.032 188.698 104.526 188.334 104.89C187.97 105.254 187.476 105.458 186.961 105.458Z" fill="#E6E6E6"/>
<path d="M194.968 112.009L125.856 112.009C125.342 112.009 124.848 111.804 124.484 111.44C124.12 111.076 123.916 110.583 123.916 110.068C123.916 109.553 124.12 109.059 124.484 108.696C124.848 108.332 125.342 108.127 125.856 108.127L194.968 108.127C195.482 108.127 195.976 108.331 196.34 108.695C196.704 109.059 196.908 109.553 196.908 110.068C196.908 110.583 196.704 111.076 196.34 111.44C195.976 111.804 195.482 112.009 194.968 112.009Z" fill="#E6E6E6"/>
<path d="M151.469 176.556H64.7652C63.6736 176.555 62.6271 176.121 61.8552 175.349C61.0833 174.577 60.6492 173.53 60.6479 172.439V54.7348C60.6492 53.6432 61.0833 52.5967 61.8552 51.8248C62.6271 51.0529 63.6736 50.6188 64.7652 50.6176H151.469C152.56 50.6188 153.607 51.0529 154.379 51.8248C155.151 52.5967 155.585 53.6432 155.586 54.7348V172.439C155.585 173.53 155.151 174.577 154.379 175.349C153.607 176.121 152.56 176.555 151.469 176.556Z" fill="white"/>
<path d="M71.9966 80.9193C71.9938 83.0389 72.4107 85.138 73.2233 87.0956C74.0359 89.0532 75.2281 90.8305 76.731 92.3251C76.857 92.4495 76.9858 92.5739 77.1161 92.6954C77.9009 93.4287 78.7572 94.0815 79.6722 94.644C79.8478 94.7523 80.0235 94.8563 80.2036 94.9573C81.1289 95.4788 82.1038 95.9069 83.1139 96.2353C83.2882 96.2924 83.4653 96.3466 83.6424 96.3963C86.8533 97.3172 90.2706 97.2211 93.4247 96.1211C93.4862 96.0992 93.5476 96.0772 93.6077 96.0553C96.3764 95.048 98.8158 93.3004 100.66 91.0029C102.505 88.7054 103.684 85.9459 104.069 83.0249C104.454 80.1038 104.03 77.1332 102.844 74.4362C101.657 71.7393 99.7539 69.4195 97.3406 67.7293C94.9273 66.0391 92.0966 65.0433 89.1567 64.8503C86.2167 64.6573 83.2801 65.2744 80.6666 66.6346C78.053 67.9948 75.8627 70.0459 74.334 72.5646C72.8053 75.0832 71.9969 77.973 71.9966 80.9193Z" fill="white"/>
<path d="M84.6992 88.8125C84.707 90.0601 84.2471 91.2653 83.4103 92.1907C82.5823 93.0994 81.3496 93.702 80.1057 93.4527C78.9602 93.2231 78.0294 92.222 78.1455 91.0109C78.1648 90.7486 78.2411 90.4936 78.369 90.2638C78.4969 90.0339 78.6734 89.8347 78.8861 89.6801C79.0989 89.5255 79.3429 89.4191 79.601 89.3684C79.8591 89.3177 80.1251 89.3239 80.3805 89.3866C81.4687 89.669 81.9022 91.2372 80.9955 91.9733C80.7779 92.1499 80.4653 91.841 80.6849 91.6627C80.8204 91.5389 80.9225 91.3831 80.9821 91.2095C81.0417 91.036 81.0568 90.8502 81.0261 90.6693C80.9953 90.4884 80.9196 90.3181 80.806 90.1741C80.6924 90.03 80.5444 89.9167 80.3757 89.8446C80.1766 89.7809 79.9655 89.7633 79.7586 89.7931C79.5517 89.823 79.3543 89.8995 79.1813 90.017C79.0083 90.1344 78.8643 90.2896 78.7602 90.4709C78.6561 90.6522 78.5946 90.8549 78.5803 91.0634C78.5085 92.0845 79.2907 92.8534 80.2499 93.0344C81.2875 93.2302 82.3163 92.6991 83.0194 91.9661C83.8252 91.1149 84.2699 89.9845 84.26 88.8124C84.2619 88.7555 84.2859 88.7015 84.3268 88.6619C84.3678 88.6222 84.4226 88.6001 84.4796 88.6001C84.5366 88.6001 84.5913 88.6222 84.6323 88.6619C84.6733 88.7015 84.6973 88.7555 84.6992 88.8125Z" fill="#2F2E41"/>
<path d="M88.9879 91.6044C93.315 91.6044 96.8229 88.0965 96.8229 83.7694C96.8229 79.4422 93.315 75.9343 88.9879 75.9343C84.6607 75.9343 81.1528 79.4422 81.1528 83.7694C81.1528 88.0965 84.6607 91.6044 88.9879 91.6044Z" fill="#F48E1E"/>
<path d="M88.5868 87.1125L88.5786 86.8197C89.1233 86.8046 89.6035 86.7704 89.9644 86.5068C90.0667 86.4278 90.1508 86.3277 90.2109 86.2133C90.2711 86.0989 90.3059 85.9729 90.313 85.8438C90.3193 85.765 90.3074 85.6857 90.2782 85.6122C90.2489 85.5387 90.203 85.473 90.1442 85.4201C90.0079 85.3375 89.8518 85.2931 89.6924 85.2917C89.533 85.2903 89.3761 85.3319 89.2383 85.4121L88.9961 85.5232L89.4607 82.1282L89.7507 82.1679L89.3556 85.0558C89.5173 84.9958 89.6915 84.9772 89.8623 85.0018C90.0331 85.0264 90.195 85.0933 90.3332 85.1965C90.4262 85.2777 90.4992 85.3793 90.5465 85.4934C90.5937 85.6075 90.614 85.7309 90.6056 85.8541C90.597 86.0275 90.5507 86.197 90.4698 86.3505C90.3888 86.5041 90.2753 86.6382 90.1371 86.7432C89.6734 87.0821 89.0709 87.0989 88.5868 87.1125Z" fill="#2F2E41"/>
<path d="M92.7625 82.4167H91.1855V82.7095H92.7625V82.4167Z" fill="#2F2E41"/>
<path d="M87.7849 82.4167H86.208V82.7095H87.7849V82.4167Z" fill="#2F2E41"/>
<path d="M83.6421 96.3964C86.853 97.3172 90.2703 97.2211 93.4244 96.1211C93.4858 96.0992 93.5473 96.0772 93.6074 96.0553C92.8641 95.4819 92.0235 95.0475 91.1259 94.7728C91.1894 94.5477 91.1884 94.3093 91.123 94.0847C91.0341 93.8001 90.8558 93.5517 90.6144 93.3766C90.3731 93.2014 90.0816 93.1089 89.7835 93.1127H87.8745C87.5768 93.1086 87.2858 93.201 87.0449 93.3759C86.804 93.5508 86.6261 93.799 86.5379 94.0833C86.4725 94.3083 86.4715 94.5472 86.535 94.7728C85.7443 95.0149 84.9972 95.3811 84.3214 95.8576C84.1852 95.9528 84.0535 96.0523 83.9262 96.1563C83.8295 96.2339 83.7344 96.3144 83.6421 96.3964Z" fill="#2F2E41"/>
<path d="M95.1255 82.9381C95.1255 84.2586 95.7755 85.3537 96.6202 85.544C96.7062 85.5633 96.7941 85.5731 96.8823 85.5732C97.8499 85.5732 98.639 84.3918 98.639 82.9381C98.6609 82.1887 98.4218 81.4549 97.9626 80.8622C97.8198 80.6894 97.6442 80.5465 97.4458 80.4421C97.2718 80.3512 97.0785 80.3035 96.8823 80.303C96.6126 80.3063 96.3509 80.3944 96.1341 80.5548C95.5383 80.9764 95.1255 81.8855 95.1255 82.9381Z" fill="#3F3D56"/>
<path d="M79.4613 82.9381C79.4613 84.0741 79.9414 85.0433 80.6149 85.4137C80.7992 85.517 81.0067 85.5719 81.218 85.5733C81.265 85.5732 81.312 85.5703 81.3586 85.5645C82.2603 85.4576 82.9748 84.3216 82.9748 82.9381C82.9748 81.8299 82.5165 80.8798 81.8695 80.4918C81.6738 80.3703 81.4484 80.305 81.218 80.303C81.0217 80.3035 80.8284 80.3512 80.6544 80.4421C80.4555 80.547 80.2794 80.6903 80.1362 80.8637C79.6783 81.4565 79.4399 82.1894 79.4613 82.9381Z" fill="#3F3D56"/>
<path d="M80.7245 85.1611C80.7594 85.161 80.7938 85.1527 80.8248 85.1368C80.8558 85.1209 80.8826 85.0978 80.9029 85.0695C80.9232 85.0411 80.9365 85.0084 80.9417 84.9739C80.9469 84.9395 80.9438 84.9042 80.9326 84.8712C80.513 83.6231 80.3867 82.2951 80.5637 80.9903C80.7407 79.6856 81.2162 78.4392 81.9532 77.348C82.6902 76.2569 83.6689 75.3504 84.8132 74.699C85.9576 74.0475 87.2367 73.6688 88.5512 73.5921C89.8657 73.5154 91.1802 73.7428 92.3925 74.2568C93.6048 74.7707 94.6822 75.5572 95.5411 76.5552C96.4 77.5533 97.0173 78.7359 97.3448 80.0113C97.6723 81.2866 97.7014 82.6203 97.4297 83.9087C97.4178 83.9656 97.429 84.025 97.4608 84.0737C97.4926 84.1224 97.5424 84.1565 97.5993 84.1685C97.6562 84.1805 97.7156 84.1694 97.7644 84.1377C97.8131 84.106 97.8473 84.0562 97.8594 83.9993C98.1453 82.6447 98.1149 81.2425 97.7706 79.9015C97.4264 78.5606 96.7775 77.3171 95.8745 76.2677C94.9715 75.2183 93.8387 74.3913 92.5641 73.851C91.2894 73.3106 89.9074 73.0715 88.5253 73.1521C87.1432 73.2328 85.7984 73.6311 84.5953 74.3161C83.3922 75.001 82.3632 75.9542 81.5884 77.1016C80.8136 78.2489 80.3139 79.5594 80.1279 80.9313C79.942 82.3032 80.075 83.6995 80.5165 85.0116C80.5312 85.0551 80.5592 85.093 80.5965 85.1198C80.6338 85.1466 80.6786 85.1611 80.7245 85.1611Z" fill="#3F3D56"/>
<path d="M92.9235 78.6928C93.0535 78.9051 93.1075 79.1552 93.0767 79.4022C93.0459 79.6491 92.9321 79.8783 92.7539 80.0521C92.3286 80.5273 91.6503 80.5572 91.0613 80.4691C90.4004 80.3701 89.6995 80.0605 89.0304 80.2691C88.4601 80.447 88.0533 80.9642 87.4608 81.0941C86.9354 81.2093 86.3071 81.0568 86.1229 80.4968C86.0344 80.2277 86.4584 80.1123 86.5464 80.38C86.6656 80.7423 87.1801 80.7351 87.4748 80.6348C87.9472 80.474 88.3113 80.0827 88.7756 79.8959C89.3291 79.7245 89.9217 79.7261 90.4743 79.9005C90.9996 80.0188 91.6041 80.1942 92.1275 79.9732C92.5147 79.8097 92.8228 79.2947 92.5443 78.9145C92.3771 78.6862 92.758 78.4669 92.9235 78.6928Z" fill="#2F2E41"/>
<path d="M88.1001 97.4621C86.551 97.4634 85.0093 97.2466 83.5206 96.8182C83.3456 96.7691 83.1618 96.7132 82.9772 96.6527C81.9399 96.315 80.9386 95.8753 79.9881 95.34C79.8098 95.24 79.6308 95.1345 79.4416 95.0178C78.5019 94.4398 77.6224 93.7693 76.8161 93.0163C76.6831 92.8922 76.5512 92.7648 76.4224 92.6376C73.8867 90.1094 72.2398 86.8267 71.7292 83.2826C71.2185 79.7385 71.8717 76.1244 73.5905 72.9833C75.3093 69.8421 78.001 67.3435 81.2612 65.8628C84.5214 64.3821 88.1741 63.9993 91.6704 64.7718C95.1668 65.5444 98.318 67.4306 100.651 70.1471C102.984 72.8636 104.372 76.2638 104.607 79.8367C104.842 83.4097 103.912 86.9625 101.956 89.9615C99.9993 92.9604 97.1226 95.2436 93.7577 96.468C93.6973 96.4901 93.6348 96.5124 93.5723 96.5347C91.8136 97.1505 89.9634 97.4641 88.1001 97.4621ZM88.1001 65.2548C84.9998 65.255 81.9693 66.1751 79.3923 67.8986C76.8152 69.6221 74.8075 72.0715 73.6234 74.9367C72.4392 77.8019 72.1319 80.9541 72.7403 83.9941C73.3487 87.0341 74.8454 89.8252 77.041 92.014C77.1626 92.1341 77.2884 92.2556 77.4156 92.3743C78.1792 93.0874 79.0122 93.7225 79.9022 94.2699C80.0815 94.3804 80.2501 94.4799 80.4184 94.5742C81.3186 95.0813 82.267 95.4978 83.2495 95.8176C83.4233 95.8745 83.5951 95.9269 83.7611 95.9735C86.8852 96.87 90.2104 96.7768 93.2794 95.7066L93.4568 95.6427C96.9177 94.383 99.8241 91.9442 101.666 88.7546C103.507 85.565 104.166 81.8287 103.527 78.2016C102.887 74.5745 100.991 71.2886 98.1694 68.921C95.3482 66.5533 91.7831 65.2553 88.1001 65.2548Z" fill="#CCCCCC"/>
<path d="M151.469 176.556H64.7652C63.6736 176.555 62.6271 176.121 61.8552 175.349C61.0833 174.577 60.6492 173.53 60.6479 172.439V54.7348C60.6492 53.6432 61.0833 52.5967 61.8552 51.8248C62.6271 51.0529 63.6736 50.6188 64.7652 50.6176H151.469C152.56 50.6188 153.607 51.0529 154.379 51.8248C155.151 52.5967 155.585 53.6432 155.586 54.7348V172.439C155.585 173.53 155.151 174.577 154.379 175.349C153.607 176.121 152.56 176.555 151.469 176.556ZM64.7652 51.1019C63.802 51.103 62.8786 51.4861 62.1976 52.1672C61.5165 52.8482 61.1334 53.7716 61.1323 54.7348V172.439C61.1334 173.402 61.5165 174.325 62.1976 175.006C62.8786 175.687 63.802 176.07 64.7652 176.072H151.469C152.432 176.07 153.355 175.687 154.036 175.006C154.718 174.325 155.101 173.402 155.102 172.439V54.7348C155.101 53.7716 154.718 52.8482 154.036 52.1672C153.355 51.4861 152.432 51.103 151.469 51.1019H64.7652Z" fill="#3F3D56"/>
<path d="M134.684 81.1875H110.15C109.635 81.1875 109.141 80.983 108.777 80.619C108.413 80.2551 108.209 79.7614 108.209 79.2466C108.209 78.7318 108.413 78.2381 108.777 77.8741C109.141 77.5102 109.635 77.3057 110.15 77.3057H134.684C135.199 77.3057 135.693 77.5102 136.057 77.8741C136.421 78.2381 136.625 78.7318 136.625 79.2466C136.625 79.7614 136.421 80.2551 136.057 80.619C135.693 80.983 135.199 81.1875 134.684 81.1875Z" fill="#F48E1E"/>
<path d="M142.69 87.7383H110.15C109.635 87.7383 109.141 87.5338 108.777 87.1698C108.413 86.8058 108.209 86.3121 108.209 85.7974C108.209 85.2826 108.413 84.7889 108.777 84.4249C109.141 84.0609 109.635 83.8564 110.15 83.8564H142.69C143.205 83.8564 143.699 84.0609 144.063 84.4249C144.427 84.7889 144.631 85.2826 144.631 85.7974C144.631 86.3121 144.427 86.8058 144.063 87.1698C143.699 87.5338 143.205 87.7383 142.69 87.7383Z" fill="#F48E1E"/>
<path d="M134.648 112.863H73.5435C73.0287 112.863 72.535 112.658 72.171 112.294C71.807 111.93 71.6025 111.437 71.6025 110.922C71.6025 110.407 71.807 109.913 72.171 109.549C72.535 109.185 73.0287 108.981 73.5435 108.981H134.648C135.163 108.981 135.657 109.185 136.021 109.549C136.385 109.913 136.589 110.407 136.589 110.922C136.589 111.437 136.385 111.93 136.021 112.294C135.657 112.658 135.163 112.863 134.648 112.863Z" fill="#CCCCCC"/>
<path d="M142.655 119.413H73.5435C73.0287 119.413 72.535 119.209 72.171 118.845C71.807 118.481 71.6025 117.987 71.6025 117.472C71.6025 116.958 71.807 116.464 72.171 116.1C72.535 115.736 73.0287 115.531 73.5435 115.531H142.655C143.169 115.531 143.663 115.736 144.027 116.1C144.391 116.464 144.595 116.958 144.595 117.472C144.595 117.987 144.391 118.481 144.027 118.845C143.663 119.209 143.169 119.413 142.655 119.413Z" fill="#CCCCCC"/>
<path d="M134.648 134.469H73.5435C73.0292 134.469 72.5361 134.264 72.1726 133.9C71.8091 133.536 71.605 133.043 71.605 132.528C71.605 132.014 71.8091 131.521 72.1726 131.157C72.5361 130.793 73.0292 130.588 73.5435 130.587H134.648C135.163 130.587 135.657 130.792 136.021 131.156C136.385 131.52 136.589 132.014 136.589 132.528C136.589 133.043 136.385 133.537 136.021 133.901C135.657 134.265 135.163 134.469 134.648 134.469Z" fill="#CCCCCC"/>
<path d="M142.655 141.02H73.5435C73.0292 141.019 72.5361 140.814 72.1726 140.45C71.8091 140.087 71.605 139.593 71.605 139.079C71.605 138.565 71.8091 138.071 72.1726 137.707C72.5361 137.343 73.0292 137.139 73.5435 137.138H142.655C143.169 137.138 143.663 137.342 144.027 137.706C144.391 138.07 144.596 138.564 144.596 139.079C144.596 139.594 144.391 140.087 144.027 140.451C143.663 140.815 143.169 141.02 142.655 141.02Z" fill="#CCCCCC"/>
<path d="M134.648 156.076H73.5435C73.0287 156.076 72.535 155.871 72.171 155.507C71.807 155.143 71.6025 154.65 71.6025 154.135C71.6025 153.62 71.807 153.126 72.171 152.762C72.535 152.398 73.0287 152.194 73.5435 152.194H134.648C135.163 152.194 135.657 152.398 136.021 152.762C136.385 153.126 136.589 153.62 136.589 154.135C136.589 154.65 136.385 155.143 136.021 155.507C135.657 155.871 135.163 156.076 134.648 156.076Z" fill="#CCCCCC"/>
<path d="M142.655 162.626H73.5435C73.0287 162.626 72.535 162.422 72.171 162.058C71.807 161.694 71.6025 161.2 71.6025 160.686C71.6025 160.171 71.807 159.677 72.171 159.313C72.535 158.949 73.0287 158.745 73.5435 158.745H142.655C143.169 158.745 143.663 158.949 144.027 159.313C144.391 159.677 144.595 160.171 144.595 160.686C144.595 161.2 144.391 161.694 144.027 162.058C143.663 162.422 143.169 162.626 142.655 162.626Z" fill="#CCCCCC"/>
<path d="M150.463 149.754C147.95 149.751 145.461 150.243 143.138 151.203C140.816 152.163 138.705 153.571 136.927 155.347C135.149 157.123 133.738 159.232 132.776 161.554C131.814 163.875 131.318 166.364 131.318 168.877C131.318 171.39 131.814 173.878 132.776 176.2C133.738 178.521 135.149 180.63 136.927 182.406C138.705 184.182 140.816 185.591 143.138 186.55C145.461 187.51 147.95 188.003 150.463 188C155.529 187.991 160.384 185.972 163.963 182.387C167.542 178.802 169.552 173.943 169.552 168.877C169.552 163.811 167.542 158.952 163.963 155.367C160.384 151.781 155.529 149.763 150.463 149.754Z" fill="#F48E1E"/>
<path d="M148.648 176.819C148.145 176.82 147.655 176.657 147.252 176.355L147.227 176.336L141.968 172.313C141.477 171.936 141.156 171.379 141.075 170.765C140.994 170.151 141.16 169.529 141.537 169.038C141.914 168.546 142.471 168.224 143.085 168.143C143.699 168.062 144.32 168.227 144.812 168.604L148.218 171.216L156.267 160.715C156.454 160.471 156.687 160.267 156.952 160.114C157.218 159.96 157.511 159.86 157.815 159.82C158.12 159.78 158.429 159.8 158.725 159.879C159.021 159.959 159.299 160.096 159.543 160.282L159.543 160.283L159.493 160.352L159.545 160.283C160.036 160.66 160.357 161.217 160.438 161.831C160.519 162.445 160.353 163.067 159.977 163.559L150.509 175.905C150.29 176.189 150.009 176.419 149.686 176.577C149.364 176.735 149.009 176.817 148.65 176.816L148.648 176.819Z" fill="white"/>
</g>
<defs>
<clipPath id="clip0_336_464">
<rect width="207.798" height="188" fill="white" transform="translate(0.100586)"/>
</clipPath>
</defs>
</svg>
