<svg width="284" height="188" viewBox="0 0 284 188" fill="none" xmlns="http://www.w3.org/2000/svg">
<g clip-path="url(#clip0_336_131)">
<path d="M109.966 16.9846H75.687C74.511 16.9846 73.5542 16.0278 73.5542 14.8518C73.5542 13.6758 74.511 12.719 75.687 12.719H109.966C111.142 12.719 112.099 13.6758 112.099 14.8518C112.099 16.0278 111.142 16.9846 109.966 16.9846Z" fill="#E6E7E8"/>
<path d="M136.718 24.2033H75.687C74.511 24.2033 73.5542 23.2465 73.5542 22.0705C73.5542 20.8945 74.511 19.9377 75.687 19.9377H136.718C137.894 19.9377 138.85 20.8945 138.85 22.0705C138.85 23.2465 137.894 24.2033 136.718 24.2033Z" fill="#E6E7E8"/>
<path d="M136.718 31.357H75.687C74.511 31.357 73.5542 30.4002 73.5542 29.2242C73.5542 28.0482 74.511 27.0914 75.687 27.0914H136.718C137.894 27.0914 138.85 28.0482 138.85 29.2242C138.85 30.4002 137.894 31.357 136.718 31.357Z" fill="#E6E7E8"/>
<path d="M143.182 68.4808V67.4588C131.386 67.4588 121.085 57.8229 118.347 44.4005L122.791 45.5439C120.641 43.5072 118.47 40.0976 117.123 37.311C116.327 40.3025 114.841 44.0619 113.116 46.4691L117.321 44.477C120.117 58.4413 130.861 68.4808 143.182 68.4808Z" fill="#3F3D56"/>
<path d="M138.72 29.3711C138.72 30.4981 137.803 31.415 136.676 31.415H110.105C108.978 31.415 108.062 30.4981 108.062 29.3711C108.062 28.2441 108.978 27.3271 110.105 27.3271H136.676C137.803 27.3271 138.72 28.2441 138.72 29.3711Z" fill="#F48E1E"/>
<path d="M19.0749 143.226C18.6704 141.818 17.9778 140.616 17.1531 139.76L14.1569 126.101L7.62598 127.701L11.3685 141.384C11.1224 142.542 11.1716 143.924 11.5761 145.332C12.5002 148.55 14.9279 150.687 16.9987 150.105C19.0694 149.524 19.999 146.444 19.0749 143.226Z" fill="#FFB6B6"/>
<path d="M18.1716 53.6307C18.1716 53.6307 11.1176 53.3872 7.02975 57.986C2.34634 63.7071 -0.854988 86.1242 1.54826 87.6337L8.05951 133.87L17.3444 132.594L14.9615 77.1175L18.1716 53.6307Z" fill="#F48E1E"/>
<path d="M65.7923 131.567L64.1022 187.998H39.8307L38.8496 166.246L34.5369 187.998H8.52295L11.7677 150.605L15.1197 142.741L17.3884 137.411L65.7923 131.567Z" fill="#2F2E41"/>
<path d="M46.5143 44.413L29.652 43.391L24.0312 50.5447C19.1768 51.5841 14.7921 52.926 11.7677 55.1435C12.4913 76.5668 10.9018 104.423 17.3885 109.818L11.6284 150.473C11.6284 150.473 13.9513 148.483 17.8316 149.186C19.1721 149.429 20.7903 152.448 22.4375 152.631C35.0943 154.037 55.6192 152.591 65.7923 131.567L61.8437 101.132L62.8657 56.6765C59.6709 54.1511 55.6988 52.5098 51.1132 51.5667L46.5143 44.413Z" fill="#F48E1E"/>
<path d="M78.9775 31.9764C79.1604 33.7479 78.9281 35.4139 78.3931 36.7497L81.202 53.5159L73.1849 54.6191L71.1987 37.4927C70.4019 36.2944 69.834 34.7111 69.6511 32.9396C69.2331 28.8925 70.9821 25.3961 73.5575 25.1301C76.1329 24.8641 78.5595 27.9293 78.9775 31.9764Z" fill="#FFB6B6"/>
<path d="M52.323 57.9575C51.4836 59.196 51.7175 60.5881 51.517 62.2608C50.6662 69.3616 64.2734 90.3442 73.6886 92.7601C74.9241 93.0771 75.6279 94.4099 76.875 94.6779C80.5691 95.4719 84.0086 92.5397 83.8092 88.7665L81.2517 40.3726L70.5072 44.0373L71.195 69.1625C71.1265 63.9574 66.347 58.6575 62.7267 56.4531C62.7267 56.4531 55.3936 53.427 52.323 57.9575Z" fill="#F48E1E"/>
<path d="M39.8335 42.0687C48.0366 42.0687 54.6865 35.4188 54.6865 27.2157C54.6865 19.0126 48.0366 12.3627 39.8335 12.3627C31.6304 12.3627 24.9805 19.0126 24.9805 27.2157C24.9805 35.4188 31.6304 42.0687 39.8335 42.0687Z" fill="#FFB6B6"/>
<path d="M53.6684 16.3091C53.5406 16.3398 55.6235 14.3095 55.7123 14.2652C57.7562 13.2432 55.656 23.2329 54.1793 22.9518C50.5462 22.262 48.9776 20.8925 47.5673 24.311C47.1738 25.2614 46.9285 26.3345 46.1621 27.0141C45.1094 27.939 43.3619 27.8623 42.5035 28.966C41.8136 29.8552 42.0129 31.1633 42.5239 32.1648C43.0349 33.1714 43.8116 34.0247 44.2765 35.0518C44.7978 36.2066 42.575 39.8806 41.7268 41.9449V41.95L41.7217 41.9621C41.4963 42.5036 40.9607 40.9438 40.3953 40.7881C39.7186 40.6018 38.7218 42.1995 37.644 41.9092C37.6389 41.9092 37.6338 41.904 37.6287 41.904C36.6016 41.6179 35.457 41.3113 34.3227 41.0047H34.3175C31.1239 40.1361 30.3166 41.3829 30.1633 41.3471L28.1807 39.2725C27.5003 38.7771 27.5772 37.1778 27.0974 36.7483C26.705 36.397 25.7268 37.2087 25.4386 36.8711C24.025 35.2155 23.6998 33.5593 22.8665 30.2895C22.1051 27.3003 20.5262 18.353 23.7709 17.9493C26.8317 17.5661 24.5936 13.3045 27.6748 13.4629C27.4909 12.6862 27.8332 11.8533 28.3902 11.281C28.942 10.7036 29.6778 10.3459 30.4188 10.0393C34.0723 8.54729 33.4642 7.26476 37.317 8.1334C37.7002 7.59688 42.6145 6.19815 43.3095 6.37701C43.3606 6.38721 42.2377 8.56775 44.9817 8.1334C44.8795 8.76193 46.3753 7.39897 46.5146 9.66634C49.4412 7.90995 51.0164 12.1139 51.1134 12.7322C51.2412 13.5038 50.0761 13.1103 50.8528 13.2279C51.3127 13.2994 52.0996 14.2345 52.023 14.6995C52.3551 14.2498 52.6873 13.8053 53.0245 13.3556C53.0858 13.3607 53.142 13.3709 53.2034 13.3811C54.7567 13.6775 52.9759 18.7556 53.0399 17.1726C53.1574 14.2652 55.2166 15.9667 53.6684 16.3091Z" fill="#2F2E41"/>
<path d="M243.123 13.2638C242.574 17.7744 241.974 22.2788 241.324 26.7759C241.06 28.6024 240.78 30.4521 240.046 32.145C239.544 33.3006 238.841 34.3558 238.143 35.404C237.317 36.6426 236.478 37.8971 235.356 38.8762C234.235 39.8553 232.779 40.5428 231.294 40.4278C235.232 37.777 237.879 33.2937 238.297 28.5652C238.494 26.3426 238.224 24.1084 238.172 21.8777C238.12 19.647 238.307 17.3386 239.336 15.3588C240.365 13.3791 242.399 11.7943 244.629 11.8506L243.123 13.2638Z" fill="#2F2E41"/>
<path d="M203.214 109.468C200.01 112.066 196.072 112.52 194.418 110.481C192.764 108.442 194.021 104.682 197.225 102.084C198.628 100.946 200.171 100.22 201.602 99.9334L215.316 89.0922L220.267 95.6365L206.221 105.629C205.646 106.97 204.616 108.33 203.214 109.468Z" fill="#A0616A"/>
<path d="M205.804 94.7499L226.24 75.3592L228.284 73.8263C228.284 73.8263 240.015 62.3975 243.052 62.1358C244.339 62.0251 245.625 62.3459 246.709 63.05C248.46 64.1854 249.367 66.0545 249.367 67.9382C249.367 69.5124 248.733 71.0939 247.435 72.2588L228.727 89.0543L220.768 96.1987L210.869 105.087L209.863 103.037L206.46 96.0918L205.804 94.7499Z" fill="#F48E1E"/>
<path d="M249.501 81.6271L229.04 87.8941C232.465 88.8591 233.9 109.733 230.712 110.382C230.712 110.382 264.623 112.793 262.772 110.382C260.517 107.441 263.542 87.9026 264.984 87.8941L249.501 81.6271Z" fill="#A0616A"/>
<path d="M276.728 188L274.939 166.416C274.939 158.695 274.439 151.72 273.636 145.502C270.422 120.54 262.364 107.745 262.364 107.745H232.216C232.176 107.791 232.135 107.827 232.094 107.873L232.089 107.878C224.976 115.354 221.276 134.153 219.631 145.502C218.849 150.903 218.532 154.618 218.532 154.618L215.584 180.821L217.715 188H235.257L234.981 186.462L246.268 145.502L246.406 145.001L246.529 145.502L256.994 188L276.728 188Z" fill="#2F2E41"/>
<path d="M232.834 69.1761L239.205 56.3162L244.573 46.9733L248.914 42.5496H260.793L261.899 46.9733L268.535 50.6598L270.882 69.0921L262.52 109.084C252.566 100.974 232.051 98.7275 232.051 98.7275L228.727 89.0543L226.53 77.4014L226.265 76.0079L232.834 69.1761Z" fill="#F48E1E"/>
<path d="M232.07 92.4391C227.946 92.3221 224.664 90.0999 224.738 87.4756C224.813 84.8513 228.216 82.8188 232.34 82.9358C234.145 82.9871 235.789 83.4417 237.06 84.1569L254.528 84.8719L254.018 93.0619L236.853 91.4877C235.542 92.1296 233.875 92.4903 232.07 92.4391Z" fill="#A0616A"/>
<path d="M254.408 64.4846L270.886 80.8433L242.185 83.7823L235.515 93.164L275.519 94.4904C279.128 95.7758 282.973 93.2814 283.27 89.4616C283.37 88.1718 275.152 55.4446 270.176 52.4063C264.345 48.8452 254.408 64.4846 254.408 64.4846Z" fill="#F48E1E"/>
<path d="M265.854 26.4982C265.974 19.0678 260.048 12.9472 252.617 12.8274C245.187 12.7076 239.066 18.634 238.946 26.0643C238.827 33.4947 244.753 39.6153 252.183 39.7351C259.614 39.8549 265.734 33.9286 265.854 26.4982Z" fill="#A0616A"/>
<path d="M281.937 68.2056C281.6 69.4831 278.973 70.1422 278.36 71.7825C276.408 72.8964 277.466 63.7959 276.679 63.198C276.071 62.7432 275.908 63.8418 275.77 62.8965C275.248 59.3503 271.84 60.1423 269.316 59.57C269.03 59.0131 268.81 58.4715 268.667 57.9451C268.411 56.9947 267.246 56.6626 266.557 57.3626C266.245 57.0867 266.02 56.1107 265.8 55.1347C265.642 54.4245 265.484 53.7142 265.3 53.2646L263.542 49.2994L264.109 52.2528C262.959 51.8389 261.799 52.2682 261.13 50.8476C260.272 49.0234 259.929 46.8875 260.553 44.9713C261.12 43.234 262.075 39.7543 263.153 36.8723C261.932 37.7563 260.466 38.4002 258.764 38.7221C259.367 37.5775 259.98 36.4124 260.236 35.1401C260.486 33.8678 260.333 32.4523 259.526 31.4406C258.861 30.6077 257.88 30.8172 257.052 30.1478C256.409 29.6266 255.852 28.293 255.463 27.5623C257.119 33.0655 258.371 38.9111 256.265 44.164C254.809 47.8022 251.743 50.7608 248.064 52.1046C250.021 50.7046 251.932 49.2125 253.399 47.3116C254.968 45.2728 255.99 42.6975 255.678 40.1426C255.187 36.1314 247.747 23.4438 246.833 20.9502C247.334 23.3876 247.139 25.2884 245.821 26.3359C245.479 22.8 241.626 23.1218 239.526 21.7064C239.526 21.7064 237.901 12.5241 241.713 12.4679C243.552 12.4424 245.479 8.11947 247.15 7.34789C249.817 6.11644 251.452 6.95445 254.411 7.04642C257.364 7.13328 260.2 8.40562 262.004 10.7408C262.949 11.962 263.297 10.9912 264.717 11.7525C266.066 12.473 266.976 11.8036 268.503 11.8496C271.564 11.9314 274.533 13.5665 276.25 16.0959C277.967 18.6303 279.025 18.3953 278.345 22.3145C278.335 22.3605 278.335 22.4524 278.345 22.5904C278.718 28.7631 277.762 34.951 275.315 40.6331C274.559 42.3807 278.258 44.1844 278.253 46.3663C278.247 48.9007 274.165 51.2104 274.543 52.2937C275.627 57.5108 281.712 56.3509 280.276 65.0835C280.159 65.7938 282.162 67.3523 281.937 68.2056Z" fill="#2F2E41"/>
<path d="M244.66 52.2276C244.772 52.1919 244.884 52.151 244.997 52.105C244.854 52.2072 244.716 52.3043 244.573 52.4065L244.66 52.2276Z" fill="#2F2E41"/>
<path d="M263.613 9.17728C262.149 9.3948 260.663 6.96633 261.494 3.59863C263.305 6.36792 264.23 9.48544 264.376 12.9098L263.4 13.2122L263.613 9.17728Z" fill="#F48E1E"/>
<path d="M271.091 6.03394C270.093 9.57331 265.02 11.942 264.124 10.7103L264.022 12.821L263.395 12.0142C265.214 9.30888 267.694 7.23355 271.091 6.03394Z" fill="#F48E1E"/>
<path d="M159.706 101.478C159.706 100.302 160.662 99.3447 161.838 99.3447H196.117C197.293 99.3447 198.25 100.302 198.25 101.478C198.25 102.653 197.293 103.61 196.117 103.61H161.838C160.662 103.61 159.706 102.653 159.706 101.478Z" fill="#E6E7E8"/>
<path d="M159.706 115.785C159.706 114.609 160.662 113.652 161.838 113.652H196.117C197.293 113.652 198.25 114.609 198.25 115.785C198.25 116.961 197.293 117.918 196.117 117.918H161.838C160.662 117.918 159.706 116.961 159.706 115.785Z" fill="#E6E7E8"/>
<path d="M135.087 110.829C133.911 110.829 132.954 109.872 132.954 108.696C132.954 107.52 133.911 106.563 135.087 106.563H196.117C197.293 106.563 198.25 107.52 198.25 108.696C198.25 109.872 197.293 110.829 196.117 110.829H135.087Z" fill="#E6E7E8"/>
<path d="M130.55 90.4164L126.344 88.4243C128.069 90.8315 129.555 94.5909 130.351 97.5824C131.698 94.7958 133.87 91.3862 136.02 89.3495L131.575 90.4929C134.314 77.0705 144.615 67.4346 156.411 67.4346V66.4126C144.09 66.4126 133.346 76.4521 130.55 90.4164Z" fill="#3F3D56"/>
<path d="M149.905 110.868H123.334C122.207 110.868 121.29 109.951 121.29 108.824C121.29 107.697 122.207 106.78 123.334 106.78H149.905C151.032 106.78 151.949 107.697 151.949 108.824C151.949 109.951 151.032 110.868 149.905 110.868Z" fill="#F48E1E"/>
<path d="M157.665 69.0668C158.373 64.7053 155.411 60.5957 151.05 59.888C146.688 59.1802 142.579 62.1421 141.871 66.5037C141.163 70.8653 144.125 74.9748 148.487 75.6826C152.848 76.3903 156.958 73.4284 157.665 69.0668Z" fill="#3F3D56"/>
<path d="M106.335 9.86944C109.06 9.86944 111.27 7.66009 111.27 4.93472C111.27 2.20935 109.06 0 106.335 0C103.61 0 101.4 2.20935 101.4 4.93472C101.4 7.66009 103.61 9.86944 106.335 9.86944Z" fill="#E6E7E8"/>
<path d="M164.076 95.2031C166.801 95.2031 169.011 92.9937 169.011 90.2683C169.011 87.543 166.801 85.3336 164.076 85.3336C161.35 85.3336 159.141 87.543 159.141 90.2683C159.141 92.9937 161.35 95.2031 164.076 95.2031Z" fill="#E6E7E8"/>
</g>
<defs>
<clipPath id="clip0_336_131">
<rect width="282.542" height="188" fill="white" transform="translate(0.729004)"/>
</clipPath>
</defs>
</svg>
