<svg width="236" height="188" viewBox="0 0 236 188" fill="none" xmlns="http://www.w3.org/2000/svg">
<g clip-path="url(#clip0_120_218)">
<path d="M157.672 41.1797C157.637 41.1856 157.585 41.1944 157.523 41.2048C156.295 41.408 148.873 42.5531 141.39 39.7027C138.22 38.4951 139.302 38.1942 132.242 33.996C123.965 29.0741 121.841 29.1085 121.224 26.8135C119.993 22.2308 126.565 15.0267 130.915 15.501C132.061 15.6259 133.287 16.3087 135.195 15.8457C135.614 15.744 137.448 15.2988 138.343 13.7801C139.141 12.4253 138.465 11.448 138.786 10.3369C139.628 7.42045 146.649 5.96497 152.805 6.99335C156.345 7.58483 159.099 9.19963 164.462 12.4051C173.796 17.9843 178.464 20.7738 179.513 25.0478C180.507 29.0987 178.121 30.8443 179.856 35.1807C181.472 39.2184 184.039 38.9487 184.922 42.215C186.343 47.4712 181.068 53.2399 178.871 55.643C176.461 58.2776 174.157 59.7236 171.098 61.6433C167.259 64.0528 165.339 65.2575 163.031 65.1349C158.846 64.9127 146.412 65.6692 146.25 62.2063C146.189 60.9086 131.108 61.9712 138.534 47.9992C139.445 46.2855 157.288 48.116 157.523 47.1315" fill="#2F2E41"/>
<path d="M164.893 50.1205L177.719 69.2521L140.902 76.6975L143.247 52.7455L164.893 50.1205Z" fill="#FFB6B6"/>
<path opacity="0.1" d="M164.893 50.1205L177.719 69.2521L140.902 76.6975L143.247 52.7455L164.893 50.1205Z" fill="#1B1B1B"/>
<path d="M138.145 64.2883L177.854 62.6338L195.503 72.2853L194.675 134.331L213.151 169.352L119.945 151.704L127.115 125.231L123.805 69.5278L138.145 64.2883Z" fill="#F48E1E"/>
<path d="M1.11775 184.823C-0.149993 182.825 -0.299711 180.356 0.717337 178.219L15.8308 146.463C16.9588 144.093 19.3836 142.562 22.0083 142.562H212.903C215.455 142.562 217.777 143.966 218.962 146.225L235.161 177.106C236.281 179.24 236.207 181.747 234.964 183.812C233.721 185.877 231.54 187.116 229.13 187.125L6.92166 188H6.89384C4.53823 188 2.38036 186.814 1.11775 184.823Z" fill="white"/>
<path d="M1.11775 184.823C-0.149993 182.825 -0.299711 180.356 0.717337 178.219L15.8308 146.463C16.9588 144.093 19.3836 142.562 22.0083 142.562H212.903C215.455 142.562 217.777 143.966 218.962 146.225L235.161 177.106C236.281 179.24 236.207 181.747 234.964 183.812C233.721 185.877 231.54 187.116 229.13 187.125L6.92166 188H6.89384C4.53823 188 2.38036 186.814 1.11775 184.823ZM22.0083 143.28C19.6591 143.28 17.4888 144.651 16.4792 146.772L1.36576 178.527C0.455422 180.44 0.58936 182.65 1.7241 184.439C2.85429 186.22 4.78542 187.282 6.89396 187.282H6.91886L229.127 186.407C231.284 186.399 233.236 185.29 234.349 183.442C235.462 181.594 235.528 179.35 234.525 177.439L218.326 146.559C217.265 144.537 215.187 143.28 212.903 143.28H22.0083Z" fill="#3F3D56"/>
<path d="M195.131 175.86L116.354 170.444C115.19 170.364 114.263 169.58 113.99 168.447C113.718 167.313 114.188 166.193 115.187 165.593L132.607 155.141C133.05 154.876 133.557 154.747 134.071 154.771L202.213 157.869C203.114 157.91 203.919 158.402 204.366 159.185C204.813 159.968 204.827 160.911 204.404 161.707L197.619 174.478C197.164 175.335 196.271 175.866 195.31 175.866C195.251 175.866 195.191 175.864 195.131 175.86Z" fill="#3F3D56"/>
<path d="M115.67 167.284L194.124 172.662L200.328 159.287L133.058 156.649L115.67 167.284Z" fill="white"/>
<path d="M154.276 56.565C167.297 56.565 177.852 46.01 177.852 32.9898C177.852 19.9696 167.297 9.41467 154.276 9.41467C141.256 9.41467 130.701 19.9696 130.701 32.9898C130.701 46.01 141.256 56.565 154.276 56.565Z" fill="#FFB6B6"/>
<path d="M161.87 34.5154C161.835 34.5213 161.784 34.5301 161.721 34.5405C160.493 34.7437 153.071 35.8888 145.589 33.0384C142.419 31.8308 143.5 31.5299 136.44 27.3317C128.163 22.4098 126.039 22.4442 125.422 20.1492C124.192 15.5665 130.764 8.36242 135.114 8.83674C136.259 8.96162 137.485 9.64439 139.393 9.18143C139.812 9.07972 141.647 8.63446 142.541 7.11579C143.339 5.76102 142.663 4.78374 142.984 3.67264C143.826 0.756145 150.847 -0.69934 157.003 0.329039C160.544 0.920528 163.297 2.53532 168.66 5.74077C177.995 11.3199 182.662 14.1095 183.711 18.3835C184.705 22.4344 182.319 24.18 184.054 28.5163C185.67 32.5541 188.237 32.2844 189.12 35.5507C190.541 40.8069 185.266 46.5756 183.069 48.9786C180.66 51.6133 178.355 53.0593 175.296 54.979C171.457 57.3885 169.537 58.5932 167.229 58.4706C163.045 58.2484 158.883 54.4561 158.72 50.9933C158.66 49.6955 159.201 49.3063 160.541 44.8449C161.099 42.9861 161.486 41.4517 161.722 40.4672" fill="#2F2E41"/>
<path d="M178.029 160.825C179.545 160.885 180.7 162.244 180.783 163.717C180.87 165.245 179.808 166.653 178.531 167.38C177.036 168.232 175.169 168.369 173.485 168.223C171.971 168.091 170.323 167.62 169.348 166.369C168.528 165.317 168.226 163.727 168.924 162.532C169.615 161.348 171.086 161.021 172.316 161.496C173.618 161.999 174.437 163.183 174.445 164.582C174.454 166.133 173.558 167.566 172.301 168.424C170.946 169.349 169.239 169.646 167.626 169.642C165.867 169.638 164.117 169.269 162.499 168.584C160.984 167.942 159.47 167.016 158.386 165.758C157.37 164.579 156.762 162.942 157.326 161.413C157.789 160.158 158.957 159.389 160.295 159.495C161.52 159.593 162.759 160.304 163.303 161.436C163.917 162.713 163.641 164.245 162.86 165.387C161.959 166.705 160.534 167.446 158.951 167.553C157.267 167.667 155.599 167.069 154.214 166.144C152.931 165.287 151.804 164.19 150.426 163.478C149.763 163.135 149.042 162.917 148.292 162.918C147.336 162.919 146.417 163.233 145.488 163.415C144.7 163.569 143.889 163.659 143.111 163.407C142.446 163.192 141.824 162.797 141.405 162.231C141.008 161.695 140.869 161.024 141.094 160.389C141.27 159.89 142.069 160.105 141.891 160.609C141.481 161.771 142.889 162.626 143.875 162.732C144.623 162.813 145.395 162.597 146.116 162.428C146.868 162.252 147.637 162.072 148.415 162.092C151.169 162.159 152.99 164.514 155.211 165.791C157.546 167.135 160.965 167.228 162.395 164.559C162.915 163.59 163.022 162.301 162.309 161.396C161.714 160.641 160.658 160.19 159.701 160.336C158.5 160.52 157.901 161.664 157.945 162.802C157.998 164.195 158.969 165.326 160.004 166.161C162.308 168.017 165.364 168.963 168.312 168.797C169.695 168.719 171.164 168.359 172.239 167.438C173.167 166.643 173.801 165.349 173.577 164.11C173.384 163.037 172.485 162.224 171.398 162.116C170.286 162.006 169.418 162.795 169.368 163.905C169.312 165.155 170.054 166.197 171.13 166.766C172.348 167.41 173.824 167.49 175.174 167.42C176.608 167.346 178.101 166.968 179.104 165.876C179.96 164.945 180.284 163.564 179.496 162.487C179.148 162.011 178.625 161.676 178.029 161.653C177.498 161.632 177.495 160.804 178.029 160.825Z" fill="#F48E1E"/>
<path d="M140.325 159.939L140.746 157.331L164.151 112.598C164.539 111.857 165.457 111.569 166.198 111.957C166.939 112.345 167.226 113.263 166.839 114.004L143.444 158.718L141.532 160.571C141.306 160.789 140.979 160.836 140.701 160.69C140.422 160.544 140.275 160.249 140.325 159.939Z" fill="#3F3D56"/>
<path d="M156.278 131.479C158.919 131.976 161.402 133.098 163.52 134.752L163.639 134.777L163.663 134.659L189.171 138.654L187.323 104.726L206.655 94.1376L202.086 151.488C201.096 155.15 197.295 157.29 193.651 156.235L161.18 146.895L161.261 146.495L161.148 146.465C158.553 147.165 155.828 147.233 153.201 146.663C146.611 145.33 141.958 140.849 142.807 136.655C143.656 132.461 149.686 130.144 156.278 131.479Z" fill="#FFB6B6"/>
<path d="M173.718 78.3521L195.503 72.2854C195.503 72.2854 206.947 80.696 208.325 89.7961C208.489 90.8784 208.944 141.293 208.463 142.604C204.9 152.316 185.3 136.813 185.3 136.813L173.718 78.3521Z" fill="#F48E1E"/>
<path d="M79.2247 168.963L76.9662 167.028C76.63 166.739 76.2211 166.548 75.7839 166.475L25.4626 158.088C24.3141 157.897 23.4657 157.068 23.2484 155.924C23.0312 154.78 23.5164 153.697 24.515 153.098L42.4673 142.326C43.0673 141.966 43.7734 141.853 44.4565 142.007L108.26 156.422C109.5 156.702 110.328 157.704 110.369 158.975C110.409 160.247 109.647 161.3 108.427 161.659L81.7499 169.505C81.4967 169.58 81.2386 169.616 80.9826 169.616C80.3459 169.616 79.7227 169.39 79.2247 168.963Z" fill="#3F3D56"/>
<path d="M54.9912 106.41C57.4856 107.409 59.7044 108.991 61.4621 111.023L61.574 111.072L61.6206 110.96L85.8728 119.818L111.767 77.8909L126.083 86.763L96.0585 134.909C94.3786 138.311 90.2354 139.673 86.8642 137.933L56.8158 122.484L56.9727 122.107L56.8673 122.055C54.1858 122.24 51.4992 121.779 49.0324 120.712C42.8255 118.128 39.1276 112.83 40.7728 108.881C42.418 104.931 48.7824 103.824 54.9912 106.41Z" fill="#FFB6B6"/>
<path d="M139.546 85.4601L128.092 68.3328C128.092 68.3328 114.463 71.0304 108.849 78.3236C108.147 79.2353 84.0405 114.197 83.8852 115.723C82.798 126.403 110.504 131.407 110.504 131.407L139.546 85.4601Z" fill="#F48E1E"/>
<path d="M77.9785 169.478L20.2949 161.505C18.3643 161.239 16.7709 159.855 16.2352 157.981L2.98683 111.612C2.53791 110.04 2.87305 108.413 3.90634 107.147C4.93963 105.88 6.46626 105.226 8.09644 105.35L66.2127 109.803C68.3153 109.964 70.0802 111.444 70.6049 113.487L83.4206 163.377C83.8295 164.969 83.4206 166.651 82.3265 167.878C81.3843 168.935 80.0484 169.525 78.6557 169.525C78.4311 169.525 78.2048 169.509 77.9785 169.478Z" fill="#3F3D56"/>
<path d="M65.1204 74.5005C65.4576 74.8714 66.6811 74.4935 69.1146 73.7227C70.9643 73.1367 71.2492 72.9235 71.4251 72.7706C72.0437 72.2332 72.2058 71.668 72.8185 69.1714C73.9182 64.6902 73.9522 64.2452 74.5169 63.2943C74.7113 62.9668 75.2025 62.1857 75.0827 62.0889C74.9597 61.9894 74.4281 62.8032 73.4456 63.1106C72.4881 63.4102 72.0571 62.9302 71.2396 63.0525C70.1829 63.2105 69.5546 64.2143 68.569 65.839C67.6963 67.2778 67.5865 67.8566 66.3629 70.7154C66.0162 71.5252 65.7371 72.1521 65.5228 72.6474C63.1204 74.8896 60.7378 77.1614 58.3767 79.453C58.4222 79.3834 58.4651 79.3177 58.5022 79.2607C59.548 77.6549 59.6901 76.7941 59.675 76.149C59.6504 75.104 59.1513 74.308 58.1541 72.7587C57.1769 71.2404 56.251 70.2386 55.1354 69.0432C53.6731 67.4762 52.9419 66.6926 52.6508 66.7442C50.5711 67.1122 50.0149 81.2732 52.6316 83.8057C52.2643 84.0681 51.9602 84.343 51.7402 84.6133C49.5003 82.1263 45.6631 79.3478 41.4124 79.0057C38.7919 78.7948 37.3456 79.6171 36.8959 79.8996C34.8173 81.2051 33.5814 83.8181 34.2021 84.5554C34.7809 85.243 36.4526 83.68 39.7288 83.7661C42.0149 83.8261 43.8006 84.6555 44.8607 85.1479C47.0846 86.1808 47.898 87.1962 49.5377 87.8918C48.7691 88.5252 48.1601 89.3157 47.7777 90.0531C47.6452 90.1896 47.5132 90.3269 47.3809 90.4636C45.689 89.5101 43.7838 88.8107 41.7868 88.65C39.1662 88.4391 37.7199 89.2614 37.2701 89.5439C35.8693 90.4238 34.8541 91.8961 34.5292 92.9893C34.3168 93.032 34.1203 93.0806 33.9404 93.1332C33.3054 91.698 31.4155 90.1845 29.6583 89.4218C26.6335 88.1088 22.7043 88.4568 22.2839 89.7054C22.2705 89.7452 22.2671 89.7844 22.2612 89.8238C22.5928 87.1485 23.043 84.4919 23.6055 81.8546C23.6245 81.9298 23.6485 82.006 23.6804 82.0862C24.4271 83.9616 26.4448 85.7617 29.1951 86.6955C31.3537 87.4284 32.2579 87.0486 32.4875 86.9424C32.7069 86.841 33.6546 86.4343 33.8868 85.6255C34.3173 84.126 31.681 79.6943 30.0182 81.1808C24.6756 85.9567 23.9424 82.0894 23.697 81.4385C24.1513 79.3535 24.6741 77.2804 25.2605 75.2192C25.2706 75.2318 25.2794 75.2441 25.2899 75.2568C26.4571 76.6725 28.7034 77.6698 31.3432 77.7139C33.415 77.7484 34.092 77.1685 34.2613 77.0128C34.423 76.8641 35.1301 76.2488 35.1064 75.4843C35.0623 74.0669 32.5408 72.9125 30.5234 72.7124C28.6643 72.5279 26.6625 73.0971 25.6694 73.8179C26.1311 72.2743 26.6278 70.7374 27.1576 69.2072C28.5143 69.7614 30.4362 69.6868 32.3243 68.8429C33.8813 68.1469 34.184 67.4786 34.256 67.3036C34.3247 67.1364 34.6377 66.4312 34.3537 65.8694C33.8271 64.8278 31.5447 64.8454 29.9706 65.399C29.3223 65.627 28.7061 65.9777 28.1781 66.3743C29.1169 63.8662 30.1403 61.3759 31.2409 58.9041L30.1379 58.6283C28.7319 61.786 27.506 64.9848 26.4525 68.219C26.3215 67.2705 25.9933 66.26 25.561 65.4391C24.2901 63.0251 21.5755 61.2141 20.6574 61.8017C20.4738 61.9192 20.3965 62.1107 20.3266 62.3386C19.7638 64.1724 20.1876 66.7067 21.6697 69.0352C22.8329 70.8627 23.7288 71.1192 23.9621 71.1772C24.1592 71.2262 24.9198 71.4363 25.5451 71.1657C25.1246 72.6066 24.7358 74.0537 24.3813 75.5073C23.9546 74.448 23.1139 73.3194 22.2247 72.539C20.1744 70.7394 16.9915 70.0193 16.3444 70.8963C16.215 71.0718 16.2113 71.2782 16.2275 71.516C16.358 73.4298 17.6603 75.6448 19.8771 77.2891C21.6171 78.5796 22.5455 78.4987 22.7841 78.4694C22.9246 78.4522 23.3492 78.4099 23.7585 78.2248C23.3785 79.991 23.0464 81.7657 22.7594 83.5478C22.1852 81.5542 20.2349 79.067 18.3943 79.8582C15.1281 81.2624 11.2886 79.1055 10.866 80.0487C10.7561 80.2941 10.8471 80.5471 10.9524 80.8217C11.7985 83.0312 14.1356 85.172 17.3446 86.3089C19.8632 87.2011 20.9287 86.7699 21.1995 86.649C21.379 86.5689 21.9713 86.3215 22.4124 85.8623C22.0953 88.1523 21.8522 90.454 21.681 92.7657C21 91.2788 19.0819 89.7123 17.2862 88.9047C14.1364 87.488 10.0167 87.7983 9.55915 89.1002C9.46766 89.3605 9.53983 89.6118 9.64775 89.8936C10.5164 92.1614 12.915 94.3587 16.2088 95.5256C18.7939 96.4414 19.8875 95.9988 20.1655 95.8747C20.3685 95.7841 21.0857 95.4845 21.5431 94.9155C21.4845 95.9842 21.4393 97.0546 21.4107 98.1271C21.4025 98.4326 21.3977 98.738 21.3918 99.0435C21.3547 99.1035 21.3223 99.1649 21.3008 99.2291C21.2125 99.4911 21.2726 99.7432 21.3762 100.019C21.3739 100.213 21.3727 100.407 21.3714 100.601C20.7951 100.078 20.1077 99.2927 19.2808 98.1734C18.5347 97.1635 17.8262 97.9045 17.3711 98.7644C16.6576 98.6055 15.977 98.7039 15.4418 99.2039C11.8525 102.557 7.82684 100.778 7.76989 101.778C7.75346 102.066 7.90797 102.296 8.10274 102.544C9.6699 104.546 12.7465 106.007 16.4015 106.161C19.2701 106.282 20.2282 105.502 20.4681 105.292C20.5524 105.219 20.7413 105.06 20.9459 104.836C21.1102 104.967 21.2701 105.086 21.4304 105.195C21.4935 107.114 21.6064 109.031 21.7738 110.945C21.6377 110.957 21.5076 110.979 21.4107 110.989C20.0212 111.131 19.553 109.256 17.454 108.571C16.7569 108.344 15.414 108.096 14.7063 108.571C14.6043 108.64 14.2566 108.897 13.7171 109.121C13.3982 109.253 13.1545 109.314 13.0576 109.341C12.1964 109.576 11.3988 110.223 10.8595 110.659C9.84576 111.481 9.33894 111.892 9.10095 112.638C9.02609 112.873 8.81543 113.533 9.10095 114.177C9.23587 114.481 9.54899 114.933 10.7496 115.386C11.4631 115.655 13.5444 116.44 16.0251 115.605C16.5901 115.415 16.1589 115.483 18.3332 114.396C20.0439 113.541 21.0444 113.132 21.1908 112.308C21.2423 112.018 21.1904 111.665 21.4107 111.539C21.5331 111.469 21.681 111.503 21.8287 111.556C21.9727 113.094 22.1524 114.63 22.3703 116.163H20.4128C17.8135 116.163 15.4817 117.61 14.3275 119.939L7.00546 134.71C6.54321 135.643 6.29883 136.686 6.29883 137.727V175.71C6.29883 179.456 9.34567 182.502 13.0908 182.502H30.1815C33.9266 182.502 36.9734 179.456 36.9734 175.71V140.735C36.9734 139.882 36.8154 139.047 36.5039 138.253L29.5256 120.474C28.6792 118.317 26.8461 116.792 24.6549 116.32C25.3577 115.486 26.0617 114.654 26.7711 113.824C27.6644 114.255 28.647 114.609 29.7035 114.857C32.4986 115.514 33.5859 114.929 33.861 114.768C34.1237 114.614 35.2624 113.989 35.4554 112.947C35.4761 112.835 35.4841 112.722 35.4826 112.609C38.3456 114.936 39.8391 116.083 40.9303 115.701C41.8684 115.372 42.4039 114.294 42.7106 113.327C43.0309 113.371 43.3705 113.417 43.7325 113.465C47.6536 113.989 49.6296 114.232 50.3854 113.303C51.4315 112.018 50.4386 109.539 50.165 108.856C49.5702 107.371 48.6552 106.468 48.0867 105.919C47.3487 105.205 45.245 103.171 41.9331 102.9C41.2132 102.841 40.5664 102.886 39.9075 103.024C39.6779 102.814 39.4356 102.608 39.1688 102.413C38.6604 102.04 38.1584 101.764 37.6181 101.549C38.447 100.641 39.2781 99.7354 40.1132 98.8338C40.2455 98.8939 40.371 98.952 40.4863 99.0056C43.2221 100.276 43.8231 101.52 46.4541 102.175C47.6477 102.473 48.9991 102.809 49.3335 102.303C49.9278 101.405 47.4052 97.7074 43.507 95.2059C43.7699 94.9276 44.0334 94.6502 44.2968 94.3727C44.6533 94.5221 44.9674 94.6679 45.235 94.7922C47.9707 96.0628 48.5718 97.307 51.2028 97.962C52.3963 98.2592 53.7477 98.5956 54.0823 98.0898C54.6125 97.2881 52.6613 94.2574 49.4659 91.8365C50.3436 91.5577 51.5075 91.2488 53.0147 91.2884C55.3008 91.3485 57.0865 92.1778 58.1466 92.6702C60.8824 93.9408 61.4835 95.1851 64.1144 95.8401C65.308 96.1373 66.6593 96.4737 66.9939 95.9679C67.8773 94.632 61.8766 87.1058 54.6983 86.5281C54.1412 86.4832 53.6403 86.487 53.1875 86.5205C53.125 86.4168 53.0571 86.3104 52.9855 86.2022C55.4142 86.2802 60.1574 85.5858 64.1945 88.4203C65.3586 89.2375 67.62 91.1601 71.4046 92.7396C72.6143 93.2445 73.2225 93.4927 73.39 93.2854C73.9897 92.5433 69.0035 86.4362 61.9886 83.4276C59.2073 82.2348 57.4889 82.1219 56.2666 82.3026C56.455 82.0878 56.6386 81.8662 56.8153 81.6436C59.5468 78.9646 62.3128 76.3136 65.1037 73.6982C64.9685 74.116 64.9731 74.3383 65.1204 74.5005ZM30.0667 107.844C26.9814 106.845 23.2455 107.382 22.2713 108.518C22.134 107.511 22.0146 106.502 21.9162 105.492C23.3218 106.277 24.7885 106.487 27.5706 106.858C28.7556 107.017 29.7602 107.148 30.6099 107.231C30.724 107.54 30.8457 107.818 30.9869 108.085C31.0033 108.116 31.0209 108.145 31.0376 108.176L31.0129 108.204C30.6961 108.066 30.3787 107.945 30.0667 107.844ZM21.8695 94.3126C21.9575 94.0207 21.9593 93.7098 21.8921 93.3893C21.9881 92.2282 22.108 91.0707 22.2498 89.9167C22.2461 90.0933 22.3022 90.2701 22.3785 90.4617C23.2362 92.6159 25.5538 94.6835 28.7129 95.7561C29.3022 95.9562 29.8077 96.0824 30.2431 96.1595C30.0515 96.4933 29.9048 96.8186 29.8075 97.1195C28.7305 96.2543 27.3442 95.6252 25.7712 96.2927C25.3432 96.4743 25.0891 97.1388 24.8684 97.9334C23.4153 97.9585 22.201 98.2617 21.6227 98.7746C21.6258 98.5606 21.6247 98.3472 21.6305 98.1329C21.663 96.9116 21.7232 95.6942 21.8081 94.4807C21.8312 94.4263 21.8521 94.3705 21.8695 94.3126ZM21.6268 100.594C21.6894 100.723 21.758 100.85 21.8293 100.977C21.7646 100.93 21.6985 100.879 21.6305 100.823C21.6287 100.747 21.6282 100.671 21.6268 100.594ZM24.1078 116.226C23.9387 116.204 23.7679 116.188 23.5956 116.178C23.1978 114.203 22.8305 112.23 22.5231 110.253C23.3315 111.536 24.651 112.71 26.3318 113.601C25.5859 114.474 24.8463 115.349 24.1078 116.226ZM37.1297 101.374C36.0776 101.036 34.8429 100.874 33.1342 100.676C32.7011 100.074 32.2548 99.6306 31.9248 99.3116C31.7461 99.1388 31.4717 98.796 31.1163 98.395C32.0373 98.0994 33.4119 97.5727 35.3544 97.6238C37.1197 97.6702 38.5848 98.175 39.6496 98.6294C38.8062 99.5407 37.9669 100.456 37.1297 101.374ZM43.0926 94.9473C42.0588 94.3225 40.9375 93.7876 39.7571 93.4116C39.8718 93.4106 39.9841 93.4072 40.1031 93.4104C41.5669 93.4488 42.8241 93.8028 43.8184 94.1816C43.5764 94.4368 43.3341 94.6915 43.0926 94.9473Z" fill="#CCCCCC"/>
</g>
<defs>
<clipPath id="clip0_120_218">
<rect width="235.903" height="188" fill="white" transform="translate(0.0483398)"/>
</clipPath>
</defs>
</svg>
