<svg width="524" height="399" viewBox="0 0 524 399" fill="none" xmlns="http://www.w3.org/2000/svg">
<g clip-path="url(#clip0_9_37)">
<path d="M317.736 120.218C318.388 120.248 319.033 120.077 319.585 119.728C320.136 119.378 320.567 118.868 320.819 118.266C321.071 117.664 321.131 116.999 320.992 116.361C320.854 115.724 320.522 115.144 320.043 114.701C319.963 114.382 319.905 114.153 319.825 113.834C319.854 113.765 319.882 113.695 319.911 113.626C322.842 106.638 332.773 106.687 335.678 113.684C338.257 119.895 341.54 126.117 342.349 132.684C342.705 135.587 342.555 138.529 341.905 141.38C347.962 128.168 351.107 113.808 351.127 99.2738C351.128 95.6266 350.926 91.9822 350.52 88.3576C350.185 85.3862 349.72 82.4359 349.125 79.5068C345.879 63.6138 338.909 48.7175 328.787 36.0413C323.889 33.3684 319.927 29.2582 317.436 24.2644C316.534 22.4694 315.896 20.5531 315.543 18.5753C316.096 18.6478 317.627 10.2318 317.21 9.71546C317.98 8.54687 319.358 7.96597 320.199 6.82566C324.382 1.15444 330.145 2.14467 333.154 9.8514C339.581 13.0951 339.643 18.4746 335.699 23.6484C333.191 26.94 332.846 31.3939 330.644 34.9178C330.871 35.2078 331.107 35.4886 331.333 35.7785C335.473 41.1021 339.081 46.8186 342.106 52.846C341.251 46.161 342.514 38.1074 344.668 32.9159C347.12 27.0007 351.716 22.019 355.763 16.9054C360.624 10.7631 370.593 13.4437 371.45 21.23C371.458 21.3054 371.466 21.3807 371.474 21.4561C370.873 21.7952 370.284 22.1552 369.709 22.536C368.985 23.0192 368.425 23.7097 368.101 24.5169C367.776 25.3241 367.704 26.2105 367.892 27.0597C368.08 27.909 368.52 28.6817 369.155 29.2764C369.79 29.8712 370.589 30.2603 371.449 30.3929L371.537 30.4064C371.323 32.573 370.945 34.7202 370.405 36.8294C375.597 56.9085 364.388 64.2217 348.382 64.5502C348.029 64.7314 347.685 64.9126 347.331 65.0847C350.37 73.6974 352.277 82.6686 353.002 91.7728C353.413 97.144 353.389 102.54 352.93 107.907L352.957 107.717C354.117 101.748 357.301 96.3632 361.971 92.4704C368.908 86.7722 378.708 84.6738 386.191 80.0936C389.793 77.8888 394.409 80.738 393.781 84.9144C393.771 84.981 393.761 85.0477 393.75 85.1144C392.635 85.5687 391.548 86.0922 390.498 86.6816C389.897 87.0208 389.308 87.3807 388.733 87.7615C388.009 88.2447 387.449 88.9352 387.125 89.7424C386.801 90.5496 386.728 91.436 386.916 92.2853C387.104 93.1346 387.544 93.9072 388.179 94.502C388.814 95.0967 389.614 95.4859 390.473 95.6184L390.561 95.632C390.625 95.641 390.679 95.6501 390.743 95.6592C388.836 100.21 386.161 104.399 382.834 108.043C379.588 125.571 365.644 127.234 350.729 122.13H350.719C349.083 129.241 346.712 136.163 343.644 142.785H318.369C318.279 142.504 318.197 142.214 318.116 141.933C320.455 142.08 322.804 141.94 325.109 141.516C323.234 139.215 321.359 136.896 319.484 134.595C319.442 134.552 319.403 134.507 319.366 134.459C318.415 133.282 317.454 132.113 316.503 130.935L316.503 130.934C316.452 127.324 316.866 123.723 317.735 120.218L317.736 120.218Z" fill="#F2F2F2"/>
<path d="M398.886 55.534C394.186 38.3998 432.091 23.7069 442.045 37.5051C443.429 35.5434 448.544 34.3519 450.891 34.9537C453.237 35.5554 455.211 37.0598 457.137 38.5161C459.785 40.5501 462.529 42.6563 464.153 45.5808C465.79 48.4934 466.043 52.4651 463.841 54.9924C462.095 57.0023 456.944 58.3021 454.321 58.8317C452.491 59.2048 450.951 59.5057 449.627 59.7223C448.424 57.9898 447.87 55.8891 448.062 53.7889C447.171 54.39 446.424 55.1809 445.875 56.1047C445.326 57.0286 444.987 58.0626 444.885 59.1326C444.849 59.5779 459.676 114.134 459.676 114.134C457.895 115.148 456.021 115.99 454.08 116.649C450.24 110.781 447.299 104.371 445.354 97.6335C444.907 102.139 444.964 106.68 445.523 111.173C445.82 113.693 446.246 116.195 446.799 118.671C429.179 122.474 402.677 121.223 391.147 105.047C391.145 104.98 391.143 104.913 391.142 104.846C391.133 104.208 390.902 103.592 390.489 103.105C390.076 102.618 389.507 102.29 388.878 102.176C388.25 102.063 387.602 102.172 387.045 102.483C386.487 102.795 386.056 103.291 385.824 103.886C385.545 104.6 385.287 105.218 385.058 105.709C381.7 93.6979 386.044 79.7971 398.886 55.534Z" fill="#2F2E41"/>
<path d="M368.903 342.794V343.355C368.881 343.169 368.881 342.981 368.903 342.794Z" fill="#2F2E41"/>
<path d="M386.158 245.826C386.606 245.705 387.062 245.616 387.523 245.561C386.994 245.647 386.539 245.736 386.158 245.826Z" fill="#2F2E41"/>
<path d="M385.758 245.928C385.879 245.894 386.014 245.86 386.158 245.826C386.024 245.861 385.896 245.887 385.758 245.928Z" fill="#2F2E41"/>
<path d="M513.239 398.94H448.654C447.733 398.205 447.093 397.175 446.841 396.023C446.589 394.872 446.741 393.668 447.272 392.616C449.036 388.569 445.579 384.872 445.579 384.872C444.405 383.497 443.589 381.853 443.203 380.087C442.817 378.321 442.872 376.487 443.365 374.747C445.076 368.771 438.371 351.902 438.371 351.902C438.371 351.902 434.756 373.684 430.326 398.94H368.903C367.874 397.188 367.331 395.192 367.331 393.16C367.331 391.127 367.874 389.132 368.903 387.379C372.482 381.31 368.903 380.146 368.903 380.146C368.903 380.146 365.323 373.354 368.903 368.423C372.482 363.491 368.903 343.355 368.903 343.355C369.038 344.246 370.058 342.627 371.628 339.233C374.018 334.07 377.671 324.784 381.361 314.004C384 306.31 386.66 297.844 388.883 289.567H388.888C389.471 287.393 390.023 285.238 390.544 283.103C391.564 278.917 392.438 274.848 393.102 271.028C394.542 262.8 395.017 255.732 393.911 251.135C392.994 247.309 390.987 245.2 387.523 245.561C389.379 245.254 392.098 244.962 395.449 244.687C396.053 244.639 396.679 244.59 397.327 244.536C422.319 242.648 475.94 241.563 475.94 241.563L492.364 270.974L513.164 308.23C513.164 308.23 512.597 358.209 513.239 398.94Z" fill="#2F2E41"/>
<path d="M444.304 114.443L406.464 106.416L398.951 121.539L373.65 136.187C373.65 136.187 389.959 202.87 389.866 212.249C389.63 236.059 351.532 289.436 380.308 285.329C409.085 281.223 414.931 264.023 424.169 266.743C432.501 269.196 442.674 280.107 449.484 272.303C456.295 264.5 458.694 273.511 463.001 273.822C465.047 273.97 463.815 263.968 468.964 274.133C474.114 284.298 501.42 270.615 492.165 261.36C476.751 245.947 473.619 132.323 473.619 132.323L456.46 127.043L444.304 114.443Z" fill="#E6E6E6"/>
<path d="M372.935 356.606C374.456 354.793 375.208 352.458 375.034 350.099C374.859 347.739 373.771 345.541 372 343.972C371.635 343.658 371.245 343.376 370.833 343.127L377.16 312.077L362.534 303.323L358.466 346.795C357.566 348.581 357.282 350.616 357.66 352.58C358.038 354.545 359.055 356.329 360.553 357.654C361.413 358.4 362.411 358.97 363.491 359.33C364.571 359.69 365.711 359.834 366.847 359.754C367.982 359.673 369.091 359.37 370.109 358.861C371.128 358.352 372.036 357.648 372.782 356.788C372.834 356.728 372.885 356.667 372.935 356.606Z" fill="#A0616A"/>
<path d="M418.347 192.938C418.256 191.94 416.982 191.487 415.218 190.861C413.446 190.315 411.761 189.518 410.216 188.493C406.31 185.671 407.848 182.719 409.973 178.64C410.389 177.847 410.821 177.022 411.225 176.164C412.428 173.622 410.513 163.139 405.522 144.999C403.984 139.415 403.99 135.471 402.927 132.854C401.869 130.237 399.749 128.947 393.97 128.678C386.986 128.325 380.146 130.756 374.951 135.438C374.811 135.562 374.665 135.697 374.525 135.827C374.26 136.075 374.001 136.329 373.748 136.587C368.944 141.421 366.194 147.924 366.075 154.738L366.048 155.898L364.856 211.321L361.505 259.957L356.887 326.953L360.308 327.12L373.958 327.8L375.615 327.881L379.543 311.403L384.269 291.574L386.006 284.29L391.397 261.694L393.911 251.135L395.449 244.687L396.075 242.054L399.128 229.256C399.199 228.986 406.224 201.269 414.322 196.634C417.344 194.908 418.434 193.904 418.347 192.938Z" fill="#E6E6E6"/>
<path d="M509.215 356.276C507.509 354.637 506.509 352.396 506.43 350.032C506.35 347.667 507.196 345.365 508.788 343.614C509.117 343.263 509.475 342.941 509.857 342.649L500.232 312.458L513.834 302.184L522.547 344.967C523.634 346.647 524.134 348.639 523.969 350.633C523.805 352.626 522.985 354.51 521.638 355.988C520.863 356.822 519.932 357.496 518.897 357.97C517.862 358.444 516.744 358.71 515.606 358.752C514.468 358.793 513.334 358.611 512.267 358.214C511.2 357.818 510.221 357.215 509.387 356.44C509.329 356.386 509.272 356.332 509.215 356.276Z" fill="#A0616A"/>
<path d="M515.868 290.765C515.868 290.765 505.26 253.442 508.495 249.402C511.731 245.361 502.176 244.572 506.293 237.047C510.411 229.522 504.728 228.264 504.728 228.264L501.644 210.963L496.131 168.467L495.964 167.203L494.36 154.839C493.912 151.308 492.757 147.903 490.963 144.829C489.169 141.754 486.774 139.073 483.92 136.945C483.774 136.834 483.625 136.727 483.477 136.619C482.798 136.131 482.104 135.678 481.396 135.261C476.104 132.139 469.889 130.959 463.821 131.923C452.387 133.704 455.946 137.968 454.091 149.391C451.078 167.964 450.296 178.59 451.765 180.991C452.26 181.799 452.78 182.573 453.276 183.315C455.829 187.148 457.675 189.913 454.092 193.144C452.664 194.325 451.076 195.297 449.375 196.03C447.691 196.846 446.472 197.431 446.488 198.433C446.507 199.404 447.697 200.281 450.885 201.672C454.747 203.362 458.896 209.752 462.293 216.281C464.989 221.543 467.394 226.949 469.496 232.475L498.7 314.612L503.464 328.007L505.107 327.747L518.601 325.608L521.985 325.072L515.868 290.765Z" fill="#E6E6E6"/>
<path d="M428.339 105.849C445.389 105.849 459.21 92.0278 459.21 74.9782C459.21 57.9285 445.389 44.1071 428.339 44.1071C411.29 44.1071 397.468 57.9285 397.468 74.9782C397.468 92.0278 411.29 105.849 428.339 105.849Z" fill="#A0616A"/>
<path d="M382.036 57.9411C377.337 40.8069 415.241 26.114 425.195 39.9122C426.579 37.9505 431.694 36.759 434.041 37.3607C436.388 37.9625 438.362 39.4669 440.287 40.9232C442.935 42.9572 445.679 45.0633 447.304 47.9879C448.941 50.9004 449.193 54.8721 446.991 57.3995C445.246 59.4094 440.095 60.7092 437.471 61.2388C435.642 61.6119 434.101 61.9127 432.777 62.1294C431.575 60.3969 431.021 58.2962 431.213 56.196C430.322 56.7971 429.575 57.5879 429.025 58.5118C428.476 59.4357 428.138 60.4697 428.035 61.5396C427.999 61.9849 442.827 116.541 442.827 116.541C441.045 117.555 439.171 118.397 437.23 119.056C433.391 113.188 430.449 106.778 428.505 100.041C428.058 104.546 428.114 109.087 428.673 113.58C428.97 116.1 429.396 118.602 429.949 121.078C412.329 124.881 385.828 123.63 374.298 107.454C374.296 107.387 374.294 107.32 374.292 107.253C374.283 106.615 374.052 105.999 373.639 105.512C373.227 105.025 372.657 104.697 372.029 104.583C371.4 104.47 370.752 104.579 370.195 104.891C369.638 105.203 369.207 105.699 368.975 106.294C368.695 107.007 368.438 107.625 368.208 108.116C364.85 96.1049 369.195 82.2042 382.036 57.9411Z" fill="#2F2E41"/>
<path d="M228.935 164.614C228.283 164.644 227.637 164.473 227.086 164.124C226.534 163.775 226.104 163.264 225.852 162.662C225.6 162.06 225.54 161.395 225.678 160.758C225.817 160.12 226.149 159.54 226.628 159.097C226.708 158.778 226.766 158.549 226.846 158.23C226.817 158.161 226.788 158.091 226.759 158.022C223.829 151.035 213.898 151.083 210.992 158.081C208.413 164.292 205.13 170.513 204.322 177.08C203.966 179.983 204.116 182.925 204.766 185.777C198.709 172.564 195.564 158.204 195.544 143.67C195.542 140.023 195.745 136.378 196.151 132.754C196.486 129.782 196.951 126.832 197.546 123.903C200.792 108.01 207.762 93.1137 217.883 80.4375C222.782 77.7646 226.744 73.6544 229.234 68.6607C230.137 66.8656 230.774 64.9493 231.128 62.9715C230.575 63.044 229.044 54.628 229.461 54.1117C228.691 52.9431 227.312 52.3622 226.471 51.2219C222.288 45.5507 216.525 46.5409 213.517 54.2476C207.09 57.4913 207.028 62.8708 210.971 68.0446C213.48 71.3362 213.825 75.7901 216.026 79.3141C215.8 79.604 215.564 79.8848 215.338 80.1748C211.198 85.4983 207.589 91.2148 204.564 97.2422C205.42 90.5572 204.157 82.5036 202.003 77.3121C199.551 71.397 194.955 66.4152 190.908 61.3016C186.046 55.1593 176.078 57.8399 175.221 65.6262C175.213 65.7016 175.205 65.777 175.197 65.8523C175.798 66.1914 176.386 66.5514 176.962 66.9322C177.686 67.4154 178.246 68.1059 178.57 68.9131C178.894 69.7204 178.967 70.6067 178.779 71.456C178.591 72.3052 178.15 73.0779 177.516 73.6727C176.881 74.2674 176.081 74.6566 175.222 74.7891L175.134 74.8027C175.348 76.9693 175.726 79.1164 176.266 81.2256C171.074 101.305 182.283 108.618 198.288 108.946C198.642 109.128 198.986 109.309 199.339 109.481C196.3 118.094 194.394 127.065 193.668 136.169C193.258 141.54 193.282 146.936 193.741 152.303L193.714 152.113C192.554 146.145 189.37 140.759 184.7 136.867C177.763 131.168 167.963 129.07 160.48 124.49C156.877 122.285 152.261 125.134 152.89 129.311C152.9 129.377 152.91 129.444 152.921 129.511C154.036 129.965 155.122 130.488 156.173 131.078C156.774 131.417 157.362 131.777 157.938 132.158C158.661 132.641 159.222 133.331 159.546 134.139C159.87 134.946 159.943 135.832 159.755 136.681C159.567 137.531 159.126 138.303 158.492 138.898C157.857 139.493 157.057 139.882 156.197 140.015L156.109 140.028C156.046 140.037 155.992 140.046 155.928 140.055C157.834 144.607 160.51 148.796 163.837 152.439C167.083 169.967 181.027 171.63 195.942 166.526H195.951C197.588 173.637 199.959 180.56 203.026 187.181H228.301C228.392 186.9 228.473 186.61 228.555 186.329C226.215 186.476 223.867 186.336 221.561 185.913C223.437 183.612 225.312 181.292 227.187 178.991C227.229 178.948 227.268 178.903 227.305 178.855C228.256 177.678 229.216 176.509 230.167 175.332L230.168 175.33C230.219 171.72 229.804 168.119 228.935 164.615L228.935 164.614Z" fill="#F2F2F2"/>
<path d="M111.001 37.5058C110.427 38.8426 92.7393 38.6993 91.9292 39.8897C85.6833 49.0798 108.199 88.1812 101.953 97.3832L101.083 98.4202C103.12 97.4811 105.078 96.3769 106.935 95.1184C107.102 91.3519 107.269 87.5733 107.448 83.8067C109.318 86.2 110.828 88.8544 111.929 91.6856C113.384 90.6605 114.577 88.7602 120.81 85.0225C123.333 82.2505 126.242 79.8559 129.447 77.9122L111.001 37.5058Z" fill="#2F2E41"/>
<path d="M123.845 112.823C121.893 111.552 119.666 110.764 117.349 110.526C115.031 110.287 112.691 110.605 110.521 111.452C108.351 112.299 106.414 113.652 104.872 115.397C103.329 117.143 102.225 119.231 101.651 121.489L74.772 191.524L28.5701 165.294C28.3672 162.279 27.2147 159.406 25.2779 157.087C23.3411 154.767 20.7195 153.121 17.7891 152.383C14.8587 151.646 11.77 151.855 8.96606 152.982C6.16211 154.109 3.78695 156.094 2.18123 158.654C0.575515 161.214 -0.178266 164.216 0.0280019 167.231C0.23427 170.246 1.38999 173.118 3.3294 175.435C5.26882 177.752 7.89228 179.396 10.8235 180.13C13.7548 180.864 16.8432 180.651 19.6459 179.521C29.3756 189.906 71.5575 232.482 89.0205 215.846C103.699 201.864 124.882 147.671 129.981 128.957C130.798 125.964 130.644 122.79 129.541 119.891C128.438 116.991 126.444 114.517 123.845 112.823Z" fill="#FFB6B6"/>
<path d="M73.373 218.781L81.8552 257.12L143.88 262.73L149.58 229.348L73.373 218.781Z" fill="#FFB6B6"/>
<path d="M168.117 317.095C168.089 317.645 168.055 318.188 168.015 318.738C167.42 326.682 166.74 335.844 166.004 345.884C164.842 361.817 163.545 379.959 162.236 398.94H32.1387L57.3696 323.103C57.3696 323.103 67.5573 317.494 62.3706 308.072C57.184 298.649 67.3894 306.158 67.4844 292.701C67.5793 279.244 76.7244 264.928 76.7244 264.928L78.2259 244.553L79.0815 244.57L146.785 245.698L148.02 245.72L150.099 263.211C162.725 278.236 169.166 297.498 168.117 317.095Z" fill="#2F2E41"/>
<path d="M112.085 94.2436L142.957 92.6532L157.297 115.311C157.297 115.311 184.277 119.822 182.407 151.615C180.537 183.408 149.58 211.306 149.58 211.306L150.903 206.769L148.605 213.336L148.9 217.023L152.035 220.928L152.358 224.967L149.58 231.356C149.941 231.935 150.133 232.604 150.133 233.286C150.134 233.969 149.943 234.638 149.582 235.217C149.222 235.797 148.706 236.264 148.094 236.565C147.482 236.866 146.797 236.99 146.118 236.922L101.51 232.451C100.494 229.657 99.6792 226.315 95.6082 231.879L91.406 231.472L73.9374 229.78L72.9092 226.034C72.325 223.906 72.234 221.673 72.643 219.504C73.0521 217.335 73.9505 215.288 75.2698 213.519C73.7525 208.768 74.1499 203.612 76.3774 199.149L76.461 198.982L78.316 197.436C78.316 197.436 58.0209 166.945 81.3191 143.98L90.6699 128.084L101.133 115.319L112.085 94.2436Z" fill="#F48E1E"/>
<path d="M119.768 80.8684C135.937 80.8684 149.044 67.7612 149.044 51.5927C149.044 35.4241 135.937 22.3169 119.768 22.3169C103.6 22.3169 90.4927 35.4241 90.4927 51.5927C90.4927 67.7612 103.6 80.8684 119.768 80.8684Z" fill="#FFB6B6"/>
<path d="M142.003 93.7665C139.619 91.7745 137.96 89.0508 137.283 86.0187C136.742 89.7002 136.883 93.4499 137.7 97.0801C136.115 98.2721 134.577 99.4045 133.123 100.43C132.022 97.5984 130.512 94.9439 128.641 92.5507C128.463 96.3172 128.296 100.096 128.129 103.862C126.271 105.121 124.314 106.225 122.276 107.164L123.146 106.127C129.392 96.9252 113.229 79.9874 119.475 70.7973C121.227 68.2226 113.313 47.8759 107.281 46.958C101.918 46.1475 102.144 47.697 96.9471 48.8294C96.4074 46.5786 95.5696 44.4099 94.4559 42.3809C94.7524 44.6418 94.684 46.9358 94.2533 49.1751C92.4058 49.2466 90.9522 48.0694 88.9848 47.7686C76.4334 45.8495 77.7088 32.2731 81.2013 27.9701C84.7056 23.679 96.3392 22.3917 101.703 20.997C102.192 20.5203 103.3 20.8183 103.789 20.3653C114.069 10.9577 127.817 9.39972 140.189 13.5694C153.383 18.016 161.609 26.6222 165.831 39.8897L167.042 50.5071C168.128 53.9209 166.761 69.8052 165.831 73.2647C162.213 86.7125 154.509 79.9993 142.003 93.7665Z" fill="#2F2E41"/>
<path d="M184.69 232.467L183.538 142.704C183.478 138.901 181.925 135.275 179.214 132.607C176.504 129.938 172.853 128.443 169.05 128.443C167.082 128.443 165.135 128.844 163.327 129.621C161.52 130.398 159.889 131.535 158.535 132.963C157.182 134.39 156.133 136.079 155.453 137.925C154.773 139.771 154.476 141.737 154.58 143.701L158.636 236.907L158.713 293.646C156.322 294.66 154.302 296.384 152.926 298.586C151.55 300.788 150.886 303.36 151.022 305.953C151.159 308.546 152.091 311.034 153.691 313.079C155.291 315.124 157.482 316.626 159.965 317.383C162.449 318.139 165.106 318.113 167.574 317.307C170.042 316.501 172.202 314.955 173.761 312.878C175.32 310.802 176.202 308.296 176.287 305.701C176.372 303.106 175.656 300.548 174.237 298.374L184.69 232.467Z" fill="#FFB6B6"/>
<path d="M335.785 348.6C335.785 348.6 334.003 380.659 333.184 398.943H271.817C270.554 382.303 270.129 370.079 270.129 370.079L266.771 398.943H204.742L200.896 345.486L219.48 299.42C219.48 299.42 320.19 292.436 329.532 301.296C338.868 310.15 335.785 348.6 335.785 348.6Z" fill="#2F2E41"/>
<path d="M281.519 78.9162C300.032 78.9162 315.04 63.9087 315.04 45.3959C315.04 26.8831 300.032 11.8756 281.519 11.8756C263.007 11.8756 247.999 26.8831 247.999 45.3959C247.999 63.9087 263.007 78.9162 281.519 78.9162Z" fill="#FFB6B6"/>
<path d="M320.59 34.5039C317.147 36.0738 314.917 47.4441 312.211 44.8007C309.504 42.1574 309.685 38.7175 306.037 37.7419C303.09 36.9508 299.92 37.855 297.232 39.281C296.752 39.5326 296.287 39.8062 295.834 40.0783C295.534 39.8783 295.236 39.6902 294.917 39.5166C292.513 38.2301 289.707 37.9146 287.078 38.6348C289.155 39.3308 290.962 40.6623 292.242 42.4411C291.342 43.0439 290.431 43.6482 289.499 44.1836C281.714 48.6763 270.636 38.9072 262.442 35.2372C267.575 44.8693 265.047 48.8584 260.591 58.8201L260.437 59.3873C260.69 56.8906 252.964 55.03 253.412 58.5446C253.73 61.0399 255.89 66.5864 257.099 68.7896C248.484 58.8275 242.596 46.6367 243.838 34.0608C244.109 31.419 244.027 28.6316 245.39 26.3387C246.754 24.0576 249.598 22.4568 252.113 23.3267C251.9 19.3161 252.778 15.3227 254.653 11.7711C256.528 8.21941 259.331 5.24226 262.763 3.15612C266.195 1.06999 270.128 -0.0471579 274.144 -0.076553C278.16 -0.105948 282.109 0.953513 285.571 2.98919C288.788 4.87688 291.474 7.54667 294.422 9.84958C297.371 12.1525 300.77 14.1598 304.509 14.3499C306.88 14.4643 309.462 13.8853 311.499 15.1137C313.86 16.5392 314.264 19.5235 314.618 22.3953C312.513 22.6028 310.517 23.4334 308.886 24.7808C311.064 24.5586 313.257 25.0289 315.153 26.125C315.189 26.1413 315.223 26.1608 315.256 26.1833C316.504 30.9293 316.376 31.9814 320.59 34.5039Z" fill="#2F2E41"/>
<path d="M204.89 315.637C233.435 282.224 223.794 239.726 212.464 196.826L214.62 133.45C214.726 130.341 215.578 127.303 217.105 124.593C218.632 121.883 220.788 119.58 223.392 117.879L252.534 98.8407L263.876 82.4417L295.141 85.5682L312.478 103.903L331.669 118.554C336.487 122.232 340.154 127.212 342.236 132.905C344.318 138.599 344.728 144.769 343.42 150.688L325.055 233.74C325.055 233.74 332.736 276.795 328.049 281.551C323.362 286.306 311.286 281.553 320.862 286.891C332.355 293.297 342.805 292.115 336.989 297.931C331.173 303.747 338.534 311.832 338.534 311.832L204.89 315.637Z" fill="#F48E1E"/>
<path d="M217.095 364.198L221.853 330.294L202.865 324.873L199.109 360.897C197.537 362.338 196.399 364.189 195.822 366.241C195.244 368.294 195.251 370.467 195.841 372.515C196.431 374.564 197.58 376.408 199.161 377.839C200.741 379.271 202.689 380.233 204.786 380.618C206.883 381.002 209.046 380.795 211.031 380.018C213.017 379.241 214.746 377.925 216.025 376.219C217.304 374.513 218.081 372.484 218.27 370.361C218.459 368.237 218.052 366.103 217.095 364.198Z" fill="#FFB6B6"/>
<path d="M253.246 104.952C253.246 104.952 199.196 122.544 197.907 135.415C196.618 148.287 197.046 156.166 191.341 207.672L191.642 346.415C191.642 346.415 227.879 354.174 224.163 345.879C220.446 337.583 221.743 333.681 221.743 333.681C221.743 333.681 229.512 330.615 227.568 320.875C225.623 311.135 235.376 262.867 235.376 262.867L241.531 176.302L253.246 104.952Z" fill="#F48E1E"/>
<path d="M319.89 362.402L317.358 328.26L336.66 324.092L338.053 360.285C339.527 361.825 340.542 363.746 340.984 365.832C341.426 367.918 341.278 370.085 340.555 372.091C339.833 374.097 338.565 375.862 336.894 377.187C335.224 378.512 333.217 379.345 331.099 379.591C328.982 379.838 326.837 379.49 324.907 378.584C322.976 377.679 321.337 376.254 320.172 374.468C319.008 372.682 318.364 370.607 318.314 368.475C318.265 366.344 318.81 364.24 319.89 362.402Z" fill="#FFB6B6"/>
<path d="M300.762 101.348C300.762 101.348 353.547 122.435 353.991 135.363C354.436 148.291 353.494 156.126 355.82 207.895L346.451 346.322C346.451 346.322 309.785 351.695 314.035 343.66C318.286 335.626 317.247 331.646 317.247 331.646C317.247 331.646 309.695 328.079 312.272 318.487C314.849 308.895 308.272 260.093 308.272 260.093L307.788 173.311L300.762 101.348Z" fill="#F48E1E"/>
</g>
<defs>
<clipPath id="clip0_9_37">
<rect width="524" height="398.943" fill="white"/>
</clipPath>
</defs>
</svg>
