<svg width="276" height="188" viewBox="0 0 276 188" fill="none" xmlns="http://www.w3.org/2000/svg">
<g clip-path="url(#clip0_120_128)">
<path d="M62.7284 4.88547C64.0775 4.88547 65.1711 3.79182 65.1711 2.44274C65.1711 1.09365 64.0775 0 62.7284 0C61.3793 0 60.2856 1.09365 60.2856 2.44274C60.2856 3.79182 61.3793 4.88547 62.7284 4.88547Z" fill="#E6E6E6"/>
<path d="M75.0936 4.88547C76.4427 4.88547 77.5364 3.79182 77.5364 2.44274C77.5364 1.09365 76.4427 0 75.0936 0C73.7445 0 72.6509 1.09365 72.6509 2.44274C72.6509 3.79182 73.7445 4.88547 75.0936 4.88547Z" fill="#E6E6E6"/>
<path d="M87.4589 4.88547C88.8079 4.88547 89.9016 3.79182 89.9016 2.44274C89.9016 1.09365 88.8079 0 87.4589 0C86.1098 0 85.0161 1.09365 85.0161 2.44274C85.0161 3.79182 86.1098 4.88547 87.4589 4.88547Z" fill="#E6E6E6"/>
<path d="M99.8236 4.88547C101.173 4.88547 102.266 3.79182 102.266 2.44274C102.266 1.09365 101.173 0 99.8236 0C98.4745 0 97.3809 1.09365 97.3809 2.44274C97.3809 3.79182 98.4745 4.88547 99.8236 4.88547Z" fill="#E6E6E6"/>
<path d="M112.189 4.88547C113.538 4.88547 114.632 3.79182 114.632 2.44274C114.632 1.09365 113.538 0 112.189 0C110.84 0 109.746 1.09365 109.746 2.44274C109.746 3.79182 110.84 4.88547 112.189 4.88547Z" fill="#E6E6E6"/>
<path d="M62.7284 17.4057C64.0775 17.4057 65.1711 16.3121 65.1711 14.963C65.1711 13.6139 64.0775 12.5203 62.7284 12.5203C61.3793 12.5203 60.2856 13.6139 60.2856 14.963C60.2856 16.3121 61.3793 17.4057 62.7284 17.4057Z" fill="#E6E6E6"/>
<path d="M75.0936 17.4057C76.4427 17.4057 77.5364 16.3121 77.5364 14.963C77.5364 13.6139 76.4427 12.5203 75.0936 12.5203C73.7445 12.5203 72.6509 13.6139 72.6509 14.963C72.6509 16.3121 73.7445 17.4057 75.0936 17.4057Z" fill="#E6E6E6"/>
<path d="M87.4589 17.4057C88.8079 17.4057 89.9016 16.3121 89.9016 14.963C89.9016 13.6139 88.8079 12.5203 87.4589 12.5203C86.1098 12.5203 85.0161 13.6139 85.0161 14.963C85.0161 16.3121 86.1098 17.4057 87.4589 17.4057Z" fill="#E6E6E6"/>
<path d="M99.8236 17.4057C101.173 17.4057 102.266 16.3121 102.266 14.963C102.266 13.6139 101.173 12.5203 99.8236 12.5203C98.4745 12.5203 97.3809 13.6139 97.3809 14.963C97.3809 16.3121 98.4745 17.4057 99.8236 17.4057Z" fill="#F48E1E"/>
<path d="M112.189 17.4057C113.538 17.4057 114.632 16.3121 114.632 14.963C114.632 13.6139 113.538 12.5203 112.189 12.5203C110.84 12.5203 109.746 13.6139 109.746 14.963C109.746 16.3121 110.84 17.4057 112.189 17.4057Z" fill="#E6E6E6"/>
<path d="M136.919 17.4057C138.268 17.4057 139.362 16.3121 139.362 14.963C139.362 13.6139 138.268 12.5203 136.919 12.5203C135.57 12.5203 134.476 13.6139 134.476 14.963C134.476 16.3121 135.57 17.4057 136.919 17.4057Z" fill="#E6E6E6"/>
<path d="M62.7284 29.9261C64.0775 29.9261 65.1711 28.8324 65.1711 27.4833C65.1711 26.1342 64.0775 25.0406 62.7284 25.0406C61.3793 25.0406 60.2856 26.1342 60.2856 27.4833C60.2856 28.8324 61.3793 29.9261 62.7284 29.9261Z" fill="#E6E6E6"/>
<path d="M75.0936 29.9261C76.4427 29.9261 77.5364 28.8324 77.5364 27.4833C77.5364 26.1342 76.4427 25.0406 75.0936 25.0406C73.7445 25.0406 72.6509 26.1342 72.6509 27.4833C72.6509 28.8324 73.7445 29.9261 75.0936 29.9261Z" fill="#E6E6E6"/>
<path d="M87.4589 29.9261C88.8079 29.9261 89.9016 28.8324 89.9016 27.4833C89.9016 26.1342 88.8079 25.0406 87.4589 25.0406C86.1098 25.0406 85.0161 26.1342 85.0161 27.4833C85.0161 28.8324 86.1098 29.9261 87.4589 29.9261Z" fill="#E6E6E6"/>
<path d="M99.8236 29.9261C101.173 29.9261 102.266 28.8324 102.266 27.4833C102.266 26.1342 101.173 25.0406 99.8236 25.0406C98.4745 25.0406 97.3809 26.1342 97.3809 27.4833C97.3809 28.8324 98.4745 29.9261 99.8236 29.9261Z" fill="#E6E6E6"/>
<path d="M112.189 29.9261C113.538 29.9261 114.632 28.8324 114.632 27.4833C114.632 26.1342 113.538 25.0406 112.189 25.0406C110.84 25.0406 109.746 26.1342 109.746 27.4833C109.746 28.8324 110.84 29.9261 112.189 29.9261Z" fill="#E6E6E6"/>
<path d="M62.7284 42.4463C64.0775 42.4463 65.1711 41.3527 65.1711 40.0036C65.1711 38.6545 64.0775 37.5609 62.7284 37.5609C61.3793 37.5609 60.2856 38.6545 60.2856 40.0036C60.2856 41.3527 61.3793 42.4463 62.7284 42.4463Z" fill="#E6E6E6"/>
<path d="M75.0936 42.4463C76.4427 42.4463 77.5364 41.3527 77.5364 40.0036C77.5364 38.6545 76.4427 37.5609 75.0936 37.5609C73.7445 37.5609 72.6509 38.6545 72.6509 40.0036C72.6509 41.3527 73.7445 42.4463 75.0936 42.4463Z" fill="#E6E6E6"/>
<path d="M87.4589 42.4463C88.8079 42.4463 89.9016 41.3527 89.9016 40.0036C89.9016 38.6545 88.8079 37.5609 87.4589 37.5609C86.1098 37.5609 85.0161 38.6545 85.0161 40.0036C85.0161 41.3527 86.1098 42.4463 87.4589 42.4463Z" fill="#E6E6E6"/>
<path d="M99.8236 42.4463C101.173 42.4463 102.266 41.3527 102.266 40.0036C102.266 38.6545 101.173 37.5609 99.8236 37.5609C98.4745 37.5609 97.3809 38.6545 97.3809 40.0036C97.3809 41.3527 98.4745 42.4463 99.8236 42.4463Z" fill="#E6E6E6"/>
<path d="M112.189 42.4463C113.538 42.4463 114.632 41.3527 114.632 40.0036C114.632 38.6545 113.538 37.5609 112.189 37.5609C110.84 37.5609 109.746 38.6545 109.746 40.0036C109.746 41.3527 110.84 42.4463 112.189 42.4463Z" fill="#E6E6E6"/>
<path d="M124.554 42.4463C125.903 42.4463 126.997 41.3527 126.997 40.0036C126.997 38.6545 125.903 37.5609 124.554 37.5609C123.205 37.5609 122.111 38.6545 122.111 40.0036C122.111 41.3527 123.205 42.4463 124.554 42.4463Z" fill="#E6E6E6"/>
<path d="M136.919 42.4463C138.268 42.4463 139.362 41.3527 139.362 40.0036C139.362 38.6545 138.268 37.5609 136.919 37.5609C135.57 37.5609 134.476 38.6545 134.476 40.0036C134.476 41.3527 135.57 42.4463 136.919 42.4463Z" fill="#E6E6E6"/>
<path d="M149.284 42.4463C150.633 42.4463 151.727 41.3527 151.727 40.0036C151.727 38.6545 150.633 37.5609 149.284 37.5609C147.935 37.5609 146.841 38.6545 146.841 40.0036C146.841 41.3527 147.935 42.4463 149.284 42.4463Z" fill="#E6E6E6"/>
<path d="M161.649 42.4463C162.998 42.4463 164.092 41.3527 164.092 40.0036C164.092 38.6545 162.998 37.5609 161.649 37.5609C160.3 37.5609 159.207 38.6545 159.207 40.0036C159.207 41.3527 160.3 42.4463 161.649 42.4463Z" fill="#E6E6E6"/>
<path d="M174.015 42.4463C175.364 42.4463 176.457 41.3527 176.457 40.0036C176.457 38.6545 175.364 37.5609 174.015 37.5609C172.665 37.5609 171.572 38.6545 171.572 40.0036C171.572 41.3527 172.665 42.4463 174.015 42.4463Z" fill="#E6E6E6"/>
<path d="M112.189 54.9667C113.538 54.9667 114.632 53.873 114.632 52.5239C114.632 51.1748 113.538 50.0812 112.189 50.0812C110.84 50.0812 109.746 51.1748 109.746 52.5239C109.746 53.873 110.84 54.9667 112.189 54.9667Z" fill="#E6E6E6"/>
<path d="M124.554 54.9667C125.903 54.9667 126.997 53.873 126.997 52.5239C126.997 51.1748 125.903 50.0812 124.554 50.0812C123.205 50.0812 122.111 51.1748 122.111 52.5239C122.111 53.873 123.205 54.9667 124.554 54.9667Z" fill="#F48E1E"/>
<path d="M136.919 54.9667C138.268 54.9667 139.362 53.873 139.362 52.5239C139.362 51.1748 138.268 50.0812 136.919 50.0812C135.57 50.0812 134.476 51.1748 134.476 52.5239C134.476 53.873 135.57 54.9667 136.919 54.9667Z" fill="#E6E6E6"/>
<path d="M149.284 54.9667C150.633 54.9667 151.727 53.873 151.727 52.5239C151.727 51.1748 150.633 50.0812 149.284 50.0812C147.935 50.0812 146.841 51.1748 146.841 52.5239C146.841 53.873 147.935 54.9667 149.284 54.9667Z" fill="#E6E6E6"/>
<path d="M161.649 54.9667C162.998 54.9667 164.092 53.873 164.092 52.5239C164.092 51.1748 162.998 50.0812 161.649 50.0812C160.3 50.0812 159.207 51.1748 159.207 52.5239C159.207 53.873 160.3 54.9667 161.649 54.9667Z" fill="#E6E6E6"/>
<path d="M174.015 54.9667C175.364 54.9667 176.457 53.873 176.457 52.5239C176.457 51.1748 175.364 50.0812 174.015 50.0812C172.665 50.0812 171.572 51.1748 171.572 52.5239C171.572 53.873 172.665 54.9667 174.015 54.9667Z" fill="#E6E6E6"/>
<path d="M112.189 67.4869C113.538 67.4869 114.632 66.3933 114.632 65.0442C114.632 63.6951 113.538 62.6014 112.189 62.6014C110.84 62.6014 109.746 63.6951 109.746 65.0442C109.746 66.3933 110.84 67.4869 112.189 67.4869Z" fill="#E6E6E6"/>
<path d="M124.554 67.4869C125.903 67.4869 126.997 66.3933 126.997 65.0442C126.997 63.6951 125.903 62.6014 124.554 62.6014C123.205 62.6014 122.111 63.6951 122.111 65.0442C122.111 66.3933 123.205 67.4869 124.554 67.4869Z" fill="#E6E6E6"/>
<path d="M136.919 67.4869C138.268 67.4869 139.362 66.3933 139.362 65.0442C139.362 63.6951 138.268 62.6014 136.919 62.6014C135.57 62.6014 134.476 63.6951 134.476 65.0442C134.476 66.3933 135.57 67.4869 136.919 67.4869Z" fill="#E6E6E6"/>
<path d="M149.284 67.4869C150.633 67.4869 151.727 66.3933 151.727 65.0442C151.727 63.6951 150.633 62.6014 149.284 62.6014C147.935 62.6014 146.841 63.6951 146.841 65.0442C146.841 66.3933 147.935 67.4869 149.284 67.4869Z" fill="#E6E6E6"/>
<path d="M161.649 67.4869C162.998 67.4869 164.092 66.3933 164.092 65.0442C164.092 63.6951 162.998 62.6014 161.649 62.6014C160.3 62.6014 159.207 63.6951 159.207 65.0442C159.207 66.3933 160.3 67.4869 161.649 67.4869Z" fill="#F48E1E"/>
<path d="M174.015 67.4869C175.364 67.4869 176.457 66.3933 176.457 65.0442C176.457 63.6951 175.364 62.6014 174.015 62.6014C172.665 62.6014 171.572 63.6951 171.572 65.0442C171.572 66.3933 172.665 67.4869 174.015 67.4869Z" fill="#E6E6E6"/>
<path d="M112.189 80.0073C113.538 80.0073 114.632 78.9137 114.632 77.5646C114.632 76.2155 113.538 75.1218 112.189 75.1218C110.84 75.1218 109.746 76.2155 109.746 77.5646C109.746 78.9137 110.84 80.0073 112.189 80.0073Z" fill="#E6E6E6"/>
<path d="M124.554 80.0073C125.903 80.0073 126.997 78.9137 126.997 77.5646C126.997 76.2155 125.903 75.1218 124.554 75.1218C123.205 75.1218 122.111 76.2155 122.111 77.5646C122.111 78.9137 123.205 80.0073 124.554 80.0073Z" fill="#E6E6E6"/>
<path d="M136.919 80.0073C138.268 80.0073 139.362 78.9137 139.362 77.5646C139.362 76.2155 138.268 75.1218 136.919 75.1218C135.57 75.1218 134.476 76.2155 134.476 77.5646C134.476 78.9137 135.57 80.0073 136.919 80.0073Z" fill="#E6E6E6"/>
<path d="M149.284 80.0073C150.633 80.0073 151.727 78.9137 151.727 77.5646C151.727 76.2155 150.633 75.1218 149.284 75.1218C147.935 75.1218 146.841 76.2155 146.841 77.5646C146.841 78.9137 147.935 80.0073 149.284 80.0073Z" fill="#E6E6E6"/>
<path d="M161.649 80.0073C162.998 80.0073 164.092 78.9137 164.092 77.5646C164.092 76.2155 162.998 75.1218 161.649 75.1218C160.3 75.1218 159.207 76.2155 159.207 77.5646C159.207 78.9137 160.3 80.0073 161.649 80.0073Z" fill="#E6E6E6"/>
<path d="M174.015 80.0073C175.364 80.0073 176.457 78.9137 176.457 77.5646C176.457 76.2155 175.364 75.1218 174.015 75.1218C172.665 75.1218 171.572 76.2155 171.572 77.5646C171.572 78.9137 172.665 80.0073 174.015 80.0073Z" fill="#E6E6E6"/>
<path d="M62.7284 92.5276C64.0775 92.5276 65.1711 91.4339 65.1711 90.0848C65.1711 88.7357 64.0775 87.6421 62.7284 87.6421C61.3793 87.6421 60.2856 88.7357 60.2856 90.0848C60.2856 91.4339 61.3793 92.5276 62.7284 92.5276Z" fill="#E6E6E6"/>
<path d="M75.0936 92.5276C76.4427 92.5276 77.5364 91.4339 77.5364 90.0848C77.5364 88.7357 76.4427 87.6421 75.0936 87.6421C73.7445 87.6421 72.6509 88.7357 72.6509 90.0848C72.6509 91.4339 73.7445 92.5276 75.0936 92.5276Z" fill="#E6E6E6"/>
<path d="M87.4589 92.5276C88.8079 92.5276 89.9016 91.4339 89.9016 90.0848C89.9016 88.7357 88.8079 87.6421 87.4589 87.6421C86.1098 87.6421 85.0161 88.7357 85.0161 90.0848C85.0161 91.4339 86.1098 92.5276 87.4589 92.5276Z" fill="#E6E6E6"/>
<path d="M99.8236 92.5276C101.173 92.5276 102.266 91.4339 102.266 90.0848C102.266 88.7357 101.173 87.6421 99.8236 87.6421C98.4745 87.6421 97.3809 88.7357 97.3809 90.0848C97.3809 91.4339 98.4745 92.5276 99.8236 92.5276Z" fill="#E6E6E6"/>
<path d="M112.189 92.5276C113.538 92.5276 114.632 91.4339 114.632 90.0848C114.632 88.7357 113.538 87.6421 112.189 87.6421C110.84 87.6421 109.746 88.7357 109.746 90.0848C109.746 91.4339 110.84 92.5276 112.189 92.5276Z" fill="#E6E6E6"/>
<path d="M124.554 92.5276C125.903 92.5276 126.997 91.4339 126.997 90.0848C126.997 88.7357 125.903 87.6421 124.554 87.6421C123.205 87.6421 122.111 88.7357 122.111 90.0848C122.111 91.4339 123.205 92.5276 124.554 92.5276Z" fill="#E6E6E6"/>
<path d="M136.919 92.5276C138.268 92.5276 139.362 91.4339 139.362 90.0848C139.362 88.7357 138.268 87.6421 136.919 87.6421C135.57 87.6421 134.476 88.7357 134.476 90.0848C134.476 91.4339 135.57 92.5276 136.919 92.5276Z" fill="#E6E6E6"/>
<path d="M149.284 92.5276C150.633 92.5276 151.727 91.4339 151.727 90.0848C151.727 88.7357 150.633 87.6421 149.284 87.6421C147.935 87.6421 146.841 88.7357 146.841 90.0848C146.841 91.4339 147.935 92.5276 149.284 92.5276Z" fill="#E6E6E6"/>
<path d="M161.649 92.5276C162.998 92.5276 164.092 91.4339 164.092 90.0848C164.092 88.7357 162.998 87.6421 161.649 87.6421C160.3 87.6421 159.207 88.7357 159.207 90.0848C159.207 91.4339 160.3 92.5276 161.649 92.5276Z" fill="#E6E6E6"/>
<path d="M174.015 92.5276C175.364 92.5276 176.457 91.4339 176.457 90.0848C176.457 88.7357 175.364 87.6421 174.015 87.6421C172.665 87.6421 171.572 88.7357 171.572 90.0848C171.572 91.4339 172.665 92.5276 174.015 92.5276Z" fill="#E6E6E6"/>
<path d="M62.7269 105.047C64.076 105.047 65.1696 103.954 65.1696 102.605C65.1696 101.256 64.076 100.162 62.7269 100.162C61.3778 100.162 60.2842 101.256 60.2842 102.605C60.2842 103.954 61.3778 105.047 62.7269 105.047Z" fill="#E6E6E6"/>
<path d="M75.0936 105.048C76.4427 105.048 77.5364 103.954 77.5364 102.605C77.5364 101.256 76.4427 100.162 75.0936 100.162C73.7445 100.162 72.6509 101.256 72.6509 102.605C72.6509 103.954 73.7445 105.048 75.0936 105.048Z" fill="#E6E6E6"/>
<path d="M62.7269 117.568C64.076 117.568 65.1696 116.474 65.1696 115.125C65.1696 113.776 64.076 112.682 62.7269 112.682C61.3778 112.682 60.2842 113.776 60.2842 115.125C60.2842 116.474 61.3778 117.568 62.7269 117.568Z" fill="#E6E6E6"/>
<path d="M75.0936 117.568C76.4427 117.568 77.5364 116.474 77.5364 115.125C77.5364 113.776 76.4427 112.683 75.0936 112.683C73.7445 112.683 72.6509 113.776 72.6509 115.125C72.6509 116.474 73.7445 117.568 75.0936 117.568Z" fill="#E6E6E6"/>
<path d="M99.8236 117.568C101.173 117.568 102.266 116.474 102.266 115.125C102.266 113.776 101.173 112.683 99.8236 112.683C98.4745 112.683 97.3809 113.776 97.3809 115.125C97.3809 116.474 98.4745 117.568 99.8236 117.568Z" fill="#E6E6E6"/>
<path d="M223.075 28.8194H126.274C125.799 28.8189 125.343 28.6298 125.007 28.2938C124.671 27.9577 124.482 27.5021 124.481 27.0268V3.0146C124.482 2.53934 124.671 2.0837 125.007 1.74765C125.343 1.41159 125.799 1.22254 126.274 1.22198H223.075C223.551 1.22254 224.006 1.41159 224.342 1.74765C224.678 2.0837 224.867 2.53934 224.868 3.0146V27.0268C224.867 27.5021 224.678 27.9577 224.342 28.2938C224.006 28.6298 223.551 28.8189 223.075 28.8194ZM126.274 1.93903C125.989 1.93934 125.716 2.05276 125.514 2.2544C125.312 2.45604 125.199 2.72943 125.198 3.0146V27.0268C125.199 27.312 125.312 27.5854 125.514 27.787C125.716 27.9887 125.989 28.1021 126.274 28.1024H223.075C223.36 28.1021 223.634 27.9887 223.835 27.787C224.037 27.5854 224.151 27.312 224.151 27.0268V3.0146C224.151 2.72943 224.037 2.45604 223.835 2.2544C223.634 2.05276 223.36 1.93934 223.075 1.93903H126.274Z" fill="#E6E6E6"/>
<path d="M138.822 22.5496C142.981 22.5496 146.351 19.1787 146.351 15.0206C146.351 10.8625 142.981 7.49164 138.822 7.49164C134.664 7.49164 131.293 10.8625 131.293 15.0206C131.293 19.1787 134.664 22.5496 138.822 22.5496Z" fill="#F48E1E"/>
<path d="M156.21 10.0013C155.878 10.0013 155.558 10.1335 155.323 10.3688C155.088 10.6041 154.956 10.9233 154.956 11.2561C154.956 11.5889 155.088 11.9081 155.323 12.1434C155.558 12.3787 155.878 12.5109 156.21 12.5109H189.553C189.886 12.5109 190.205 12.3787 190.44 12.1434C190.676 11.9081 190.808 11.5889 190.808 11.2561C190.808 10.9233 190.676 10.6041 190.44 10.3688C190.205 10.1335 189.886 10.0013 189.553 10.0013H156.21Z" fill="#E6E6E6"/>
<path d="M156.21 17.5303C155.878 17.5303 155.558 17.6625 155.323 17.8978C155.088 18.1331 154.956 18.4523 154.956 18.7851C154.956 19.1179 155.088 19.4371 155.323 19.6724C155.558 19.9077 155.878 20.0399 156.21 20.0399H215.367C215.699 20.0399 216.019 19.9077 216.254 19.6724C216.489 19.4371 216.621 19.1179 216.621 18.7851C216.621 18.4523 216.489 18.1331 216.254 17.8978C216.019 17.6625 215.699 17.5303 215.367 17.5303H156.21Z" fill="#E6E6E6"/>
<path d="M98.668 77.5784H1.86683C1.39157 77.5778 0.935938 77.3888 0.599879 77.0527C0.26382 76.7167 0.0747757 76.261 0.0742188 75.7858V51.7736C0.0747757 51.2983 0.26382 50.8427 0.599879 50.5066C0.935938 50.1706 1.39157 49.9815 1.86683 49.981H98.668C99.1433 49.9815 99.5989 50.1706 99.935 50.5066C100.271 50.8427 100.46 51.2983 100.461 51.7736V75.7858C100.46 76.2611 100.271 76.7167 99.935 77.0527C99.5989 77.3888 99.1433 77.5778 98.668 77.5784ZM1.86683 50.698C1.58167 50.6983 1.30827 50.8117 1.10663 51.0134C0.904993 51.215 0.791575 51.4884 0.791263 51.7736V75.7858C0.791575 76.071 0.904993 76.3444 1.10663 76.546C1.30827 76.7476 1.58167 76.8611 1.86683 76.8614H98.668C98.9532 76.8611 99.2266 76.7476 99.4282 76.546C99.6299 76.3444 99.7433 76.071 99.7436 75.7858V51.7736C99.7433 51.4884 99.6299 51.215 99.4282 51.0134C99.2266 50.8117 98.9532 50.6983 98.668 50.698H1.86683Z" fill="#E6E6E6"/>
<path d="M14.4152 71.3085C18.5733 71.3085 21.9442 67.9377 21.9442 63.7796C21.9442 59.6214 18.5733 56.2506 14.4152 56.2506C10.2571 56.2506 6.88623 59.6214 6.88623 63.7796C6.88623 67.9377 10.2571 71.3085 14.4152 71.3085Z" fill="#F48E1E"/>
<path d="M31.8037 58.7603C31.4709 58.7603 31.1517 58.8925 30.9164 59.1278C30.681 59.3631 30.5488 59.6823 30.5488 60.0151C30.5488 60.3479 30.681 60.6671 30.9164 60.9024C31.1517 61.1377 31.4709 61.2699 31.8037 61.2699H66.5803C66.9131 61.2699 67.2323 61.1377 67.4676 60.9024C67.7029 60.6671 67.8351 60.3479 67.8351 60.0151C67.8351 59.6823 67.7029 59.3631 67.4676 59.1278C67.2323 58.8925 66.9131 58.7603 66.5803 58.7603H31.8037Z" fill="#E6E6E6"/>
<path d="M31.8037 66.2893C31.4709 66.2893 31.1517 66.4215 30.9164 66.6568C30.681 66.8922 30.5488 67.2113 30.5488 67.5441C30.5488 67.8769 30.681 68.1961 30.9164 68.4314C31.1517 68.6668 31.4709 68.799 31.8037 68.799H90.9598C91.2926 68.799 91.6118 68.6668 91.8471 68.4314C92.0824 68.1961 92.2146 67.8769 92.2146 67.5441C92.2146 67.2113 92.0824 66.8922 91.8471 66.6568C91.6118 66.4215 91.2926 66.2893 90.9598 66.2893H31.8037Z" fill="#E6E6E6"/>
<path d="M186.147 130.281H89.3463C88.8711 130.281 88.4154 130.092 88.0794 129.755C87.7433 129.419 87.5543 128.964 87.5537 128.489V104.476C87.5543 104.001 87.7433 103.545 88.0794 103.209C88.4154 102.873 88.8711 102.684 89.3463 102.684H186.147C186.623 102.684 187.078 102.873 187.414 103.209C187.75 103.545 187.94 104.001 187.94 104.476V128.489C187.94 128.964 187.75 129.419 187.414 129.755C187.078 130.092 186.623 130.281 186.147 130.281ZM89.3463 103.401C89.0612 103.401 88.7878 103.514 88.5861 103.716C88.3845 103.918 88.2711 104.191 88.2708 104.476V128.489C88.2711 128.774 88.3845 129.047 88.5861 129.249C88.7878 129.45 89.0612 129.564 89.3463 129.564H186.147C186.433 129.564 186.706 129.45 186.908 129.249C187.109 129.047 187.223 128.774 187.223 128.489V104.476C187.223 104.191 187.109 103.918 186.908 103.716C186.706 103.514 186.433 103.401 186.147 103.401H89.3463Z" fill="#3F3D56"/>
<path d="M101.895 124.011C106.053 124.011 109.424 120.64 109.424 116.482C109.424 112.324 106.053 108.953 101.895 108.953C97.7366 108.953 94.3657 112.324 94.3657 116.482C94.3657 120.64 97.7366 124.011 101.895 124.011Z" fill="#F48E1E"/>
<path d="M119.283 111.463C118.95 111.463 118.631 111.595 118.395 111.831C118.16 112.066 118.028 112.385 118.028 112.718C118.028 113.051 118.16 113.37 118.395 113.605C118.631 113.841 118.95 113.973 119.283 113.973H151.191C151.524 113.973 151.843 113.841 152.078 113.605C152.314 113.37 152.446 113.051 152.446 112.718C152.446 112.385 152.314 112.066 152.078 111.831C151.843 111.595 151.524 111.463 151.191 111.463H119.283Z" fill="#E6E6E6"/>
<path d="M119.283 118.992C118.95 118.992 118.631 119.124 118.395 119.36C118.16 119.595 118.028 119.914 118.028 120.247C118.028 120.58 118.16 120.899 118.395 121.134C118.631 121.37 118.95 121.502 119.283 121.502H178.439C178.772 121.502 179.091 121.37 179.326 121.134C179.561 120.899 179.694 120.58 179.694 120.247C179.694 119.914 179.561 119.595 179.326 119.36C179.091 119.124 178.772 118.992 178.439 118.992H119.283Z" fill="#E6E6E6"/>
<path d="M238.222 124.191C234.018 136.803 216.82 123.427 216.82 123.427L221.406 75.6549C228.286 70.3044 235.547 74.8905 235.547 74.8905L238.222 124.191Z" fill="#E6E6E6"/>
<path d="M237.319 166.519L243.179 166.58L241.716 183.472L237.32 183.472L237.319 166.519Z" fill="#FFB8B8"/>
<path d="M236.199 182.037H244.855C246.317 182.039 247.72 182.62 248.754 183.654C249.788 184.689 250.37 186.091 250.371 187.553V187.733H236.199V182.037Z" fill="#2F2E41"/>
<path d="M221.433 166.519L214.946 166.518L217.037 183.472L221.433 183.472L221.433 166.519Z" fill="#FFB8B8"/>
<path d="M208.381 187.732V187.553C208.381 186.09 208.962 184.687 209.997 183.652C211.031 182.618 212.435 182.037 213.898 182.037L222.554 182.037L222.553 187.733L208.381 187.732Z" fill="#2F2E41"/>
<path d="M236.924 180.546L229.247 135.794L222.134 179.969L214.927 180.369L213.006 121.182L213.151 121.15C214.342 120.883 242.383 114.724 246.98 123.535L247.004 123.58L243.167 180.747L236.924 180.546Z" fill="#2F2E41"/>
<path d="M228.788 70.0565C233.651 70.0565 237.593 66.1141 237.593 61.2509C237.593 56.3876 233.651 52.4452 228.788 52.4452C223.924 52.4452 219.982 56.3876 219.982 61.2509C219.982 66.1141 223.924 70.0565 228.788 70.0565Z" fill="#FFB8B8"/>
<path d="M236.186 127.965C235.153 127.679 234.409 126.494 233.845 124.235C233.747 123.845 224.605 84.9008 232.336 77.845L234.119 72.8945L236.557 74.5205C237.42 74.5285 246.245 74.7519 246.999 80.4084C247.738 85.9452 249.747 123.041 247.727 125.349C247.688 125.4 247.637 125.441 247.58 125.47C247.522 125.499 247.459 125.515 247.395 125.517C245.347 125.517 244.726 123.245 244.58 122.521C244.093 122.723 242.643 123.464 240.26 125.847C238.784 127.323 237.627 128.03 236.671 128.03C236.507 128.031 236.344 128.009 236.186 127.965Z" fill="#2F2E41"/>
<path d="M217.076 125.847C214.692 123.463 213.242 122.722 212.756 122.521C212.61 123.245 211.989 125.517 209.941 125.517C209.877 125.515 209.814 125.499 209.756 125.47C209.699 125.441 209.649 125.4 209.609 125.349C207.589 123.042 209.599 85.9454 210.337 80.4084C211.091 74.7519 219.916 74.5285 220.779 74.5205L223.218 72.8945L225 77.845C232.731 84.9003 223.589 123.845 223.492 124.235C222.927 126.494 222.183 127.679 221.151 127.965C220.993 128.009 220.83 128.031 220.666 128.03C219.709 128.03 218.552 127.323 217.076 125.847Z" fill="#2F2E41"/>
<path d="M236.058 66.2808C237.547 65.2093 238.676 63.7096 239.292 61.9813C239.909 60.2529 239.984 58.3779 239.509 56.6054C239.034 54.833 238.031 53.2472 236.632 52.059C235.234 50.8708 233.507 50.1365 231.681 49.9537C230.87 49.8726 229.997 49.8847 229.325 49.4243C228.728 49.0153 228.407 48.306 227.858 47.834C227.509 47.5644 227.109 47.3696 226.682 47.2619C226.254 47.1542 225.809 47.1359 225.375 47.208C224.507 47.3576 223.666 47.634 222.878 48.0282C220.926 48.8987 218.85 49.9701 217.962 51.9146C217.192 53.5988 217.532 55.6757 218.621 57.1731C219.767 58.655 221.437 59.6412 223.288 59.9286C225.128 60.2034 227.007 60.0342 228.768 59.4351C229.93 59.0694 231.078 58.5711 232.295 58.5304C233.246 58.4986 234.184 58.7503 234.991 59.2533C235.798 59.7563 236.437 60.488 236.827 61.3553C237.217 62.2226 237.34 63.1863 237.181 64.1238C237.022 65.0613 236.587 65.9302 235.932 66.6201" fill="#2F2E41"/>
<path d="M188.062 118.664C188.571 118.652 189.072 118.54 189.537 118.335C190.002 118.13 190.422 117.835 190.773 117.467C191.125 117.099 191.4 116.666 191.583 116.191C191.767 115.717 191.856 115.211 191.844 114.703L196.979 106.039L193.011 102.401L187.602 110.938C186.604 111.034 185.682 111.513 185.03 112.275C184.378 113.037 184.047 114.022 184.107 115.023C184.167 116.024 184.612 116.963 185.35 117.642C186.087 118.321 187.06 118.687 188.062 118.664Z" fill="#FFB8B8"/>
<path d="M247.639 128.156C248.065 127.878 248.432 127.519 248.719 127.1C249.006 126.68 249.208 126.208 249.313 125.71C249.418 125.213 249.424 124.699 249.33 124.2C249.237 123.7 249.045 123.223 248.768 122.797L248.571 112.728L243.283 111.724L243.179 121.83C242.381 122.437 241.85 123.33 241.697 124.321C241.544 125.312 241.781 126.324 242.359 127.143C242.936 127.963 243.81 128.526 244.794 128.715C245.779 128.904 246.799 128.704 247.639 128.156Z" fill="#FFB8B8"/>
<path d="M189.624 104.733L189.564 104.638L189.624 104.542C197.326 92.1738 213.494 76.7235 213.656 76.5687L213.707 76.5201L215.704 76.4996L217.863 81.8775C217.191 83.1703 199.078 108.447 196.686 110.124C196.496 110.256 196.28 110.346 196.052 110.389C195.825 110.432 195.59 110.426 195.365 110.373C194.967 110.281 194.587 110.12 194.245 109.896C192.038 108.529 189.737 104.912 189.624 104.733Z" fill="#2F2E41"/>
<path d="M242.277 118.847C242.062 118.773 241.865 118.656 241.698 118.503C241.531 118.35 241.397 118.164 241.306 117.956C240.153 115.265 245.095 81.2784 245.306 79.8329L245.346 79.5594L247.017 80.6182L247.033 80.6903C247.083 80.9074 251.95 102.559 250.63 116.946L250.621 117.049L250.527 117.093C250.326 117.186 246.272 119.048 243.57 119.048C243.131 119.059 242.692 118.991 242.277 118.847Z" fill="#2F2E41"/>
<path d="M275.567 188H180.2C180.105 188 180.014 187.962 179.946 187.895C179.879 187.828 179.841 187.737 179.841 187.641C179.841 187.546 179.879 187.455 179.946 187.388C180.014 187.321 180.105 187.283 180.2 187.283H275.567C275.662 187.283 275.753 187.321 275.82 187.388C275.887 187.455 275.925 187.546 275.925 187.641C275.925 187.737 275.887 187.828 275.82 187.895C275.753 187.962 275.662 188 275.567 188Z" fill="#3F3D56"/>
</g>
<defs>
<clipPath id="clip0_120_128">
<rect width="275.851" height="188" fill="white" transform="translate(0.0742188)"/>
</clipPath>
</defs>
</svg>
