<svg width="298" height="188" viewBox="0 0 298 188" fill="none" xmlns="http://www.w3.org/2000/svg">
<g clip-path="url(#clip0_120_51)">
<path d="M295.174 123.132H180.59C180 123.132 179.433 122.897 179.016 122.479C178.598 122.061 178.363 121.495 178.362 120.904V2.22816C178.363 1.63742 178.598 1.07106 179.016 0.653342C179.433 0.235623 180 0.000660041 180.59 0H295.174C295.765 0.000659015 296.331 0.235623 296.749 0.653342C297.167 1.07106 297.402 1.63742 297.402 2.22816V120.904C297.402 121.495 297.167 122.061 296.749 122.479C296.331 122.897 295.765 123.132 295.174 123.132ZM180.59 0.77686C180.206 0.7773 179.837 0.930345 179.565 1.20242C179.293 1.4745 179.14 1.84339 179.139 2.22816V120.904C179.14 121.289 179.293 121.658 179.565 121.93C179.837 122.202 180.206 122.355 180.59 122.355H295.174C295.559 122.355 295.928 122.202 296.2 121.93C296.472 121.658 296.625 121.289 296.625 120.904V2.22816C296.625 1.84339 296.472 1.4745 296.2 1.20242C295.928 0.930345 295.559 0.7773 295.174 0.77686H180.59Z" fill="#3F3D56"/>
<path d="M259.48 49.8768C262.04 54.6052 262.978 60.0431 262.149 65.3557C261.32 70.6683 258.77 75.562 254.891 79.2854C251.012 83.0089 246.018 85.3563 240.675 85.9672C235.333 86.5781 229.938 85.4187 225.319 82.6672C220.699 79.9156 217.11 75.7239 215.103 70.7356C213.096 65.7473 212.782 60.2381 214.209 55.0539C215.635 49.8697 218.724 45.2969 223.001 42.0378C227.277 38.7786 232.505 37.0132 237.882 37.0125C238.077 37.0125 238.271 37.0153 238.465 37.0198L238.205 26.5301C238.097 26.5291 237.99 26.526 237.882 26.526C230.146 26.5282 222.628 29.0914 216.501 33.8156C210.375 38.5397 205.985 45.159 204.016 52.6406C202.047 60.1222 202.61 68.0451 205.617 75.173C208.625 82.3009 213.907 88.2328 220.64 92.0429C227.373 95.8531 235.178 97.3273 242.837 96.2353C250.496 95.1433 257.578 91.5467 262.977 86.0067C268.377 80.4667 271.791 73.2949 272.687 65.6106C273.582 57.9263 271.909 50.1617 267.927 43.5285L259.48 49.8768Z" fill="#F48E1E"/>
<path d="M259.48 49.8768L267.928 43.5285C264.843 38.3879 260.49 34.1254 255.286 31.1491C250.082 28.1728 244.2 26.5823 238.206 26.5301L238.465 37.0198C242.79 37.1212 247.012 38.3636 250.702 40.6214C254.393 42.8792 257.421 46.0721 259.48 49.8768Z" fill="#E6E6E6"/>
<path d="M255.719 91.6436L255.286 92.073L267.59 104.494L268.024 104.064L255.719 91.6436Z" fill="#3F3D56"/>
<path d="M263.619 15.6109L255.066 30.8601L255.598 31.1587L264.151 15.9095L263.619 15.6109Z" fill="#3F3D56"/>
<path d="M277.014 109.077H258.855C258.533 109.077 258.223 108.948 257.995 108.72C257.767 108.492 257.638 108.183 257.638 107.86V105.302C257.638 104.98 257.767 104.67 257.995 104.442C258.223 104.214 258.533 104.085 258.855 104.085H277.014C277.337 104.085 277.647 104.214 277.875 104.442C278.103 104.67 278.232 104.98 278.232 105.302V107.86C278.232 108.183 278.103 108.492 277.875 108.72C277.647 108.948 277.337 109.077 277.014 109.077Z" fill="#F48E1E"/>
<path d="M272.411 15.978H254.251C253.929 15.9776 253.619 15.8492 253.391 15.621C253.163 15.3928 253.035 15.0834 253.034 14.7607V12.2031C253.035 11.8804 253.163 11.571 253.391 11.3428C253.619 11.1146 253.929 10.9862 254.251 10.9858H272.411C272.734 10.9862 273.043 11.1146 273.271 11.3428C273.499 11.571 273.628 11.8804 273.628 12.2031V14.7607C273.628 15.0834 273.499 15.3928 273.271 15.621C273.043 15.8492 272.734 15.9776 272.411 15.978Z" fill="#E6E6E6"/>
<path d="M160.046 56.6612H30.5553C29.9925 56.6606 29.453 56.4368 29.0551 56.0388C28.6571 55.6409 28.4333 55.1013 28.4326 54.5385V2.51114C28.4333 1.94835 28.6571 1.40881 29.0551 1.01086C29.453 0.612914 29.9925 0.389066 30.5553 0.388428H160.046C160.609 0.389086 161.148 0.612939 161.546 1.01088C161.944 1.40883 162.168 1.94837 162.168 2.51114V54.5385C162.168 55.1013 161.944 55.6408 161.546 56.0388C161.148 56.4367 160.609 56.6606 160.046 56.6612ZM30.5553 1.16529C30.1985 1.16567 29.8564 1.30759 29.6041 1.5599C29.3518 1.81222 29.2099 2.15431 29.2095 2.51114V54.5385C29.2099 54.8954 29.3518 55.2375 29.6041 55.4898C29.8564 55.7421 30.1985 55.884 30.5553 55.8844H160.046C160.403 55.884 160.745 55.7421 160.997 55.4897C161.249 55.2374 161.391 54.8953 161.392 54.5385V2.51114C161.391 2.15433 161.249 1.81224 160.997 1.55993C160.745 1.30762 160.403 1.16569 160.046 1.16529H30.5553Z" fill="#3F3D56"/>
<path d="M81.0327 43.7492H68.4866C68.166 43.7486 67.856 43.6342 67.6119 43.4264C67.3677 43.2187 67.2052 42.931 67.1533 42.6146C66.335 37.2993 66.335 31.8901 67.1533 26.5748C67.2052 26.2584 67.3677 25.9708 67.6119 25.763C67.856 25.5552 68.166 25.4409 68.4866 25.4403H81.0327C81.236 25.4396 81.4367 25.4854 81.6197 25.574C81.8026 25.6626 81.963 25.7918 82.0885 25.9518C82.2167 26.114 82.3062 26.3033 82.3503 26.5053C82.3943 26.7074 82.3917 26.9168 82.3426 27.1176C81.169 32.0333 81.169 37.1561 82.3425 42.0718C82.3916 42.2726 82.3943 42.4821 82.3502 42.6841C82.3062 42.8861 82.2167 43.0754 82.0885 43.2376C81.963 43.3976 81.8026 43.5268 81.6197 43.6154C81.4368 43.7041 81.236 43.7498 81.0327 43.7492Z" fill="#E6E6E6"/>
<path d="M123.039 43.7492H110.493C110.172 43.7485 109.862 43.6341 109.618 43.4264C109.374 43.2186 109.212 42.931 109.16 42.6146C108.341 37.2993 108.341 31.8901 109.16 26.5748C109.212 26.2585 109.374 25.9708 109.618 25.763C109.862 25.5553 110.172 25.4409 110.493 25.4403H123.039C123.242 25.4396 123.443 25.4854 123.626 25.574C123.809 25.6627 123.969 25.792 124.095 25.952C124.223 26.1141 124.313 26.3034 124.357 26.5054C124.401 26.7074 124.398 26.9168 124.349 27.1176C123.175 32.0333 123.175 37.1562 124.349 42.0718C124.398 42.2726 124.401 42.482 124.357 42.684C124.313 42.886 124.223 43.0753 124.095 43.2375C123.969 43.3975 123.809 43.5267 123.626 43.6154C123.443 43.7041 123.242 43.7498 123.039 43.7492Z" fill="#E6E6E6"/>
<path d="M59.6924 31.6094H47.1463C46.8257 31.6088 46.5157 31.4944 46.2715 31.2867C46.0274 31.0789 45.8649 30.7912 45.813 30.4748C44.9946 25.1596 44.9946 19.7503 45.813 14.435C45.8649 14.1187 46.0274 13.831 46.2715 13.6232C46.5157 13.4155 46.8257 13.3011 47.1463 13.3005H59.6924C59.8957 13.2998 60.0964 13.3456 60.2794 13.4342C60.4623 13.5229 60.6226 13.6521 60.7481 13.812C60.8763 13.9742 60.9659 14.1635 61.0099 14.3656C61.054 14.5676 61.0513 14.777 61.0023 14.9779C59.8286 19.8935 59.8285 25.0164 61.0022 29.932C61.0513 30.1329 61.0539 30.3423 61.0099 30.5443C60.9659 30.7463 60.8764 30.9357 60.7481 31.0979C60.6226 31.2578 60.4623 31.387 60.2794 31.4757C60.0964 31.5643 59.8956 31.61 59.6924 31.6094Z" fill="#F48E1E"/>
<path d="M102.122 31.6094H89.5757C89.3724 31.6101 89.1717 31.5643 88.9887 31.4756C88.8058 31.387 88.6455 31.2577 88.52 31.0977C88.3918 30.9355 88.3023 30.7462 88.2582 30.5442C88.2142 30.3422 88.2169 30.1328 88.266 29.932C89.4396 25.0164 89.4396 19.8935 88.2659 14.9779C88.2168 14.777 88.2142 14.5677 88.2582 14.3657C88.3022 14.1637 88.3918 13.9744 88.52 13.8122C88.6454 13.6522 88.8057 13.5229 88.9887 13.4343C89.1716 13.3456 89.3724 13.2998 89.5757 13.3005H102.122C102.443 13.3011 102.752 13.4155 102.997 13.6232C103.241 13.831 103.403 14.1187 103.455 14.435C104.273 19.7503 104.273 25.1596 103.455 30.4748C103.403 30.7912 103.241 31.0789 102.997 31.2867C102.752 31.4944 102.443 31.6088 102.122 31.6094Z" fill="#F48E1E"/>
<path d="M143.454 31.6094H130.908C130.705 31.6101 130.504 31.5643 130.321 31.4756C130.138 31.387 129.978 31.2577 129.853 31.0977C129.724 30.9355 129.635 30.7462 129.591 30.5442C129.547 30.3422 129.549 30.1328 129.599 29.932C130.772 25.0164 130.772 19.8935 129.598 14.9779C129.549 14.777 129.547 14.5677 129.591 14.3657C129.635 14.1637 129.724 13.9744 129.853 13.8122C129.978 13.6522 130.138 13.5229 130.321 13.4343C130.504 13.3456 130.705 13.2998 130.908 13.3005H143.454C143.775 13.3011 144.085 13.4155 144.329 13.6233C144.573 13.831 144.736 14.1187 144.788 14.435C145.606 19.7503 145.606 25.1596 144.788 30.4748C144.736 30.7912 144.573 31.0789 144.329 31.2866C144.085 31.4944 143.775 31.6088 143.454 31.6094Z" fill="#FF6584"/>
<path d="M73.598 124.09C73.0003 123.968 72.4365 123.717 71.9464 123.354C71.4563 122.99 71.0518 122.524 70.7613 121.988C70.4709 121.451 70.3017 120.858 70.2655 120.249C70.2293 119.64 70.3271 119.03 70.5519 118.463L53.3311 81.488L62.0671 79.0327L76.263 116.195C77.1906 116.636 77.9242 117.402 78.3249 118.348C78.7256 119.293 78.7655 120.353 78.437 121.326C78.1086 122.299 77.4345 123.118 76.5427 123.628C75.6508 124.137 74.6031 124.301 73.598 124.09Z" fill="#A0616A"/>
<path d="M40.2483 183.092H45.0105L47.2758 164.724H40.2476L40.2483 183.092Z" fill="#A0616A"/>
<path d="M54.1943 187.513L39.2279 187.514L39.2276 181.731L48.4116 181.731C49.9452 181.731 51.416 182.34 52.5005 183.424C53.585 184.509 54.1943 185.98 54.1943 187.513Z" fill="#2F2E41"/>
<path d="M15.4956 177.958L19.8728 179.833L29.1881 163.841L22.7274 161.074L15.4956 177.958Z" fill="#A0616A"/>
<path d="M26.5742 187.514L12.8166 181.621L15.0933 176.306L23.5355 179.922C24.9452 180.525 26.0574 181.665 26.6272 183.088C27.1971 184.512 27.178 186.104 26.5742 187.514Z" fill="#2F2E41"/>
<path d="M52.0222 64.1416C57.2911 64.1416 61.5624 59.8703 61.5624 54.6014C61.5624 49.3325 57.2911 45.0612 52.0222 45.0612C46.7532 45.0612 42.4819 49.3325 42.4819 54.6014C42.4819 59.8703 46.7532 64.1416 52.0222 64.1416Z" fill="#A0616A"/>
<path d="M45.1296 178.601L39.8873 177.602C39.4564 177.523 39.0715 177.283 38.8097 176.932C38.5479 176.58 38.4285 176.143 38.4755 175.707L41.9518 141.813C41.9849 141.49 41.9012 141.165 41.7156 140.899C41.53 140.632 41.255 140.44 40.9403 140.359C40.6256 140.277 40.2921 140.311 40.0003 140.454C39.7085 140.597 39.4777 140.84 39.3497 141.139L24.1732 176.551C24.082 176.764 23.9494 176.957 23.7832 177.118C23.6169 177.279 23.4204 177.405 23.2048 177.49C22.9893 177.574 22.7592 177.615 22.5277 177.61C22.2963 177.605 22.0682 177.554 21.8567 177.46L17.593 175.565C17.1949 175.389 16.8768 175.072 16.7013 174.674C16.5258 174.276 16.5056 173.827 16.6445 173.415L27.0242 142.275C27.0534 142.188 27.0736 142.097 27.0845 142.006L30.4538 113.554C30.4905 113.244 30.6099 112.949 30.7995 112.7C30.9891 112.451 31.242 112.258 31.5318 112.14L42.1702 107.819C42.485 107.691 42.8301 107.657 43.1636 107.722C43.497 107.788 43.8042 107.948 44.0476 108.185L57.4758 121.26C57.685 121.463 57.84 121.715 57.9265 121.994C58.013 122.272 58.0283 122.567 57.9709 122.853L47.1711 177.225C47.0911 177.621 46.8766 177.977 46.564 178.234C46.2514 178.49 45.8598 178.631 45.4554 178.632C45.3461 178.632 45.237 178.622 45.1296 178.601Z" fill="#2F2E41"/>
<path d="M39.1535 115.123C37.295 112.971 35.9386 111.995 35.0109 112.149C34.0905 112.297 33.5595 113.583 32.9973 114.945C32.2299 116.803 31.3601 118.909 29.2162 119.074C28.8824 119.131 28.5392 119.094 28.2258 118.965C27.9125 118.837 27.6415 118.623 27.4441 118.347C25.7577 115.839 29.8026 107.54 30.1722 106.794L29.9825 67.539C29.9799 67.2223 30.0636 66.9109 30.2246 66.6382C30.3856 66.3654 30.6179 66.1417 30.8965 65.991C42.012 59.9969 57.0211 70.4215 59.9169 72.5727C60.1486 72.7443 60.3341 72.9707 60.4568 73.2316C60.5796 73.4924 60.6357 73.7797 60.6202 74.0676C60.2707 80.6421 58.5277 113.812 58.5277 121.211C58.5277 123.259 57.8212 124.561 56.4277 125.079C55.9573 125.246 55.4608 125.327 54.9616 125.319C50.71 125.319 43.7465 120.441 39.1535 115.123Z" fill="#CCCCCC"/>
<path d="M54.6654 96.062C54.433 95.911 54.2402 95.7063 54.1035 95.4652C53.9668 95.2241 53.89 94.9537 53.8797 94.6767L53.1267 77.0942C53.0804 76.0117 53.4207 74.948 54.0868 74.0935C54.753 73.2389 55.7014 72.6493 56.7625 72.4302C57.8236 72.211 58.9281 72.3765 59.8783 72.8972C60.8285 73.4179 61.5624 74.2596 61.9487 75.2719L67.5838 90.0387C67.7486 90.4719 67.7348 90.9527 67.5454 91.3757C67.3561 91.7986 67.0067 92.1292 66.5739 92.2949L56.2492 96.235C55.9906 96.3352 55.7118 96.3717 55.4362 96.3416C55.1606 96.3115 54.8962 96.2156 54.6654 96.062Z" fill="#CCCCCC"/>
<path d="M28.4284 123.535C27.9222 123.194 27.4968 122.747 27.1822 122.224C26.8676 121.702 26.6715 121.117 26.6075 120.51C26.5436 119.903 26.6135 119.29 26.8122 118.713C27.011 118.136 27.3338 117.61 27.7578 117.172L25.936 76.4237L34.9483 77.4849L33.9021 117.253C34.5916 118.014 34.9778 119.002 34.9877 120.029C34.9975 121.056 34.6303 122.051 33.9556 122.825C33.2809 123.6 32.3456 124.099 31.3268 124.23C30.3081 124.361 29.2769 124.114 28.4284 123.535Z" fill="#A0616A"/>
<path d="M22.17 87.2742C22.0066 87.0502 21.8995 86.7902 21.8577 86.5162C21.8159 86.2421 21.8405 85.9621 21.9297 85.6996L27.4949 69.0039C27.8375 67.976 28.5347 67.1035 29.4618 66.5426C30.3888 65.9817 31.4852 65.769 32.5548 65.9426C33.6243 66.1162 34.5971 66.6647 35.2992 67.4899C36.0014 68.3152 36.3869 69.3634 36.3868 70.4469V86.2523C36.3863 86.7157 36.202 87.16 35.8743 87.4876C35.5466 87.8153 35.1023 87.9997 34.6389 88.0002H23.588C23.3107 88.0017 23.0372 87.9365 22.7904 87.8101C22.5436 87.6838 22.3308 87.5 22.17 87.2742Z" fill="#CCCCCC"/>
<path d="M45.8612 61.0181C45.5041 61.298 45.058 61.4396 44.6048 61.417C44.1516 61.3944 43.7218 61.2091 43.3943 60.8952C41.3496 58.9839 39.624 56.6986 38.7507 54.0518C37.75 51.019 38.0057 47.4668 39.922 44.912C41.542 42.7523 44.1062 41.5322 46.6318 40.5784C47.6178 40.1614 48.6595 39.8909 49.7237 39.7754C50.7988 39.6639 51.8759 39.9663 52.7358 40.6212C53.1548 40.9558 53.4633 41.4089 53.621 41.9214C53.7786 42.4339 53.7782 42.9821 53.6197 43.4944C54.9149 42.318 56.4951 41.5005 58.2037 41.123C59.2851 40.8363 60.428 40.8837 61.4821 41.2588C62.9468 41.8612 63.8983 43.3325 64.3367 44.8543C64.6992 46.0153 64.7286 47.2546 64.4215 48.4314C64.2637 49.0165 63.985 49.5619 63.6032 50.0324C63.2214 50.503 62.7451 50.8881 62.2051 51.163C60.865 51.7943 59.2747 51.556 57.8735 51.0754C56.4723 50.5948 55.1438 49.8855 53.6945 49.5789C52.2453 49.2724 50.5719 49.4512 49.5464 50.5202C48.8243 51.273 48.5399 52.332 48.2816 53.3427L46.9381 58.5997C46.7899 59.3654 46.5062 60.0986 46.1004 60.7647C46.0325 60.8595 45.952 60.9448 45.8612 61.0181Z" fill="#2F2E41"/>
<path d="M84.5518 136.874H72.0056C71.685 136.873 71.375 136.759 71.1309 136.551C70.8868 136.343 70.7243 136.056 70.6724 135.739C69.854 130.424 69.854 125.015 70.6724 119.7C70.7243 119.383 70.8868 119.095 71.1309 118.888C71.375 118.68 71.685 118.566 72.0056 118.565H84.5518C84.7551 118.564 84.9559 118.61 85.1389 118.699C85.3218 118.787 85.4821 118.917 85.6076 119.077C85.7358 119.239 85.8253 119.428 85.8693 119.63C85.9133 119.832 85.9107 120.042 85.8616 120.242C84.688 125.158 84.688 130.281 85.8616 135.196C85.9107 135.397 85.9133 135.607 85.8693 135.809C85.8253 136.011 85.7358 136.2 85.6076 136.362C85.4821 136.522 85.3218 136.651 85.1389 136.74C84.9559 136.829 84.7551 136.875 84.5518 136.874Z" fill="#F48E1E"/>
<path d="M63.5233 188H0.986086C0.883068 188 0.784269 187.959 0.711424 187.886C0.63858 187.813 0.597656 187.715 0.597656 187.612C0.597656 187.509 0.63858 187.41 0.711424 187.337C0.784269 187.264 0.883068 187.223 0.986086 187.223H63.5233C63.6263 187.223 63.7251 187.264 63.7979 187.337C63.8708 187.41 63.9117 187.509 63.9117 187.612C63.9117 187.715 63.8708 187.813 63.7979 187.886C63.7251 187.959 63.6263 188 63.5233 188Z" fill="#3F3D56"/>
</g>
<defs>
<clipPath id="clip0_120_51">
<rect width="296.805" height="188" fill="white" transform="translate(0.597656)"/>
</clipPath>
</defs>
</svg>
