<svg width="328" height="188" viewBox="0 0 328 188" fill="none" xmlns="http://www.w3.org/2000/svg">
<g clip-path="url(#clip0_120_241)">
<path d="M71.2963 166.879C80.694 166.879 88.3124 159.261 88.3124 149.863C88.3124 140.465 80.694 132.847 71.2963 132.847C61.8986 132.847 54.2803 140.465 54.2803 149.863C54.2803 159.261 61.8986 166.879 71.2963 166.879Z" fill="#F2F2F2"/>
<path d="M74.0629 164.389C83.4607 164.389 91.079 156.77 91.079 147.373C91.079 137.975 83.4607 130.357 74.0629 130.357C64.6652 130.357 57.0469 137.975 57.0469 147.373C57.0469 156.77 64.6652 164.389 74.0629 164.389Z" fill="#F48E1E"/>
<path d="M298.302 128.545H87.7671V129.119H298.302V128.545Z" fill="#3F3D56"/>
<path d="M196.803 5.35732H122.076V3.81714H88.192V5.35732H13.1572C12.4934 5.35732 11.8362 5.48806 11.2229 5.74209C10.6096 5.99611 10.0524 6.36844 9.58303 6.83781C9.11365 7.30718 8.74133 7.86441 8.4873 8.47767C8.23328 9.09094 8.10254 9.74823 8.10254 10.412V112.736C8.10254 114.077 8.63508 115.362 9.58302 116.31C10.531 117.258 11.8166 117.791 13.1572 117.791H196.803C198.143 117.791 199.429 117.258 200.377 116.31C201.325 115.362 201.857 114.077 201.857 112.736V10.412C201.857 9.74823 201.727 9.09094 201.473 8.47767C201.219 7.86441 200.846 7.30718 200.377 6.83781C199.908 6.36844 199.35 5.99611 198.737 5.74209C198.124 5.48806 197.467 5.35732 196.803 5.35732Z" fill="#3F3D56"/>
<path d="M195.081 14.2904H14.8794V115.942H195.081V14.2904Z" fill="#F48E1E"/>
<path d="M104.826 11.5181C105.847 11.5181 106.674 10.6906 106.674 9.66987C106.674 8.64913 105.847 7.82166 104.826 7.82166C103.806 7.82166 102.978 8.64913 102.978 9.66987C102.978 10.6906 103.806 11.5181 104.826 11.5181Z" fill="#F48E1E"/>
<path opacity="0.1" d="M143.546 115.943H14.8794V14.2905L143.546 115.943Z" fill="#1B1B1B"/>
<path d="M43.0759 108.336C52.6423 108.336 60.3974 100.581 60.3974 91.0143C60.3974 81.4479 52.6423 73.6927 43.0759 73.6927C33.5095 73.6927 25.7544 81.4479 25.7544 91.0143C25.7544 100.581 33.5095 108.336 43.0759 108.336Z" fill="#F2F2F2"/>
<path d="M163.705 69.1122H146.872V72.6295H163.705V69.1122Z" fill="#3F3D56"/>
<path d="M184.055 41.7275H126.522V43.235H184.055V41.7275Z" fill="#3F3D56"/>
<path d="M184.055 46.501H126.522V48.0084H184.055V46.501Z" fill="#3F3D56"/>
<path d="M184.055 51.2744H126.522V52.7818H184.055V51.2744Z" fill="#3F3D56"/>
<path d="M184.055 56.0479H126.522V57.5553H184.055V56.0479Z" fill="#3F3D56"/>
<path d="M184.055 60.8214H126.522V62.3288H184.055V60.8214Z" fill="#3F3D56"/>
<path d="M184.055 16.3527H177.021V23.3873H184.055V16.3527Z" fill="#F2F2F2"/>
<path d="M187.321 26.6533H178.779V18.1113H187.321V26.6533ZM179.15 26.282H186.949V18.4827H179.15V26.282Z" fill="#3F3D56"/>
<path d="M206.917 114.094H189.331V112.827C189.331 112.794 189.324 112.762 189.312 112.731C189.299 112.701 189.281 112.673 189.257 112.65C189.234 112.626 189.206 112.608 189.176 112.595C189.145 112.582 189.113 112.576 189.08 112.576H183.05C183.017 112.576 182.984 112.582 182.954 112.595C182.923 112.608 182.896 112.626 182.872 112.65C182.849 112.673 182.831 112.701 182.818 112.731C182.805 112.762 182.799 112.794 182.799 112.827V114.094H179.03V112.827C179.03 112.794 179.024 112.762 179.011 112.731C178.999 112.701 178.98 112.673 178.957 112.65C178.933 112.626 178.906 112.608 178.875 112.595C178.845 112.582 178.812 112.576 178.779 112.576H172.749C172.716 112.576 172.684 112.582 172.653 112.595C172.623 112.608 172.595 112.626 172.572 112.65C172.548 112.673 172.53 112.701 172.517 112.731C172.505 112.762 172.498 112.794 172.498 112.827V114.094H168.73V112.827C168.73 112.794 168.723 112.762 168.71 112.731C168.698 112.701 168.679 112.673 168.656 112.65C168.633 112.626 168.605 112.608 168.575 112.595C168.544 112.582 168.511 112.576 168.478 112.576H162.449C162.416 112.576 162.383 112.582 162.353 112.595C162.322 112.608 162.294 112.626 162.271 112.65C162.248 112.673 162.229 112.701 162.217 112.731C162.204 112.762 162.197 112.794 162.197 112.827V114.094H158.429V112.827C158.429 112.794 158.422 112.762 158.41 112.731C158.397 112.701 158.379 112.673 158.355 112.65C158.332 112.626 158.304 112.608 158.274 112.595C158.243 112.582 158.211 112.576 158.178 112.576H152.148C152.115 112.576 152.082 112.582 152.052 112.595C152.021 112.608 151.994 112.626 151.97 112.65C151.947 112.673 151.929 112.701 151.916 112.731C151.903 112.762 151.897 112.794 151.897 112.827V114.094H148.128V112.827C148.128 112.794 148.122 112.762 148.109 112.731C148.097 112.701 148.078 112.673 148.055 112.65C148.031 112.626 148.004 112.608 147.973 112.595C147.943 112.582 147.91 112.576 147.877 112.576H141.847C141.814 112.576 141.782 112.582 141.751 112.595C141.721 112.608 141.693 112.626 141.67 112.65C141.646 112.673 141.628 112.701 141.615 112.731C141.603 112.762 141.596 112.794 141.596 112.827V114.094H137.828V112.827C137.828 112.794 137.821 112.762 137.809 112.731C137.796 112.701 137.777 112.673 137.754 112.65C137.731 112.626 137.703 112.608 137.673 112.595C137.642 112.582 137.609 112.576 137.576 112.576H131.547C131.514 112.576 131.481 112.582 131.451 112.595C131.42 112.608 131.392 112.626 131.369 112.65C131.346 112.673 131.327 112.701 131.315 112.731C131.302 112.762 131.296 112.794 131.296 112.827V114.094H127.527V112.827C127.527 112.794 127.52 112.762 127.508 112.731C127.495 112.701 127.477 112.673 127.453 112.65C127.43 112.626 127.402 112.608 127.372 112.595C127.341 112.582 127.309 112.576 127.276 112.576H80.0435C80.0105 112.576 79.9778 112.582 79.9473 112.595C79.9169 112.608 79.8892 112.626 79.8658 112.65C79.8425 112.673 79.824 112.701 79.8114 112.731C79.7988 112.762 79.7923 112.794 79.7923 112.827V114.094H76.0237V112.827C76.0237 112.794 76.0172 112.762 76.0046 112.731C75.992 112.701 75.9735 112.673 75.9501 112.65C75.9268 112.626 75.8991 112.608 75.8686 112.595C75.8382 112.582 75.8055 112.576 75.7725 112.576H69.7428C69.7098 112.576 69.6772 112.582 69.6467 112.595C69.6162 112.608 69.5885 112.626 69.5652 112.65C69.5419 112.673 69.5233 112.701 69.5107 112.731C69.4981 112.762 69.4916 112.794 69.4916 112.827V114.094H65.7231V112.827C65.7231 112.794 65.7166 112.762 65.7039 112.731C65.6913 112.701 65.6728 112.673 65.6495 112.65C65.6262 112.626 65.5985 112.608 65.568 112.595C65.5375 112.582 65.5048 112.576 65.4718 112.576H59.4422C59.4092 112.576 59.3765 112.582 59.346 112.595C59.3156 112.608 59.2879 112.626 59.2645 112.65C59.2412 112.673 59.2227 112.701 59.2101 112.731C59.1974 112.762 59.1909 112.794 59.1909 112.827V114.094H55.4224V112.827C55.4224 112.794 55.4159 112.762 55.4033 112.731C55.3907 112.701 55.3722 112.673 55.3488 112.65C55.3255 112.626 55.2978 112.608 55.2673 112.595C55.2368 112.582 55.2042 112.576 55.1712 112.576H49.1415C49.1085 112.576 49.0759 112.582 49.0454 112.595C49.0149 112.608 48.9872 112.626 48.9639 112.65C48.9405 112.673 48.922 112.701 48.9094 112.731C48.8968 112.762 48.8903 112.794 48.8903 112.827V114.094H45.1218V112.827C45.1218 112.794 45.1153 112.762 45.1027 112.731C45.09 112.701 45.0715 112.673 45.0482 112.65C45.0249 112.626 44.9972 112.608 44.9667 112.595C44.9362 112.582 44.9035 112.576 44.8705 112.576H38.8409C38.8079 112.576 38.7752 112.582 38.7447 112.595C38.7142 112.608 38.6866 112.626 38.6632 112.65C38.6399 112.673 38.6214 112.701 38.6088 112.731C38.5961 112.762 38.5896 112.794 38.5896 112.827V114.094H34.8211V112.827C34.8211 112.794 34.8146 112.762 34.802 112.731C34.7894 112.701 34.7709 112.673 34.7475 112.65C34.7242 112.626 34.6965 112.608 34.666 112.595C34.6355 112.582 34.6029 112.576 34.5699 112.576H28.5402C28.5072 112.576 28.4746 112.582 28.4441 112.595C28.4136 112.608 28.3859 112.626 28.3626 112.65C28.3392 112.673 28.3207 112.701 28.3081 112.731C28.2955 112.762 28.289 112.794 28.289 112.827V114.094H24.5205V112.827C24.5205 112.794 24.514 112.762 24.5013 112.731C24.4887 112.701 24.4702 112.673 24.4469 112.65C24.4235 112.626 24.3959 112.608 24.3654 112.595C24.3349 112.582 24.3022 112.576 24.2692 112.576H18.2396C18.2066 112.576 18.1739 112.582 18.1434 112.595C18.1129 112.608 18.0852 112.626 18.0619 112.65C18.0386 112.673 18.0201 112.701 18.0075 112.731C17.9948 112.762 17.9883 112.794 17.9883 112.827V114.094H6.43151C4.83234 114.094 3.29868 114.73 2.1679 115.86C1.03712 116.991 0.401857 118.525 0.401855 120.124V122.85C0.40186 124.45 1.03713 125.983 2.16791 127.114C3.29868 128.245 4.83235 128.88 6.43151 128.88H206.917C208.517 128.88 210.05 128.245 211.181 127.114C212.312 125.983 212.947 124.45 212.947 122.85V120.124C212.947 118.525 212.312 116.991 211.181 115.86C210.05 114.73 208.517 114.094 206.917 114.094Z" fill="#3F3D56"/>
<path d="M47.2684 101.833C42.9511 101.833 38.7307 100.553 35.1409 98.1541C31.5511 95.7556 28.7533 92.3463 27.1011 88.3576C25.4489 84.3689 25.0166 79.9798 25.8589 75.7454C26.7012 71.511 28.7802 67.6214 31.833 64.5686C34.8859 61.5158 38.7754 59.4368 43.0098 58.5945C47.2442 57.7522 51.6333 58.1845 55.622 59.8367C59.6107 61.4889 63.0199 64.2867 65.4185 67.8765C67.8171 71.4663 69.0974 75.6867 69.0974 80.004C69.0908 85.7914 66.7889 91.3399 62.6966 95.4322C58.6043 99.5245 53.0558 101.826 47.2684 101.833ZM47.2684 58.7495C43.0647 58.7495 38.9553 59.9961 35.4601 62.3315C31.9648 64.667 29.2405 67.9865 27.6318 71.8703C26.0231 75.754 25.6022 80.0276 26.4223 84.1506C27.2424 88.2736 29.2667 92.0607 32.2392 95.0332C35.2117 98.0057 38.9989 100.03 43.1219 100.85C47.2448 101.67 51.5184 101.249 55.4022 99.6406C59.2859 98.0319 62.6054 95.3077 64.9409 91.8124C67.2764 88.3171 68.5229 84.2078 68.5229 80.004C68.5166 74.3689 66.2752 68.9665 62.2906 64.9818C58.306 60.9972 52.9035 58.7559 47.2684 58.7495Z" fill="#3F3D56"/>
<path d="M242.005 9.34717H168.764V9.92161H242.005V9.34717Z" fill="#3F3D56"/>
<path d="M327.598 161.001H117.063V161.575H327.598V161.001Z" fill="#3F3D56"/>
<path d="M128.983 187.426H55.7417V188H128.983V187.426Z" fill="#3F3D56"/>
<path d="M143.726 157.973H135.684V166.015H143.726V157.973Z" fill="#F48E1E"/>
<path d="M148.609 161.419H138.843V151.654H148.609V161.419ZM139.268 160.995H148.184V152.078H139.268V160.995Z" fill="#3F3D56"/>
<path d="M237.074 6.31897H229.032V14.3612H237.074V6.31897Z" fill="#F48E1E"/>
<path d="M241.957 9.76559H232.191V0H241.957V9.76559ZM232.616 9.341H241.532V0.424592H232.616V9.341Z" fill="#3F3D56"/>
<path d="M318.071 157.973H310.028V166.015H318.071V157.973Z" fill="#F48E1E"/>
<path d="M322.954 161.419H313.188V151.654H322.954V161.419ZM313.613 160.995H322.529V152.078H313.613V160.995Z" fill="#3F3D56"/>
<path d="M304.046 66.6238H303.363V47.9078C303.363 46.4853 303.082 45.0767 302.538 43.7625C301.994 42.4483 301.196 41.2541 300.19 40.2482C299.184 39.2424 297.99 38.4445 296.676 37.9001C295.361 37.3557 293.953 37.0756 292.53 37.0756H252.878C251.456 37.0756 250.047 37.3557 248.733 37.9001C247.419 38.4445 246.224 39.2424 245.219 40.2482C244.213 41.2541 243.415 42.4483 242.87 43.7625C242.326 45.0767 242.046 46.4853 242.046 47.9078V150.585C242.046 152.007 242.326 153.416 242.87 154.73C243.415 156.044 244.213 157.239 245.219 158.244C246.224 159.25 247.419 160.048 248.733 160.593C250.047 161.137 251.456 161.417 252.878 161.417H292.53C293.953 161.417 295.361 161.137 296.676 160.593C297.99 160.048 299.184 159.25 300.19 158.244C301.196 157.238 301.994 156.044 302.538 154.73C303.082 153.416 303.363 152.007 303.363 150.585V79.9461H304.046V66.6238Z" fill="#3F3D56"/>
<path d="M301.056 48.5445V151.072C301.057 153.217 300.205 155.275 298.688 156.792C297.171 158.31 295.113 159.162 292.968 159.163H253.124C250.979 159.162 248.921 158.31 247.405 156.792C245.888 155.275 245.036 153.217 245.036 151.072V48.5445C245.036 46.3994 245.889 44.3423 247.405 42.8255C248.922 41.3087 250.979 40.4565 253.124 40.4563H257.958C257.72 41.0398 257.63 41.6729 257.694 42.2998C257.758 42.9266 257.976 43.528 258.328 44.051C258.679 44.5739 259.154 45.0024 259.71 45.2987C260.266 45.5949 260.887 45.7499 261.517 45.7498H284.233C284.864 45.7499 285.484 45.5949 286.04 45.2987C286.597 45.0024 287.071 44.574 287.423 44.051C287.774 43.528 287.992 42.9266 288.056 42.2998C288.121 41.6729 288.03 41.0398 287.792 40.4563H292.968C295.113 40.4565 297.17 41.3087 298.687 42.8255C300.204 44.3423 301.056 46.3994 301.056 48.5445Z" fill="#F48E1E"/>
<path d="M278.98 108.058H267.111V111.576H278.98V108.058Z" fill="#3F3D56"/>
<path d="M293.33 80.6738H252.762V82.1812H293.33V80.6738Z" fill="#3F3D56"/>
<path d="M293.33 85.4473H252.762V86.9547H293.33V85.4473Z" fill="#3F3D56"/>
<path d="M293.33 90.2207H252.762V91.7281H293.33V90.2207Z" fill="#3F3D56"/>
<path d="M293.33 94.9943H252.762V96.5017H293.33V94.9943Z" fill="#3F3D56"/>
<path d="M293.33 99.7677H252.762V101.275H293.33V99.7677Z" fill="#3F3D56"/>
<path d="M274.463 60.6554H267.429V67.69H274.463V60.6554Z" fill="#F2F2F2"/>
<path d="M270.122 62.4146V70.9566H278.664V62.4146H270.122ZM278.293 70.5861H270.492V62.7851H278.293V70.5861Z" fill="#3F3D56"/>
<path opacity="0.1" d="M301.056 140.123V151.072C301.057 153.217 300.205 155.275 298.688 156.792C297.171 158.31 295.113 159.162 292.968 159.163H253.124C250.979 159.162 248.921 158.31 247.405 156.792C245.888 155.275 245.036 153.217 245.036 151.072V95.8645L278.604 122.384L279.178 122.838L285.423 127.769L286.006 128.232L301.056 140.123Z" fill="#1B1B1B"/>
<path d="M269.599 155.84C276.558 155.84 282.199 150.199 282.199 143.24C282.199 136.282 276.558 130.64 269.599 130.64C262.641 130.64 257 136.282 257 143.24C257 150.199 262.641 155.84 269.599 155.84Z" fill="#F2F2F2"/>
<path d="M92.3625 188C87.4202 188 82.589 186.535 78.4796 183.789C74.3703 181.043 71.1675 177.14 69.2762 172.574C67.3849 168.008 66.89 162.984 67.8542 158.137C68.8184 153.289 71.1983 148.837 74.693 145.342C78.1877 141.847 82.6402 139.468 87.4875 138.503C92.3347 137.539 97.3591 138.034 101.925 139.925C106.491 141.817 110.394 145.019 113.14 149.129C115.885 153.238 117.351 158.069 117.351 163.012C117.343 169.637 114.708 175.988 110.024 180.673C105.339 185.357 98.9875 187.993 92.3625 188ZM92.3625 138.598C87.5338 138.598 82.8136 140.029 78.7988 142.712C74.7839 145.395 71.6547 149.208 69.8069 153.669C67.9591 158.13 67.4756 163.039 68.4176 167.775C69.3596 172.51 71.6848 176.861 75.0992 180.275C78.5135 183.689 82.8637 186.014 87.5995 186.956C92.3354 187.899 97.2442 187.415 101.705 185.567C106.166 183.719 109.979 180.59 112.662 176.575C115.345 172.56 116.776 167.84 116.776 163.012C116.769 156.539 114.195 150.333 109.618 145.756C105.041 141.179 98.8352 138.605 92.3625 138.598Z" fill="#3F3D56"/>
<path d="M273.313 152.959C270.188 152.959 267.134 152.032 264.536 150.296C261.939 148.561 259.914 146.093 258.718 143.207C257.522 140.32 257.21 137.144 257.819 134.08C258.429 131.015 259.933 128.2 262.143 125.991C264.352 123.782 267.167 122.277 270.231 121.668C273.295 121.058 276.472 121.371 279.358 122.567C282.245 123.762 284.712 125.787 286.448 128.385C288.184 130.983 289.11 134.037 289.11 137.162C289.105 141.35 287.44 145.365 284.478 148.327C281.517 151.288 277.501 152.954 273.313 152.959ZM273.313 121.939C270.302 121.939 267.359 122.832 264.856 124.504C262.352 126.177 260.401 128.554 259.249 131.336C258.097 134.118 257.795 137.178 258.383 140.131C258.97 143.084 260.42 145.797 262.549 147.926C264.678 150.055 267.39 151.504 270.343 152.092C273.296 152.679 276.357 152.378 279.138 151.226C281.92 150.073 284.298 148.122 285.97 145.619C287.643 143.116 288.536 140.172 288.536 137.162C288.531 133.126 286.926 129.256 284.072 126.402C281.218 123.549 277.349 121.943 273.313 121.939Z" fill="#3F3D56"/>
</g>
<defs>
<clipPath id="clip0_120_241">
<rect width="327.196" height="188" fill="white" transform="translate(0.401855)"/>
</clipPath>
</defs>
</svg>
