<svg width="222" height="188" viewBox="0 0 222 188" fill="none" xmlns="http://www.w3.org/2000/svg">
<g clip-path="url(#clip0_120_286)">
<path d="M221.708 100.943V179.921C221.706 182.063 220.941 184.116 219.582 185.631C218.223 187.145 216.38 187.997 214.458 188H160.098L160.603 187.288L221.069 101.848L221.708 100.943Z" fill="#F2F2F2"/>
<path d="M86.8176 73.1235H24.3968C23.8853 73.1235 23.3948 73.35 23.0331 73.753C22.6714 74.1561 22.4683 74.7027 22.4683 75.2727C22.4683 75.8427 22.6714 76.3894 23.0331 76.7924C23.3948 77.1955 23.8853 77.4219 24.3968 77.4219H86.8176C87.3291 77.4219 87.8196 77.1955 88.1813 76.7924C88.5429 76.3894 88.7461 75.8427 88.7461 75.2727C88.7461 74.7027 88.5429 74.1561 88.1813 73.753C87.8196 73.35 87.3291 73.1235 86.8176 73.1235Z" fill="#E6E6E6"/>
<path d="M43.7505 61.0728H24.3968C23.8853 61.0728 23.3948 61.2992 23.0331 61.7022C22.6714 62.1053 22.4683 62.6519 22.4683 63.2219C22.4683 63.7919 22.6714 64.3386 23.0331 64.7416C23.3948 65.1447 23.8853 65.3711 24.3968 65.3711H43.7505C44.262 65.3711 44.7525 65.1447 45.1142 64.7416C45.4758 64.3386 45.679 63.7919 45.679 63.2219C45.679 62.6519 45.4758 62.1053 45.1142 61.7022C44.7525 61.2992 44.262 61.0728 43.7505 61.0728Z" fill="#E6E6E6"/>
<path d="M214.458 0H7.542C5.62001 0.00257902 3.77742 0.854587 2.41837 2.36914C1.05932 3.88369 0.294795 5.93712 0.29248 8.07902V179.921C0.294795 182.063 1.05932 184.116 2.41837 185.631C3.77742 187.145 5.62001 187.997 7.542 188H214.458C216.38 187.997 218.223 187.145 219.582 185.631C220.941 184.116 221.705 182.063 221.708 179.921V8.07902C221.705 5.93712 220.941 3.88369 219.582 2.36914C218.223 0.854587 216.38 0.00257902 214.458 0ZM221.069 179.921C221.069 180.888 220.898 181.846 220.566 182.74C220.233 183.634 219.746 184.446 219.133 185.13C218.519 185.814 217.79 186.357 216.988 186.727C216.186 187.097 215.326 187.288 214.458 187.288H7.542C5.78878 187.288 4.10737 186.512 2.86766 185.13C1.62795 183.749 0.931486 181.875 0.931486 179.921V56.142C0.931486 41.4411 6.1718 27.3423 15.4996 16.9472C24.8274 6.55204 37.4787 0.712121 50.6702 0.712121H214.458C215.326 0.712121 216.186 0.902673 216.988 1.27289C217.79 1.64311 218.519 2.18576 219.133 2.86984C219.746 3.55392 220.233 4.36603 220.566 5.25983C220.898 6.15362 221.069 7.11158 221.069 8.07902V179.921Z" fill="#E6E6E6"/>
<path d="M201.544 31.0728H20.4723C20.3876 31.0728 20.3063 31.0353 20.2464 30.9686C20.1865 30.9018 20.1528 30.8112 20.1528 30.7168C20.1528 30.6223 20.1865 30.5318 20.2464 30.465C20.3063 30.3982 20.3876 30.3607 20.4723 30.3607H201.544C201.629 30.3607 201.71 30.3982 201.77 30.465C201.83 30.5318 201.864 30.6223 201.864 30.7168C201.864 30.8112 201.83 30.9018 201.77 30.9686C201.71 31.0353 201.629 31.0728 201.544 31.0728Z" fill="#E6E6E6"/>
<path d="M29.5315 20.3838C31.0237 20.3838 32.2334 19.0056 32.2334 17.3056C32.2334 15.6056 31.0237 14.2274 29.5315 14.2274C28.0393 14.2274 26.8296 15.6056 26.8296 17.3056C26.8296 19.0056 28.0393 20.3838 29.5315 20.3838Z" fill="#E6E6E6"/>
<path d="M38.8655 20.3838C40.3577 20.3838 41.5674 19.0056 41.5674 17.3056C41.5674 15.6056 40.3577 14.2274 38.8655 14.2274C37.3733 14.2274 36.1636 15.6056 36.1636 17.3056C36.1636 19.0056 37.3733 20.3838 38.8655 20.3838Z" fill="#E6E6E6"/>
<path d="M48.1995 20.3838C49.6917 20.3838 50.9014 19.0056 50.9014 17.3056C50.9014 15.6056 49.6917 14.2274 48.1995 14.2274C46.7072 14.2274 45.4976 15.6056 45.4976 17.3056C45.4976 19.0056 46.7072 20.3838 48.1995 20.3838Z" fill="#E6E6E6"/>
<path d="M58.8423 19.7385C58.7998 19.7385 58.7576 19.7291 58.7184 19.7107C58.6792 19.6923 58.6437 19.6653 58.614 19.6314L56.7909 17.5545C56.7324 17.488 56.6997 17.3986 56.6997 17.3055C56.6997 17.2124 56.7324 17.1231 56.7909 17.0565L58.614 14.9798C58.6432 14.9459 58.6782 14.9187 58.7169 14.8999C58.7556 14.8811 58.7972 14.871 58.8394 14.8703C58.8817 14.8695 58.9236 14.8781 58.9628 14.8955C59.002 14.913 59.0378 14.9389 59.0679 14.9718C59.0981 15.0047 59.1222 15.0439 59.1386 15.0872C59.1551 15.1305 59.1638 15.1771 59.164 15.2241C59.1643 15.2712 59.1562 15.3178 59.1402 15.3613C59.1242 15.4049 59.1006 15.4444 59.0707 15.4777L57.4662 17.3055L59.0707 19.1334C59.1147 19.1836 59.1444 19.247 59.1562 19.3159C59.168 19.3847 59.1612 19.4559 59.1368 19.5205C59.1124 19.5851 59.0715 19.6402 59.0191 19.679C58.9667 19.7178 58.9052 19.7385 58.8423 19.7385Z" fill="#E6E6E6"/>
<path d="M61.9059 19.7385C61.843 19.7385 61.7815 19.7178 61.7292 19.679C61.6768 19.6403 61.6358 19.5851 61.6114 19.5205C61.587 19.4559 61.5803 19.3847 61.5921 19.3159C61.6038 19.247 61.6335 19.1836 61.6775 19.1335L63.2819 17.3055L61.6775 15.4778C61.6192 15.4101 61.5873 15.3195 61.5886 15.2256C61.59 15.1318 61.6245 15.0424 61.6847 14.9768C61.7449 14.9112 61.8259 14.8747 61.9101 14.8753C61.9943 14.8758 62.0748 14.9134 62.1343 14.9799L63.9572 17.0566C64.0157 17.1231 64.0484 17.2125 64.0484 17.3055C64.0484 17.3986 64.0157 17.488 63.9572 17.5545L62.1343 19.6314C62.1046 19.6654 62.0691 19.6923 62.0298 19.7107C61.9906 19.7291 61.9485 19.7386 61.9059 19.7385Z" fill="#E6E6E6"/>
<path d="M185.397 14.5839H182.007C181.915 14.5838 181.824 14.604 181.739 14.6432C181.654 14.6823 181.577 14.7398 181.512 14.8122C181.447 14.8846 181.395 14.9706 181.36 15.0652C181.325 15.1598 181.307 15.2612 181.307 15.3636V19.145C181.307 19.2474 181.325 19.3488 181.36 19.4434C181.395 19.5381 181.447 19.624 181.512 19.6964C181.577 19.7689 181.654 19.8263 181.739 19.8655C181.824 19.9047 181.915 19.9248 182.007 19.9248H185.397C185.583 19.925 185.761 19.843 185.893 19.6968C186.025 19.5506 186.099 19.3522 186.1 19.145V15.3636C186.099 15.1564 186.025 14.958 185.893 14.8118C185.761 14.6656 185.583 14.5837 185.397 14.5839Z" fill="#E6E6E6"/>
<path d="M177.09 14.5839H173.7C173.608 14.5838 173.517 14.604 173.432 14.6432C173.347 14.6823 173.27 14.7398 173.205 14.8122C173.14 14.8846 173.088 14.9706 173.053 15.0652C173.018 15.1598 173 15.2612 173 15.3636V19.145C173 19.2474 173.018 19.3488 173.053 19.4434C173.088 19.5381 173.14 19.624 173.205 19.6964C173.27 19.7689 173.347 19.8263 173.432 19.8655C173.517 19.9047 173.608 19.9248 173.7 19.9248H177.09C177.276 19.925 177.454 19.843 177.586 19.6968C177.717 19.5506 177.792 19.3522 177.793 19.145V15.3636C177.792 15.1564 177.717 14.958 177.586 14.8118C177.454 14.6656 177.276 14.5837 177.09 14.5839Z" fill="#E6E6E6"/>
<path d="M193.225 14.7618H189.835C189.743 14.7618 189.652 14.782 189.567 14.8211C189.482 14.8603 189.405 14.9177 189.34 14.9902C189.275 15.0626 189.224 15.1486 189.188 15.2432C189.153 15.3378 189.135 15.4392 189.135 15.5416V19.323C189.135 19.4254 189.153 19.5268 189.188 19.6214C189.224 19.716 189.275 19.802 189.34 19.8744C189.405 19.9468 189.482 20.0043 189.567 20.0435C189.652 20.0826 189.743 20.1028 189.835 20.1028H193.225C193.411 20.1029 193.589 20.021 193.721 19.8748C193.853 19.7286 193.927 19.5302 193.928 19.323V15.5416C193.927 15.3344 193.853 15.136 193.721 14.9898C193.589 14.8436 193.411 14.7616 193.225 14.7618Z" fill="#E6E6E6"/>
<path d="M124.557 16.2003H97.4595C97.2333 16.2003 97.0163 16.3005 96.8563 16.4788C96.6963 16.6571 96.6064 16.8989 96.6064 17.151C96.6064 17.4031 96.6963 17.6449 96.8563 17.8232C97.0163 18.0015 97.2333 18.1017 97.4595 18.1017H124.557C124.783 18.1017 125 18.0015 125.16 17.8232C125.32 17.6449 125.41 17.4031 125.41 17.151C125.41 16.8989 125.32 16.6571 125.16 16.4788C125 16.3005 124.783 16.2003 124.557 16.2003Z" fill="#E6E6E6"/>
<path d="M51.9267 146.144L35.7225 145.573C33.475 145.494 30.9477 145.498 29.3447 146.792C27.5253 148.261 27.8008 150.864 29.3113 152.552C30.8219 154.24 33.2339 155.205 35.6012 155.989C48.178 160.155 62.0971 161 75.6122 160.058C89.1272 159.115 102.364 156.45 115.536 153.794C116.785 153.543 118.201 153.18 118.71 152.211C119.203 151.274 118.558 150.144 117.557 149.538C116.555 148.932 115.285 148.728 114.06 148.548C91.8716 145.298 69.443 144.585 47.1243 146.42" fill="#F48E1E"/>
<path d="M81.0404 132.255V127.982C78.2581 128.026 68.3017 127.951 65.7042 127.983C65.511 142.916 64.3261 139.991 75.3046 140.049C75.8092 140.051 76.2925 140.276 76.6489 140.674C77.0053 141.072 77.2057 141.611 77.2064 142.173V142.237C77.2064 142.801 77.0056 143.341 76.6481 143.739C76.2907 144.137 75.806 144.361 75.3005 144.361H65.7042V148.634H81.0404C81.0619 148.62 81.0248 144.508 81.0404 144.361C81.6889 131.983 80.4058 136.435 71.0829 135.938C70.6657 135.915 70.2728 135.713 69.9853 135.375C69.6978 135.038 69.5377 134.59 69.5382 134.124V134.071C69.5382 133.589 69.7099 133.128 70.0155 132.787C70.3211 132.447 70.7355 132.255 71.1676 132.255H81.0404Z" fill="#3F3D56"/>
<path d="M99.891 132.255V127.982C97.1087 128.026 87.1522 127.951 84.5548 127.983C84.3599 143.046 83.156 139.939 94.4441 140.051C94.8734 140.056 95.2836 140.249 95.5856 140.589C95.8876 140.929 96.057 141.388 96.057 141.867C96.057 142.091 96.057 142.321 96.057 142.546C96.057 142.784 96.0148 143.02 95.9329 143.241C95.851 143.461 95.731 143.661 95.5797 143.83C95.4284 143.998 95.2487 144.132 95.051 144.223C94.8534 144.314 94.6415 144.361 94.4276 144.361H84.5548V148.634H99.891C99.9125 148.62 99.8754 144.508 99.891 144.361C100.539 131.983 99.2564 136.435 89.9334 135.938C89.5163 135.915 89.1233 135.713 88.8358 135.375C88.5483 135.038 88.3883 134.59 88.3888 134.124V134.071C88.3888 133.589 88.5605 133.128 88.8661 132.787C89.1717 132.447 89.5861 132.255 90.0182 132.255H99.891Z" fill="#3F3D56"/>
<path d="M61.2314 132.255V127.982H45.8953C45.8844 131.793 45.9031 141.88 45.8953 145.785C42.8891 151.457 59.967 147.53 61.2323 148.635C61.2314 148.634 61.2314 144.361 61.2314 144.361C49.5628 144.293 49.2696 146.728 49.645 134.951C49.6676 134.227 49.9411 133.542 50.408 133.039C50.8748 132.537 51.4986 132.255 52.1479 132.255C55.5213 132.255 61.2314 132.255 61.2314 132.255Z" fill="#3F3D56"/>
<path d="M91.5448 95.1082L75.3406 94.6323C73.0932 94.5663 70.5658 94.5697 68.9628 95.6487C67.1435 96.8732 67.4189 99.0427 68.9295 100.45C70.44 101.857 72.852 102.661 75.2193 103.315C87.7962 106.787 101.715 107.492 115.23 106.707C128.745 105.921 141.982 103.699 155.154 101.486C156.403 101.276 157.819 100.974 158.328 100.166C158.821 99.3847 158.176 98.4426 157.175 97.9376C156.173 97.4327 154.903 97.2625 153.678 97.1122C131.452 94.4026 109.059 93.8092 86.7424 95.3385" fill="#F48E1E"/>
<path d="M88.7085 76.3536C88.4474 82.9501 90.623 85.0264 83.1169 84.1861C82.6097 80.2509 85.1815 74.7899 79.2832 76.1763C80.4648 79.0311 75.9915 100.689 83.116 96.8259C83.5161 90.319 80.8788 87.465 88.7087 88.4605C89.3366 92.4829 86.4059 98.4021 92.5423 97.0045C91.3609 94.1484 95.8342 72.4925 88.7085 76.3536Z" fill="#3F3D56"/>
<path d="M128.007 76.3536C128.533 76.7157 123.186 83.0205 123.07 83.537C122.91 83.0962 117.806 76.9277 118.422 76.3539C111.32 72.4426 115.746 94.2263 114.587 97.0061C114.588 97.0051 118.422 97.0052 118.422 97.0052V83.4755C123.811 91.5758 122.81 90.2127 128.007 83.0778L128.007 97.0052C135.109 100.918 130.683 79.1314 131.842 76.3527C131.841 76.3536 128.007 76.3536 128.007 76.3536Z" fill="#3F3D56"/>
<path d="M111.074 76.3536H95.7375C94.8364 82.3433 97.8159 80.3344 101.489 80.6262L101.489 97.0052H105.323V80.6264C108.979 80.3493 111.986 82.3169 111.074 76.3536Z" fill="#3F3D56"/>
<path d="M138.87 92.7324C137.985 87.3174 137.985 81.7686 138.87 76.3536H135.036C135.059 79.0607 135.03 89.9844 135.032 94.9798C135.032 95.5189 135.224 96.036 135.565 96.4175C135.907 96.7989 136.371 97.0134 136.855 97.0138C140.718 97.0195 148.092 96.9878 150.373 97.0052L150.373 92.7324H138.87Z" fill="#3F3D56"/>
<path d="M40.9272 93.4446H25.3438C24.5811 93.4446 23.8497 93.7822 23.3105 94.3832C22.7712 94.9841 22.4683 95.7992 22.4683 96.6491C22.4683 97.499 22.7712 98.3141 23.3105 98.9151C23.8497 99.516 24.5811 99.8537 25.3438 99.8537H40.9273C41.6899 99.8537 42.4213 99.516 42.9606 98.9151C43.4998 98.3141 43.8028 97.499 43.8028 96.6491C43.8028 95.7992 43.4998 94.9841 42.9606 94.3832C42.4213 93.7822 41.6899 93.4446 40.9272 93.4446Z" fill="#E6E6E6"/>
<path d="M182.215 184.286L179.051 184.285L177.546 170.687L182.215 170.688L182.215 184.286Z" fill="#FFB6B6"/>
<path d="M182.326 187.963L172.598 187.963V187.826C172.598 186.707 172.997 185.633 173.707 184.842C174.417 184.051 175.38 183.606 176.385 183.606L178.162 182.104L181.477 183.606L182.326 183.606L182.326 187.963Z" fill="#2F2E41"/>
<path d="M193.397 184.286L190.234 184.285L188.729 170.687L193.398 170.688L193.397 184.286Z" fill="#FFB6B6"/>
<path d="M193.509 187.963L183.781 187.963V187.826C183.781 186.707 184.18 185.633 184.89 184.842C185.6 184.051 186.563 183.606 187.567 183.606L189.344 182.104L192.66 183.606L193.509 183.606L193.509 187.963Z" fill="#2F2E41"/>
<path d="M174.338 110.194C174.338 110.194 171.294 120.611 171.856 121.983C172.418 123.354 173.376 122.285 172.418 123.354C171.459 124.422 170.623 123.286 171.52 125.1C172.418 126.914 173.778 141.847 174.376 142.57C174.974 143.293 175.796 143.312 175.066 144.015C174.335 144.717 173.376 143.293 174.335 144.717C175.293 146.142 177.837 178.997 177.837 178.997H182.806C182.806 178.997 184.043 177.408 183.343 176.373C182.642 175.339 183.404 174.94 183.343 174.249C183.281 173.558 183.514 172.069 183.557 171.389C183.601 170.71 184.44 154.52 182.423 145.168L186.102 127.361L187.941 148.883C187.941 148.883 185.891 166.936 187.941 172.74C187.941 172.74 186.288 174.273 187.021 175.162C187.754 176.051 188.393 175.339 187.754 176.051C187.115 176.763 188.713 179.255 188.713 179.255L194.144 178.899L197.218 145.168C197.218 145.168 197.737 141.65 197.218 141.047C196.7 140.445 196.7 142.581 196.7 140.445V137.596C196.7 137.596 199.017 120.076 198.977 119.044C198.937 118.013 195.103 110.535 195.103 110.535L174.338 110.194Z" fill="#2F2E41"/>
<path d="M190.403 68.06L182.471 67.4521L180.098 71.6223L174.383 74.2119V94.7547C174.977 96.7437 175.285 98.8254 175.293 100.922C175.272 105.015 174.328 109.836 174.654 110.892C177.849 121.217 195.422 110.892 195.422 110.892L195.103 99.8537L195.536 74.9083L191.945 71.7166L190.403 68.06Z" fill="#E6E6E6"/>
<path d="M174.016 114.653L173.47 108.158L170.097 107.989L170.894 114.833C170.69 115.169 170.573 115.562 170.558 115.968C170.543 116.374 170.63 116.776 170.809 117.13C170.988 117.484 171.252 117.775 171.572 117.971C171.891 118.167 172.253 118.26 172.617 118.239C172.981 118.218 173.333 118.084 173.632 117.853C173.932 117.621 174.168 117.301 174.313 116.929C174.458 116.556 174.508 116.146 174.455 115.744C174.403 115.342 174.251 114.964 174.016 114.653Z" fill="#FFB6B6"/>
<path d="M175.676 73.6641L175.583 73.6817C174.713 73.846 173.892 74.244 173.192 74.8414C172.491 75.4388 171.932 76.2174 171.562 77.11C170.596 79.4379 167.46 94.741 168.835 97.0487C169.901 98.8386 169.642 98.4894 169.141 99.8395C168.639 101.19 167.832 99.7489 168.494 101.892C169.155 104.035 169.883 103.729 169.268 104.557C168.654 105.385 168.024 105.222 168.621 106.609C169.219 107.995 169.122 108.464 169.235 108.986C169.347 109.508 169.249 113.181 169.249 113.181C169.249 113.181 172.852 112.876 174.645 113.831C174.645 113.831 173.645 110.122 174.21 109.528C174.776 108.934 175.454 108.862 174.97 107.998C174.486 107.133 173.387 107.097 174.583 106.665C175.778 106.234 175.393 98.4918 175.393 98.4918C177.363 92.7448 176.584 83.2921 175.676 73.6641Z" fill="#E6E6E6"/>
<path d="M197.401 115.117L197.653 108.599L201.014 108.24L200.527 115.12C200.747 115.445 200.881 115.831 200.914 116.235C200.947 116.64 200.879 117.047 200.716 117.41C200.553 117.774 200.303 118.08 199.993 118.293C199.682 118.507 199.325 118.62 198.96 118.619C198.596 118.619 198.239 118.505 197.929 118.291C197.619 118.076 197.369 117.77 197.207 117.406C197.045 117.042 196.977 116.635 197.012 116.231C197.046 115.826 197.18 115.44 197.401 115.117Z" fill="#FFB6B6"/>
<path d="M193.888 74.2732L193.982 74.2855C194.858 74.4007 195.696 74.7521 196.422 75.3094C197.149 75.8666 197.743 76.6128 198.153 77.4834C199.223 79.754 202.608 95.1329 201.779 97.2434C201.006 99.2116 201.038 98.7276 201.6 100.048C202.162 101.368 202.903 99.8838 202.339 102.061C201.775 104.238 201.035 103.974 201.686 104.766C202.337 105.559 202.959 105.361 202.425 106.779C201.891 108.198 202.009 108.66 201.92 109.188C201.831 109.716 202.096 113.378 202.096 113.378C202.096 113.378 198.484 113.277 196.736 114.331C196.736 114.331 197.567 110.57 196.975 110.009C196.384 109.448 195.703 109.414 196.147 108.524C196.592 107.633 197.688 107.535 196.474 107.171C195.26 106.807 195.294 99.0534 195.294 99.0534L193.888 74.2732Z" fill="#E6E6E6"/>
<path d="M186.632 66.1463C190.049 66.1463 192.818 63.0597 192.818 59.2521C192.818 55.4446 190.049 52.358 186.632 52.358C183.215 52.358 180.446 55.4446 180.446 59.2521C180.446 63.0597 183.215 66.1463 186.632 66.1463Z" fill="#FFB6B6"/>
<path d="M190.937 65.1534C191.797 64.403 191.881 62.9727 192.615 62.0711C193.843 60.5636 194.419 58.9418 193.776 57.1556C193.207 55.5757 193.328 53.6337 192.103 52.6168C192.705 52.3741 192.847 51.87 192.316 51.8607C191.958 51.8544 190.623 52.6169 191.265 51.6671C191.908 50.7173 190.692 51.0922 190.772 50.7034C190.853 50.3146 191.368 50.0993 191.596 50.4074C191.404 50.189 191.17 50.0222 190.911 49.9199C190.652 49.8177 190.376 49.7826 190.104 49.8173C189.831 49.8521 189.569 49.9558 189.338 50.1205C189.107 50.2852 188.912 50.5066 188.769 50.7677C188.046 49.5593 187.278 48.7278 186.171 49.4946C185.083 50.2478 185.098 51.1789 183.928 50.9551C183.378 50.8499 183.327 52.0074 182.951 52.467C182.777 52.7112 182.552 52.9032 182.294 53.0254C182.037 53.1477 181.757 53.1963 181.478 53.1668C180.93 53.0514 180.511 52.2902 180.818 51.7713L179.527 55.0555L179.006 54.3438C178.179 54.9446 178.45 56.5123 179.283 57.1037C180.116 57.695 181.198 57.5686 182.157 57.3065C183.311 56.9909 184.503 56.8808 185.688 56.9801C187.498 57.2652 188.759 59.6772 188.089 61.5728C188.784 60.8117 190.071 61.4433 190.431 62.4528C190.792 63.4622 190.528 64.5995 190.26 65.6444" fill="#2F2E41"/>
</g>
<defs>
<clipPath id="clip0_120_286">
<rect width="221.415" height="188" fill="white" transform="translate(0.29248)"/>
</clipPath>
</defs>
</svg>
