<svg width="1440" height="252" viewBox="0 0 1440 252" fill="none" xmlns="http://www.w3.org/2000/svg">
<path d="M0 24.4033L48 14.9793C96 4.84396 192 -12.9373 288 14.9793C384 43.9627 480 118.644 576 157.229C672 195.103 768 195.103 864 166.653C960 138.203 1056 81.3033 1152 81.3033C1248 81.3033 1344 138.203 1392 166.653L1440 195.103V252.003H1392C1344 252.003 1248 252.003 1152 252.003C1056 252.003 960 252.003 864 252.003C768 252.003 672 252.003 576 252.003C480 252.003 384 252.003 288 252.003C192 252.003 96 252.003 48 252.003H0V24.4033Z" fill="#F3F4F5"/>
</svg>
